<svg xmlns="http://www.w3.org/2000/svg" xmlns:xlink="http://www.w3.org/1999/xlink" width="566" height="526" viewBox="0 0 566 526"><defs><path id="a" d="M0 0h566v526H0z"/></defs><clipPath id="b"><use xlink:href="#a" overflow="visible"/></clipPath><path clip-path="url(#b)" fill="#E6E6E6" d="M484.234 310.288c0 111.361-90.276 201.637-201.637 201.637S80.96 421.65 80.96 310.288c0-111.361 90.276-201.637 201.637-201.637s201.637 90.276 201.637 201.637"/><path clip-path="url(#b)" fill="#00D6DB" d="M290.254 318.768c-7.764 0-15.62-.304-23.529-.92-47.995-3.73-92.282-18.461-124.702-41.477-32.802-23.285-49.608-52.3-47.322-81.696 2.286-29.398 23.374-55.465 59.38-73.401 35.588-17.726 81.62-25.436 129.615-21.703 47.995 3.732 92.282 18.462 124.702 41.478 32.802 23.285 49.607 52.299 47.322 81.696-2.286 29.397-23.374 55.465-59.382 73.399-29.722 14.807-66.731 22.624-106.084 22.624m-29.942-215.11c-86.513 0-156.519 38.583-160.626 91.403-4.465 57.432 70.643 110.278 167.427 117.803 96.797 7.522 179.158-33.077 183.624-90.506l2.492.194-2.492-.194c4.465-57.431-70.643-110.277-167.427-117.803-7.77-.603-15.45-.897-22.998-.897"/><path clip-path="url(#b)" fill="#5445A1" d="M173.627 252.543v44.949a76.084 76.084 0 0 1-5.731 28.969 72.877 72.877 0 0 0-4.196 41.415l1.494 7.828a30.675 30.675 0 0 1-.822 14.807l-2.561 8.294-.043.141c-1.95 6.426-.684 13.407 3.15 18.922 4.254 6.117 9.505 17.186 1.441 27.277l-7.652 7.651c-1.39 1.39.108 3.691 1.942 2.983l25.645-9.903c1.661 3.809 6.66 4.706 9.542 1.712l4.735-4.918c4.831-5.02 13.243-3.304 15.723 3.206a30.113 30.113 0 0 0 8.458-26.815l-.458-2.518a39.391 39.391 0 0 0 20.994-25.864l18.247-72.904-31.669-59.231-58.239-6.001z"/><path clip-path="url(#b)" fill="#5445A1" d="M159.974 458.407a4.285 4.285 0 0 1-3.6-1.969 4.286 4.286 0 0 1 .565-5.41l7.551-7.551c6.668-8.462 2.804-17.814-1.624-24.183-4.309-6.198-5.614-14.076-3.491-21.076l2.609-8.445a28.287 28.287 0 0 0 .754-13.601l-1.494-7.829a75.2 75.2 0 0 1 4.34-42.836 73.215 73.215 0 0 0 5.543-28.016v-47.72l62.317 6.42 32.751 61.254-18.483 73.841a41.78 41.78 0 0 1-20.627 26.631l.127.695a32.596 32.596 0 0 1-9.162 29.042l-2.727 2.695-1.366-3.585a6.963 6.963 0 0 0-5.143-4.366 6.971 6.971 0 0 0-6.442 2.004l-4.736 4.919a8.311 8.311 0 0 1-7.472 2.422 8.32 8.32 0 0 1-4.874-2.8l-23.741 9.167a4.343 4.343 0 0 1-1.575.297m1.794-59.462l2.393.726c-1.684 5.548-.633 11.817 2.81 16.769 4.436 6.379 10.509 18.793 1.341 30.266l-.186.207-5.375 5.375 24.876-9.606.958 2.197a3.28 3.28 0 0 0 2.462 1.945 3.275 3.275 0 0 0 2.988-.97l4.735-4.918a11.939 11.939 0 0 1 11.043-3.436 11.942 11.942 0 0 1 6.907 4.17 27.588 27.588 0 0 0 5.572-22.161l-.798-4.385 1.707-.83a36.807 36.807 0 0 0 19.662-24.222l18.013-71.971-30.588-57.208-54.161-5.58v42.179a78.186 78.186 0 0 1-5.92 29.921 70.2 70.2 0 0 0-4.051 39.994l1.494 7.828a33.288 33.288 0 0 1-.889 16.013l-2.561 8.295-2.432-.598zM390.757 252.543v44.949a76.083 76.083 0 0 0 5.73 28.969 72.869 72.869 0 0 1 4.196 41.415l-1.494 7.828a30.688 30.688 0 0 0 .822 14.807l2.561 8.294c.016.047.029.094.043.141 1.95 6.426.685 13.407-3.149 18.922-4.254 6.117-9.505 17.186-1.441 27.277l7.652 7.651c1.39 1.39-.108 3.691-1.942 2.983l-25.645-9.903c-1.661 3.809-6.66 4.706-9.542 1.712l-4.735-4.918c-4.831-5.02-13.243-3.304-15.723 3.206a30.113 30.113 0 0 1-8.458-26.815l.458-2.518a39.384 39.384 0 0 1-20.993-25.864l-18.248-72.904 31.669-59.231 58.239-6.001z"/><path clip-path="url(#b)" fill="#5445A1" d="M404.409 458.407a4.366 4.366 0 0 1-1.574-.296l-23.742-9.167a8.313 8.313 0 0 1-4.874 2.8 8.316 8.316 0 0 1-7.472-2.421l-4.734-4.92a6.96 6.96 0 0 0-6.444-2.004 6.964 6.964 0 0 0-5.143 4.367l-1.365 3.585-2.729-2.696a32.595 32.595 0 0 1-9.16-29.042l.127-.696a41.764 41.764 0 0 1-20.627-26.631l-18.482-73.84 32.751-61.254 62.316-6.42v47.72a73.222 73.222 0 0 0 5.542 28.016 75.197 75.197 0 0 1 4.342 42.837l-1.495 7.827c-.862 4.512-.6 9.214.755 13.602l2.608 8.446c2.123 7 .817 14.878-3.49 21.073-4.429 6.369-8.292 15.724-1.624 24.186l7.549 7.55a4.285 4.285 0 0 1 .566 5.41 4.287 4.287 0 0 1-3.601 1.968m-27.653-15.725l24.877 9.605-5.562-5.583c-9.168-11.471-3.094-23.885 1.341-30.265 3.444-4.951 4.494-11.22 2.812-16.77l2.349-.864-2.388.736-2.562-8.295a33.31 33.31 0 0 1-.89-16.012l1.495-7.828a70.197 70.197 0 0 0-4.053-39.995 78.199 78.199 0 0 1-5.919-29.92v-42.179l-54.16 5.58-30.589 57.209 18.014 71.97a36.796 36.796 0 0 0 19.661 24.221l1.706.83-.797 4.385a27.59 27.59 0 0 0 5.572 22.161 11.961 11.961 0 0 1 6.905-4.17 11.931 11.931 0 0 1 11.044 3.438l4.735 4.919a3.288 3.288 0 0 0 2.987.968 3.284 3.284 0 0 0 2.462-1.946l.96-2.195z"/><path clip-path="url(#b)" fill="#00D6DB" d="M373.32 175.996c0 52.295-40.862 94.688-91.269 94.688-50.406 0-91.268-42.393-91.268-94.688s40.862-94.688 91.268-94.688c50.407 0 91.269 42.393 91.269 94.688"/><path clip-path="url(#b)" fill="#00D6DB" d="M282.052 273.184c-51.704 0-93.769-43.598-93.769-97.188s42.065-97.188 93.769-97.188 93.769 43.598 93.769 97.188c-.001 53.589-42.065 97.188-93.769 97.188m0-189.376c-48.947 0-88.769 41.355-88.769 92.188 0 50.832 39.822 92.188 88.769 92.188 48.946 0 88.769-41.355 88.769-92.188-.001-50.833-39.823-92.188-88.769-92.188"/><path clip-path="url(#b)" fill="#5445A1" d="M453.228 222.551c-4.58 58.899-87.992 100.449-186.309 92.805-98.316-7.646-174.305-61.589-169.725-120.488 4.579-58.899 87.993-100.449 186.309-92.805 98.316 7.645 174.305 61.589 169.725 120.488"/><path clip-path="url(#b)" fill="#C5C5FF" d="M321.632 346.958l3.313-21.75h-85.534l3.313 21.75a175.935 175.935 0 0 1-.566 56.381l-.001.002c-1.624 9.386 2.433 18.854 9.93 23.179 18.915 10.909 41.267 10.909 60.182 0 7.497-4.324 11.554-13.793 9.929-23.179a175.861 175.861 0 0 1-.566-56.383"/><path clip-path="url(#b)" fill="#5445A1" d="M282.178 437.175c-10.764 0-21.529-2.83-31.34-8.489-8.295-4.785-12.872-15.269-11.181-25.553l.037-.222c3.185-18.4 3.372-37.1.558-55.577l-3.75-24.627h91.351l-3.75 24.627a172.776 172.776 0 0 0 .559 55.58c1.792 10.356-2.79 20.952-11.145 25.771-9.811 5.66-20.576 8.49-31.339 8.49m-37.521-33.622l-.036.216c-1.442 8.329 2.141 16.794 8.715 20.585 18.06 10.418 39.623 10.418 57.683 0 6.574-3.791 10.157-12.256 8.716-20.585a177.763 177.763 0 0 1-.574-57.188l2.875-18.873H242.32l2.875 18.874a177.731 177.731 0 0 1-.538 56.971"/><path clip-path="url(#b)" fill="#C5C5FF" d="M279.658 150.897c-70.005 0-52.758 56.037-60.938 68.315-9.396 14.104-16.259 31.436-16.259 31.436s4.065 52.655 30.333 75.524c9.389 8.173 30.999 19.276 30.999 19.276 5.274 3.114 11.375 4.762 17.572 4.762h1.539c6.187 0 12.277-1.643 17.545-4.747 0 0 21.599-11.105 30.997-19.291 25.016-21.787 31.297-75.524 31.297-75.524s-13.049-26.964-17.423-36.217c-6.996-14.8-3.04-45.938-20.413-56.247-16.878-10.016-45.249-7.287-45.249-7.287"/><path clip-path="url(#b)" fill="#5445A1" d="M282.904 352.71h-1.539c-6.641 0-13.133-1.753-18.78-5.072-1.56-.804-22.09-11.446-31.432-19.581-26.733-23.273-31.015-75.024-31.184-77.217l-.045-.576.213-.537c.284-.717 7.069-17.74 16.504-31.9 1.62-2.434 2.098-7.779 2.653-13.967 1.856-20.729 4.965-55.412 60.248-55.463 2.341-.212 29.655-2.443 46.641 7.637 12.239 7.263 14.696 23.486 16.863 37.801 1.139 7.517 2.214 14.617 4.534 19.527 4.319 9.138 17.282 35.928 17.412 36.197l.318.656-.084.723c-.262 2.234-6.686 54.951-32.138 77.118-9.354 8.148-29.884 18.799-31.434 19.598-5.637 3.308-12.121 5.056-18.75 5.056m-77.9-101.683c.544 5.721 5.688 52.589 29.432 73.259 9.048 7.879 30.285 18.829 30.499 18.938l.129.072c4.89 2.887 10.527 4.414 16.3 4.414h1.539c5.763 0 11.391-1.521 16.276-4.401l.126-.069c.214-.109 21.438-11.063 30.5-18.952 22.48-19.581 29.51-66.853 30.363-73.22-2.044-4.226-13.165-27.224-17.108-35.568-2.635-5.573-3.764-13.026-4.958-20.915-2.1-13.863-4.27-28.197-14.471-34.249-15.991-9.491-43.46-6.974-43.734-6.95l-.24.012c-22.563 0-37.648 5.788-46.115 17.693-7.202 10.129-8.349 22.93-9.269 33.216-.64 7.152-1.146 12.8-3.472 16.292-8.227 12.347-14.559 27.406-15.797 30.428"/><path clip-path="url(#b)" fill="#5445A1" d="M256.539 229.569c0 3.844-3.221 6.96-7.194 6.96s-7.194-3.116-7.194-6.96 3.221-6.96 7.194-6.96c3.972 0 7.194 3.116 7.194 6.96M322.944 229.569c0 3.844-3.221 6.96-7.194 6.96s-7.193-3.116-7.193-6.96 3.221-6.96 7.193-6.96c3.974 0 7.194 3.116 7.194 6.96M331.021 201.632l-.611-.394a50.282 50.282 0 0 0-24.117-7.938l-9.091-.568"/><path clip-path="url(#b)" fill="#5445A1" d="M331.02 204.131c-.464 0-.934-.128-1.353-.397l-.61-.394a47.925 47.925 0 0 0-22.92-7.546l-9.092-.568a2.501 2.501 0 0 1-2.339-2.652c.086-1.377 1.236-2.406 2.652-2.339l9.091.569a52.933 52.933 0 0 1 25.315 8.332l.609.392a2.5 2.5 0 0 1-1.353 4.603M264.335 202.464l-.599-.08c-7.105-.945-13.883.212-19.712 3.364l-6.179 3.342"/><path clip-path="url(#b)" fill="#5445A1" d="M237.846 211.589a2.501 2.501 0 0 1-1.191-4.699l6.179-3.342c6.28-3.396 13.62-4.65 21.232-3.643l.595.08a2.5 2.5 0 0 1 2.152 2.805 2.493 2.493 0 0 1-2.806 2.152l-.598-.08c-6.562-.87-12.851.195-18.196 3.084l-6.18 3.342a2.478 2.478 0 0 1-1.187.301M282.037 290.598a5.83 5.83 0 0 1-.187-.003c-2.593-.06-5-1.398-7.125-2.579-.342-.19-.683-.38-1.021-.563l-5.355-1.883a2.002 2.002 0 0 1 1.329-3.775l5.777 2.059c.4.214.806.438 1.214.666 1.804 1.003 3.668 2.039 5.274 2.077l.093.001c1.568 0 3.396-.919 5.165-1.809.427-.213.85-.426 1.27-.628l.232-.093 6.854-2.284a1.996 1.996 0 0 1 2.53 1.267 1.999 1.999 0 0 1-1.266 2.528l-6.734 2.244c-.361.173-.725.357-1.091.541-2.084 1.047-4.442 2.234-6.959 2.234"/><path clip-path="url(#b)" fill="#5445A1" d="M314.532 135.867s-71.776 68.874-88.059 78.484c-16.282 9.61 43.61-48.742 48.322-63.613 4.712-14.871 39.737-14.871 39.737-14.871"/><path clip-path="url(#b)" fill="#5445A1" d="M223.97 217.572c-.697 0-1.367-.231-1.923-.859-2.012-2.277-.489-4.41 18.107-25.365 12.757-14.378 30.231-34.069 32.502-41.241 5.137-16.211 40.378-16.397 41.876-16.397h5.419l-3.842 3.687c-2.938 2.819-72.149 69.164-88.467 78.794-.912.538-2.34 1.381-3.672 1.381m84.887-79.323c-11.198.802-29.027 3.983-31.922 13.12-2.545 8.033-18.929 26.496-33.384 42.784-4.394 4.953-9.114 10.271-12.574 14.389 19.163-14.664 64.086-57.157 77.88-70.293M335.935 143.583s-56.405 43.049-69.2 49.056c-12.796 6.006 34.271-30.466 37.973-39.761 3.703-9.295 31.227-9.295 31.227-9.295"/><path clip-path="url(#b)" fill="#5445A1" d="M264.766 195.297c-.709 0-1.381-.25-1.867-.984-1.395-2.106-.441-3.197 14.585-16.665 9.98-8.944 23.647-21.194 25.366-25.511 4.088-10.258 30.13-10.554 33.086-10.554h5.917l-4.704 3.59c-2.31 1.762-56.723 43.248-69.565 49.276-.721.338-1.806.848-2.818.848m64.904-49.473c-9.685.71-21.211 3.043-23.104 7.794-1.915 4.806-12.618 14.645-26.412 27.009a1124.366 1124.366 0 0 0-5.645 5.082c15.681-10.229 43.73-31.247 55.161-39.885M269.829 144.144s-60.682 99.135-75.134 113.704c-14.452 14.567 36.082-69.315 38.884-89.453 2.802-20.139 36.25-24.251 36.25-24.251"/><path clip-path="url(#b)" fill="#5445A1" d="M192.398 262.061c-.531 0-1.074-.161-1.615-.553-2.221-1.616-1.356-4.378 2.772-13.036 2.751-5.769 6.825-13.665 11.138-22.026 11.155-21.618 25.036-48.522 26.41-58.396 3.032-21.789 36.977-26.21 38.421-26.388l5.142-.632-2.705 4.419c-2.483 4.058-61.001 99.551-75.492 114.159-.917.925-2.433 2.453-4.071 2.453m72.352-114.433c-9.13 2.062-26.836 7.753-28.694 21.11-1.492 10.719-15 36.901-26.919 60-3.551 6.882-7.352 14.248-10.177 20.04 17.406-23.067 54.998-83.646 65.79-101.15"/><path clip-path="url(#b)" fill="#FFF" d="M264.536 96.188c6.248.09 12.576.379 18.967.876 14.351 1.116 28.226 3.218 41.444 6.178"/><path clip-path="url(#b)" fill="#FFF" d="M324.948 104.742c-.108 0-.22-.012-.329-.036-13.348-2.989-27.221-5.058-41.233-6.148a300.74 300.74 0 0 0-18.872-.871 1.5 1.5 0 0 1 .022-3h.021c6.304.091 12.717.387 19.062.881 14.152 1.101 28.169 3.191 41.656 6.21a1.501 1.501 0 1 1-.327 2.964"/><path clip-path="url(#b)" fill="#00D6DB" d="M174.628 203.131l-.062-.001a1.5 1.5 0 0 1-1.438-1.561c1.361-32.93 40.671-45.12 41.067-45.239a1.5 1.5 0 1 1 .865 2.873c-.377.114-37.661 11.706-38.934 42.49a1.498 1.498 0 0 1-1.498 1.438"/><path clip-path="url(#b)" fill="#5445A1" d="M274.399 305.483l-15.186-.075a1.5 1.5 0 0 1 .006-3h.007l14.878.073c.596-.119 2.819-.552 5.815-1.003 3.431-.515 9.569-.149 15.507.208 4.287.257 10.139.605 11.287.202l.303-.215c2.195-1.534 2.829-2.186 2.977-2.463a1.486 1.486 0 0 1 1.947-.817 1.508 1.508 0 0 1 .823 1.964c-.448 1.112-1.874 2.268-4.026 3.775l-.345.24c-1.286.928-4.446.826-13.146.308-5.514-.331-11.761-.703-14.881-.235-3.361.505-5.789 1.002-5.813 1.006l-.153.032zm32.256-3.554a.078.078 0 0 1-.015.01l.015-.01zM277.12 318.401s11.254-3.248 13.701-1.393"/><path clip-path="url(#b)" fill="#5445A1" d="M277.119 319.901a1.5 1.5 0 0 1-.415-2.941c3.602-1.039 12.272-3.23 15.022-1.146a1.5 1.5 0 0 1-1.812 2.391c-.984-.746-6.77.017-12.379 1.637-.138.04-.278.059-.416.059"/><path clip-path="url(#b)" fill="#C5C5FF" d="M175.025 276.552a5.283 5.283 0 0 1-2.054-.387 1.5 1.5 0 1 1 1.151-2.771c7.332 3.052 31.613-25.726 45.216-44.567a1.5 1.5 0 1 1 2.432 1.756c-5.776 8.001-33.875 45.969-46.745 45.969"/><path clip-path="url(#b)" fill="#FFF" d="M240.716 247.164c.517 3.306-3.684 6.71-9.385 7.602s-10.741-1.065-11.259-4.371c-.517-3.307 3.685-6.71 9.385-7.602 5.701-.893 10.742 1.065 11.259 4.371M319.531 247.164c-.517 3.306 3.685 6.71 9.385 7.602 5.701.892 10.741-1.065 11.26-4.371.517-3.307-3.686-6.71-9.386-7.602-5.7-.893-10.741 1.065-11.259 4.371"/><path clip-path="url(#b)" fill="#00D6DB" d="M391.462 281.71a1.5 1.5 0 0 1-1.499-1.571c2.433-51.08-18.468-71.762-18.681-71.965a1.502 1.502 0 0 1 2.073-2.17c.903.861 22.107 21.697 19.604 74.276a1.5 1.5 0 0 1-1.497 1.43"/></svg>