<svg xmlns="http://www.w3.org/2000/svg" xmlns:xlink="http://www.w3.org/1999/xlink" width="566" height="526" viewBox="0 0 566 526"><defs><path id="a" d="M0 0h566v526H0z"/></defs><clipPath id="b"><use xlink:href="#a" overflow="visible"/></clipPath><path clip-path="url(#b)" fill="#E6E6E6" d="M484.75 310.472c0 111.36-90.275 201.637-201.637 201.637-111.361 0-201.637-90.276-201.637-201.637s90.276-201.638 201.637-201.638c111.362 0 201.637 90.276 201.637 201.638"/><path clip-path="url(#b)" fill="#FEB300" d="M349.904 142.879l-23.329-31.86c-1.379-1.884-3.728-3.092-6.321-3.251l-15.256-.936c0-1.908-1.933-3.396-4.151-3.196l-22.284 2.006-3.603-1.23c-2.104-.719-4.488-.497-6.363.591l-33.303 19.343c-26.15 14.827-43.763 42.68-43.763 74.597 0 47.472 38.966 85.956 87.032 85.956s87.033-38.483 87.033-85.956c0-20.175-3.909-41.4-15.692-56.064"/><path clip-path="url(#b)" fill="#D89000" d="M278.562 287.397c-49.368 0-89.532-39.68-89.532-88.455 0-31.605 17.255-61.022 45.03-76.771l33.28-19.33c2.494-1.449 5.645-1.746 8.427-.796l3.1 1.059 21.755-1.959c1.883-.168 3.721.432 5.051 1.647a5.705 5.705 0 0 1 1.26 1.653l13.476.827c3.315.204 6.376 1.799 8.184 4.269l23.296 31.815c13.396 16.706 16.207 40.533 16.207 57.586-.001 48.775-40.165 88.455-89.534 88.455m-6.127-180.899c-.915 0-1.825.228-2.583.668l-33.303 19.343c-26.235 14.875-42.519 42.626-42.519 72.434 0 46.018 37.921 83.455 84.532 83.455s84.533-37.437 84.533-83.455c0-16.265-2.627-38.924-15.14-54.499l-.069-.089-23.327-31.859c-.94-1.284-2.606-2.119-4.457-2.232l-17.604-1.08v-2.352c0-.138-.108-.266-.198-.348-.225-.206-.666-.409-1.229-.357l-22.814 2.053-4.105-1.402a5.317 5.317 0 0 0-1.717-.28"/><path clip-path="url(#b)" fill="#C5C5FF" d="M324.648 370.916l3.771-21.75h-97.333l3.769 21.75a154.87 154.87 0 0 1-.644 56.381v.002a21.358 21.358 0 0 0 11.299 23.179 75.739 75.739 0 0 0 68.484 0 21.361 21.361 0 0 0 11.3-23.179 154.902 154.902 0 0 1-.646-56.383"/><path clip-path="url(#b)" fill="#5445A1" d="M279.752 461.126c-12.15 0-24.297-2.806-35.372-8.42-9.488-4.808-14.678-15.455-12.623-25.891a151.825 151.825 0 0 0 .635-55.473l-4.277-24.677H331.39l-4.277 24.678a151.797 151.797 0 0 0 .634 55.472c2.056 10.436-3.134 21.083-12.623 25.891-11.073 5.613-23.225 8.42-35.372 8.42m-45.696-109.46l3.262 18.822a156.79 156.79 0 0 1-.655 57.292c-1.625 8.249 2.478 16.666 9.976 20.467 20.735 10.51 45.491 10.507 66.225 0 7.499-3.801 11.601-12.217 9.976-20.465a156.795 156.795 0 0 1-.653-57.293l3.262-18.823h-91.393z"/><path clip-path="url(#b)" fill="#D89000" d="M301.439 404.356c-.222 0-.442-.017-.663-.052l-18.166-1.626a19.834 19.834 0 0 0-3.788-.333 19.421 19.421 0 0 0-3.794.333l-.183.025-17.983 1.601c-3.949.625-8.084-4.398-14.406-12.701-2.279-2.992-4.432-5.818-5.867-7.077l-20.163-17.665c-2.866-2.511-7.82-12.828-10.517-18.756-4.752-10.439-7.532-21.574-8.262-33.095l-1.535-24.237a2.186 2.186 0 0 1 4.316-.608c2.417 11.041 12.926 47.3 24.303 64.314 7.653 11.442 24.048 16.538 35.082 10.91 7.544-3.848 11.724-6.751 12.522-7.92l.913-1.336a6.747 6.747 0 0 1 5.571-2.941h.001a6.744 6.744 0 0 1 5.568 2.939l.914 1.336c.799 1.171 4.979 4.075 12.522 7.922 11.938 6.087 27.248-.726 34.06-10.91l1.7 1.139-1.7-1.139c11.502-17.201 22.797-53.225 25.318-64.331a2.191 2.191 0 0 1 4.322.628l-2.45 38.469c-1.02 5.458-13.179 33.511-17.861 37.614l-20.162 17.665c-1.436 1.259-3.588 4.085-5.867 7.077-5.971 7.842-9.998 12.754-13.745 12.755m-18.192-5.722l18.165 1.626c.019.002.035.002.054.002 1.979 0 7.699-7.512 10.461-11.138 2.512-3.298 4.682-6.147 6.426-7.675l20.162-17.666c3.644-3.193 15.392-29.688 16.514-35.175l1.305-20.619c-5.054 15.733-12.998 36.731-21.047 48.767-8.891 13.297-26.525 18.806-39.321 12.281-5.406-2.757-12.23-6.604-14.043-9.261l-.914-1.336a2.614 2.614 0 0 0-2.188-1.152c-.889 0-1.687.42-2.188 1.151l-.916 1.341c-1.808 2.652-8.634 6.499-14.041 9.257-12.765 6.515-31.615.771-40.345-12.281-7.891-11.799-15.194-31.891-19.939-47.416l.343 5.414c.698 11.019 3.356 21.671 7.902 31.657 4.737 10.407 8.179 16.224 9.489 17.371l20.163 17.667c1.744 1.527 3.914 4.377 6.426 7.675 2.761 3.626 8.481 11.137 10.47 11.137l.053-.002.182-.025 17.973-1.6a25.297 25.297 0 0 1 4.394-.382h.074c1.479 0 2.956.128 4.386.382"/><path clip-path="url(#b)" fill="#C5C5FF" d="M363.27 283.775c-4.78 8.588-11.299 14.919-17.767 18.009-5.504 2.629-10.973 2.909-15.301.234-9.412-5.818-9.872-23.421-1.022-39.315 8.848-15.894 23.653-24.062 33.065-18.243 9.414 5.82 9.872 23.422 1.025 39.315"/><path clip-path="url(#b)" fill="#D89000" d="M337.034 306.396c-2.957 0-5.719-.749-8.146-2.249-10.697-6.613-11.529-25.351-1.894-42.658 5.967-10.718 14.734-18.472 23.452-20.741 4.853-1.262 9.388-.715 13.113 1.588 10.696 6.61 11.528 25.348 1.895 42.656-4.837 8.688-11.717 15.629-18.876 19.048-3.285 1.569-6.516 2.356-9.544 2.356m18.359-61.307c-1.178 0-2.41.165-3.688.497-7.31 1.902-15.104 8.928-20.341 18.333-8.056 14.47-7.986 30.941.153 35.973 3.414 2.11 7.997 1.979 12.907-.365 6.244-2.982 12.317-9.167 16.66-16.967 8.056-14.471 7.984-30.943-.153-35.972-1.61-.996-3.486-1.499-5.538-1.499"/><path clip-path="url(#b)" fill="#C5C5FF" d="M195.438 283.775c4.579 8.588 10.824 14.919 17.02 18.009 5.273 2.629 10.51 2.909 14.656.234 9.018-5.818 9.457-23.421.981-39.315-8.476-15.894-22.658-24.062-31.676-18.243-9.018 5.82-9.457 23.422-.981 39.315"/><path clip-path="url(#b)" fill="#D89000" d="M220.573 306.397c-2.929 0-6.053-.792-9.23-2.376-6.874-3.428-13.474-10.377-18.111-19.068-9.213-17.278-8.408-35.986 1.832-42.592 3.547-2.289 7.864-2.866 12.481-1.667 8.463 2.196 16.97 9.984 22.756 20.834 9.214 17.275 8.409 35.983-1.831 42.592-2.353 1.518-5.031 2.277-7.897 2.277m-22.929-23.798c4.158 7.798 9.965 13.975 15.93 16.947 4.643 2.315 8.97 2.446 12.185.372 7.804-5.035 7.864-21.538.13-36.037-5.062-9.494-12.573-16.524-19.599-18.347-3.276-.851-6.141-.504-8.515 1.028-7.803 5.034-7.863 21.538-.131 36.037"/><path clip-path="url(#b)" fill="#D89000" d="M280.146 386.72c-18.4 0-22.003-1.188-23.057-1.872l-29.588-15.192c-23.046-16.4-30.689-72.432-30.638-95.474.029-13.019.013-21.152-.046-23.519-.334-13.243.426-26.425 2.259-39.179l2.84-29.276c2.067-21.301 18.111-38.55 39.924-42.924l.377-.076 17.105 1.85a209.737 209.737 0 0 0 41.44.354l17.16-1.561.375.081c21.2 4.6 36.905 21.64 39.08 42.402l3.591 34.266c.344 2.843.612 5.417.819 7.83l.001.015c.74 8.633 1.002 17.454.781 26.219a235.605 235.605 0 0 1-1.39 20.283l-.391 10.825c-.364 10.143-3.376 61.717-26.917 81.108l-.134.104-30.318 21.701c-.769.638-3.328 2.035-23.273 2.035m-20.303-6.074c4.276 1.414 36.628 1.409 40.659-.019l30.256-21.658c16.928-14.021 24.066-50.431 25.036-77.376l.406-11.111a230.108 230.108 0 0 0 1.372-19.943 233.38 233.38 0 0 0-.765-25.667l-.003-.049a222.99 222.99 0 0 0-.806-7.661l-3.593-34.306c-1.938-18.489-15.901-33.697-34.798-37.955l-16.394 1.49a214.696 214.696 0 0 1-42.43-.361l-16.335-1.767c-19.448 4.058-33.716 19.456-35.557 38.428l-2.86 29.449c-1.798 12.495-2.544 25.414-2.218 38.399.061 2.445.078 10.404.048 23.656-.055 24.687 8.22 76.709 28.393 91.283l29.589 15.168z"/><path clip-path="url(#b)" fill="#C5C5FF" d="M359.298 224.658l-.001-.014c-.225-2.62-.505-5.21-.814-7.783l-3.59-34.267c-2.061-19.659-17.01-35.854-37.124-40.218l-16.78 1.525a211.677 211.677 0 0 1-41.934-.358l-16.723-1.808c-20.598 4.129-35.979 20.641-37.926 40.714l-2.846 29.333c-1.785 12.401-2.581 25.432-2.243 38.818.07 2.797.071 12.753.047 23.587-.049 22.03 7.282 77.558 29.587 93.431l29.464 15.099c2.283 2.004 41.182 2.004 43.464 0l30.406-21.766c20.077-16.539 25.289-59.282 26.008-79.269l.394-10.921a233.108 233.108 0 0 0 1.386-20.162c.22-8.827-.052-17.501-.775-25.941"/><path clip-path="url(#b)" fill="#00D6DB" d="M256.839 263.159c-7.548 2.846-34.961.826-37.434 0-2.468-.824-9.971-3.744-12.703-11.964-2.646-7.952-2.067-16.837 1.655-20.85 5.436-5.859 37.537-3.673 41.971-3.369 4.439.304 19.857 3.473 20.799 12.921.781 7.834-6.823 20.448-14.288 23.262M288.96 239.897c.941-9.448 16.36-12.617 20.799-12.921 4.434-.303 36.536-2.49 41.971 3.37 3.723 4.012 4.302 12.897 1.656 20.849-2.733 8.22-10.236 11.14-12.703 11.964-2.474.826-29.886 2.845-37.435 0-7.465-2.814-15.068-15.428-14.288-23.262"/><path clip-path="url(#b)" fill="#00B7B2" d="M251.77 248.719a5.205 5.205 0 1 1-10.41 0 5.205 5.205 0 0 1 10.41 0M318.518 248.719a5.205 5.205 0 1 1-10.41 0 5.205 5.205 0 0 1 10.41 0"/><path clip-path="url(#b)" fill="#00B7B2" d="M363.281 233.735c-3.309 0-7.296-3.735-7.298-3.737a10.325 10.325 0 0 0-2.321-2.311c-4.955-3.551-17.681-4.718-31.369-4.73-12.648-.012-23.207 2.704-28.515 4.934-5.358 2.248-8.136 4.729-13.81 4.729-5.46 0-8.451-2.481-13.811-4.729-5.308-2.23-15.345-4.745-28.517-4.934-15.092-.215-26.901 1.419-31.365 4.729a10.848 10.848 0 0 0-2.512 2.647l-.161-.335s-3.988 3.737-7.299 3.737c-2.216 0-2.409 5.494-2.294 9.125a4.082 4.082 0 0 0 2.672 3.686c1.585.589 3.573 1.812 4.88 4.296 4.399 17.91 27.058 18.4 44.212 17.219 4.21-.292 8.551-.81 12.626-2.177 9.176-3.079 13.702-13.676 15.849-19.69 1.505-4.214 3.996-4.843 5.297-4.864l-.005.073s.161-.041.429-.062c.266.021.427.062.427.062l-.005-.073c1.301.021 3.792.65 5.298 4.864 2.148 6.014 6.675 16.611 15.853 19.69 9.292 3.119 40.121 4.691 48.028-2.842 3.664-3.491 6.713-7.341 8.298-11.918l.006-.011c1.3-2.676 3.386-3.956 5.03-4.567a4.085 4.085 0 0 0 2.673-3.686c.113-3.631-.078-9.125-2.296-9.125M256.84 263.159c-7.548 2.846-34.961.826-37.435 0-2.467-.824-9.97-3.744-12.703-11.964-2.645-7.951-2.066-16.836 1.656-20.849 5.436-5.86 37.537-3.673 41.971-3.37 4.438.305 19.857 3.474 20.799 12.921.78 7.834-6.823 20.448-14.288 23.262m96.705-11.964c-2.728 8.22-10.231 11.14-12.695 11.964-2.474.826-29.883 2.846-37.435 0-7.466-2.814-15.08-15.428-14.307-23.262.935-9.447 16.35-12.616 20.789-12.921 4.435-.303 36.535-2.49 41.975 3.37 3.724 4.013 4.31 12.898 1.673 20.849"/><path clip-path="url(#b)" fill="#5445A1" d="M278.741 299.833l-.096-.002c-3.55-.167-6.816-1.534-9.708-4.064-1.116-.976-2.399-1.206-3.613-.644l-1.592.736a1.999 1.999 0 1 1-1.679-3.63l1.591-.737c2.654-1.228 5.618-.757 7.927 1.264 2.226 1.947 4.601 2.954 7.262 3.079a2.001 2.001 0 0 1-.092 3.998"/><path clip-path="url(#b)" fill="#5445A1" d="M280.511 299.833a2 2 0 0 1-.092-3.998c2.661-.125 5.036-1.132 7.261-3.078 2.31-2.02 5.274-2.491 7.928-1.265l1.591.737a2 2 0 0 1-1.678 3.63l-1.592-.736c-1.216-.562-2.499-.332-3.614.645-2.892 2.529-6.157 3.896-9.707 4.063l-.097.002"/><path clip-path="url(#b)" fill="#D89000" d="M300.921 403.03c-.216 0-.431-.018-.646-.052l-17.75-1.589a19.35 19.35 0 0 0-3.701-.325 18.936 18.936 0 0 0-3.708.325l-.179.025-17.571 1.563c-3.859.61-7.899-4.298-14.076-12.409-2.227-2.925-4.331-5.687-5.733-6.915l-19.701-17.262c-2.801-2.453-7.641-12.535-10.276-18.325-4.644-10.201-7.36-21.081-8.073-32.338l-1.5-23.682a2.138 2.138 0 0 1 1.885-2.257 2.132 2.132 0 0 1 2.333 1.662c2.361 10.788 12.629 46.218 23.746 62.843 7.478 11.18 23.497 16.16 34.279 10.661 7.371-3.761 11.456-6.597 12.235-7.74l.892-1.305a6.592 6.592 0 0 1 5.444-2.873h.001a6.585 6.585 0 0 1 5.439 2.871l.894 1.305c.781 1.146 4.866 3.982 12.235 7.742 11.664 5.947 26.624-.71 33.279-10.661l1.663 1.112-1.663-1.112c11.239-16.808 22.276-52.006 24.74-62.858a2.134 2.134 0 0 1 2.334-1.646 2.14 2.14 0 0 1 1.888 2.262l-2.394 37.587c-.997 5.333-12.877 32.743-17.452 36.753l-19.701 17.262c-1.403 1.229-3.506 3.99-5.732 6.915-5.835 7.66-9.77 12.46-13.431 12.461m-17.775-5.592l17.749 1.59c.018.002.033.002.052.002 1.933 0 7.522-7.341 10.221-10.884 2.455-3.223 4.575-6.007 6.279-7.5l19.701-17.261c3.561-3.12 15.039-29.009 16.136-34.369l1.274-20.146c-4.938 15.373-12.7 35.89-20.564 47.649-8.688 12.992-25.919 18.375-38.422 12-5.282-2.693-11.95-6.451-13.722-9.049l-.892-1.304a2.554 2.554 0 0 0-2.138-1.127c-.869 0-1.649.41-2.139 1.126l-.894 1.308c-1.767 2.593-8.437 6.352-13.72 9.046-12.473 6.365-30.892.754-39.421-12-7.711-11.528-14.847-31.161-19.482-46.331l.335 5.29c.681 10.769 3.279 21.176 7.72 30.934 4.629 10.17 7.992 15.852 9.272 16.973l19.702 17.262c1.704 1.493 3.824 4.277 6.278 7.5 2.698 3.543 8.287 10.883 10.231 10.883a.87.87 0 0 0 .051-.002l.178-.025 17.562-1.563a24.734 24.734 0 0 1 4.294-.373h.072c1.446-.003 2.89.122 4.287.371"/><path clip-path="url(#b)" fill="#FEB300" d="M332.331 355.408c-7.59 11.349-23.687 17.533-35.85 11.329-6.306-3.216-11.702-6.521-12.979-8.394l-.895-1.309c-1.821-2.662-5.756-2.662-7.577 0l-.895 1.309c-1.277 1.872-6.673 5.178-12.978 8.394-12.163 6.204-29.261.02-36.85-11.329-12.12-18.123-23.094-57.676-24.433-65.509l1.627 25.704a90.11 90.11 0 0 0 7.897 31.636c3.627 7.969 7.703 15.835 9.774 17.649l19.701 17.262c4.455 3.903 13.704 19.684 18.235 18.844l17.649-1.572a22.606 22.606 0 0 1 4.061-.356c1.36-.002 2.72.113 4.062.356l17.649 1.572c4.53.84 13.78-14.94 18.235-18.844l19.7-17.262c4.06-3.557 15.823-30.363 16.806-35.616l2.493-39.373c-1.338 7.833-13.312 47.386-25.432 65.509"/><path clip-path="url(#b)" fill="#5445A1" d="M279.085 331.427c-2.81 0-5.619-.555-8.293-1.661a8.742 8.742 0 0 0-5.843-.328l-2.87.832a11.142 11.142 0 0 1-8.092-.745l-5.995-2.996a2 2 0 1 1 1.789-3.58l5.995 2.997a7.143 7.143 0 0 0 5.19.48l2.87-.831c2.786-.808 5.8-.64 8.486.475a17.561 17.561 0 0 0 13.526 0 12.882 12.882 0 0 1 8.487-.475l2.869.831a7.147 7.147 0 0 0 5.19-.48l6.442-3.221a2 2 0 1 1 1.789 3.578l-6.442 3.222a11.142 11.142 0 0 1-8.092.745l-2.871-.832a8.746 8.746 0 0 0-5.842.328 21.658 21.658 0 0 1-8.293 1.661"/><path clip-path="url(#b)" fill="#D89000" d="M317.551 324.729c-1.008 0-1.949-.468-2.493-1.288l-1.801-2.707c-.825-1.245-2.489-2.158-4.448-2.442l-16.136-2.347c-4.111-.597-7.396-3.066-8.364-6.292l-1.292-4.301c-.291-.966.009-1.996.78-2.685.883-.786 2.226-.993 3.352-.512l6.386 2.74 20.327 3.745c4.372.805 7.351 4.007 7.084 7.614l-.441 5.954c-.085 1.151-.914 2.098-2.11 2.41a3.335 3.335 0 0 1-.844.111m-29.952-18.027l.541 1.801c.515 1.714 2.567 3.113 5.108 3.482l16.136 2.347c3.112.452 5.738 1.979 7.205 4.188l.159.241.208-2.801c.112-1.509-1.531-2.963-3.82-3.386l-20.768-3.824-4.769-2.048z"/><path clip-path="url(#b)" fill="#FEB300" d="M284.932 304.776l1.292 4.301c.745 2.482 3.39 4.401 6.737 4.889l16.136 2.345c2.528.368 4.683 1.594 5.827 3.316l1.799 2.708c.431.647 1.734.448 1.788-.274l.44-5.954c.189-2.571-2.1-4.882-5.452-5.499l-20.548-3.785-6.594-2.828c-.729-.314-1.609.169-1.425.781"/><path clip-path="url(#b)" fill="#D89000" d="M241.863 324.729a3.35 3.35 0 0 1-.842-.109c-1.197-.313-2.026-1.259-2.111-2.409l-.441-5.955c-.267-3.607 2.712-6.81 7.084-7.614l20.327-3.745 6.387-2.74c1.123-.481 2.468-.274 3.35.512.772.688 1.071 1.719.781 2.685l-1.291 4.301c-.97 3.226-4.254 5.695-8.367 6.292l-16.134 2.347c-1.959.284-3.623 1.197-4.449 2.441l-1.8 2.709c-.545.818-1.486 1.285-2.494 1.285m29.953-18.027l-4.77 2.048-.22.04-20.548 3.784c-2.289.423-3.932 1.877-3.82 3.386l.208 2.801.159-.242c1.467-2.208 4.093-3.734 7.205-4.187l16.135-2.347c2.542-.369 4.595-1.769 5.111-3.482l.54-1.801z"/><path clip-path="url(#b)" fill="#FEB300" d="M274.482 304.776l-1.292 4.301c-.745 2.482-3.39 4.401-6.737 4.889l-16.136 2.345c-2.529.368-4.683 1.594-5.827 3.316l-1.799 2.708c-.431.647-1.734.448-1.788-.274l-.44-5.954c-.19-2.571 2.099-4.882 5.452-5.499l20.548-3.785 6.593-2.828c.73-.314 1.611.169 1.426.781"/><path clip-path="url(#b)" fill="#5445A1" d="M287.222 344.951H270.68a2 2 0 0 1 0-4h16.542a2 2 0 0 1 0 4"/></svg>