<svg xmlns="http://www.w3.org/2000/svg" xmlns:xlink="http://www.w3.org/1999/xlink" width="566" height="526" viewBox="0 0 566 526"><defs><path id="a" d="M0 0h566v526H0z"/></defs><clipPath id="b"><use xlink:href="#a" overflow="visible"/></clipPath><path clip-path="url(#b)" fill="#E6E6E6" d="M484.637 311c0 111.361-90.275 201.637-201.637 201.637S81.363 422.361 81.363 311 171.639 109.363 283 109.363 484.637 199.639 484.637 311"/><path clip-path="url(#b)" fill="#C5C5FF" d="M365.834 266.301c-4.579 10.364-10.824 18.008-17.021 21.736-5.273 3.174-10.51 3.514-14.656.284-9.018-7.024-9.457-28.271-.98-47.457 8.476-19.185 22.657-29.045 31.676-22.021 9.017 7.024 9.457 28.271.981 47.458"/><path clip-path="url(#b)" fill="#5445A1" d="M340.69 293.104c-2.928 0-5.664-.936-8.07-2.81-10.019-7.804-10.778-29.959-1.73-50.44 5.929-13.419 15.006-23.112 23.688-25.297 4.371-1.1 8.455-.299 11.811 2.314 10.019 7.803 10.78 29.959 1.731 50.438v.001c-4.599 10.41-11.167 18.746-18.018 22.869-3.239 1.95-6.425 2.925-9.412 2.925m17.609-74.024c-.803 0-1.636.108-2.5.326-7.113 1.789-15.097 10.61-20.335 22.47-7.894 17.862-7.787 38.228.229 44.473 3.99 3.109 8.636 1.469 11.831-.452 5.989-3.605 11.83-11.116 16.023-20.606v.001c7.891-17.864 7.785-38.232-.231-44.475-1.484-1.157-3.165-1.737-5.017-1.737"/><path clip-path="url(#b)" fill="#C5C5FF" d="M182.458 266.301c4.579 10.364 10.824 18.008 17.02 21.736 5.273 3.174 10.51 3.514 14.656.284 9.018-7.024 9.457-28.271.981-47.457-8.476-19.185-22.658-29.045-31.676-22.021s-9.457 28.271-.981 47.458"/><path clip-path="url(#b)" fill="#5445A1" d="M207.602 293.103c-2.987 0-6.173-.974-9.413-2.922-6.851-4.125-13.418-12.46-18.017-22.87-9.049-20.48-8.288-42.636 1.731-50.439 3.356-2.613 7.44-3.413 11.811-2.314 8.683 2.185 17.76 11.879 23.688 25.298 9.049 20.48 8.288 42.635-1.731 50.439-2.405 1.872-5.142 2.808-8.069 2.808m-22.857-27.813c4.193 9.49 10.033 17.001 16.022 20.606 3.195 1.92 7.84 3.561 11.832.452 8.017-6.243 8.122-26.609.229-44.473-5.239-11.86-13.221-20.68-20.334-22.47-2.861-.72-5.392-.246-7.519 1.41-8.017 6.245-8.122 26.612-.23 44.475"/><path clip-path="url(#b)" fill="#FFF" d="M365.914 186.703c0 52.295-40.861 94.688-91.269 94.688-50.406 0-91.268-42.393-91.268-94.688s40.862-94.688 91.268-94.688c50.408 0 91.269 42.393 91.269 94.688"/><path clip-path="url(#b)" d="M274.646 283.891c-51.704 0-93.769-43.598-93.769-97.187 0-53.59 42.065-97.188 93.769-97.188 51.704 0 93.77 43.598 93.77 97.188-.001 53.588-42.066 97.187-93.77 97.187m0-189.375c-48.947 0-88.769 41.355-88.769 92.188 0 50.832 39.822 92.187 88.769 92.187s88.77-41.355 88.77-92.187c-.001-50.833-39.823-92.188-88.77-92.188"/><path clip-path="url(#b)" fill="#CC126B" d="M329.087 148.581l25.958-15.216 3.808-8.227c4.515-9.752 5.015-20.98 1.388-31.121l-3.865-10.812c-1.133-3.167-5.606-2.667-6.059.677l-2.815 20.828c-16.932-20.912-43.078-31.336-69.2-27.589l-7.57 1.086c-40.107 5.754-76.865 26.269-103.531 57.782l-9.202 10.876c-.757.893-.546 2.278.439 2.888l5.241 3.245c1.653 1.024 7.002 5.394 8.002 6.974 2.107 3.33-1.338 4.595-2.764 8.527l-11.374 16.881c-2.772 7.645 1.755 13.259 6.343 19.903l24.836 36.103 140.365-92.805z"/><path clip-path="url(#b)" fill="#FF1579" d="M188.053 244.826l-27.18-39.496c-4.278-6.132-8.701-12.474-5.681-20.801l.105-.289 11.384-16.898c.625-1.586 1.48-2.768 2.176-3.73 1.156-1.599 1.139-1.625.71-2.303-.662-1.033-5.539-5.152-7.205-6.185l-5.241-3.246a4.398 4.398 0 0 1-2.024-3.06 4.443 4.443 0 0 1 .992-3.568l9.203-10.875c27.058-31.976 64.378-52.802 105.084-58.641l7.57-1.086c25.343-3.637 50.293 5.382 67.819 24.248l2.074-15.348c.361-2.675 2.376-4.658 5.013-4.934 2.62-.279 4.979 1.234 5.877 3.751l3.867 10.811c3.824 10.694 3.287 22.727-1.475 33.013l-4.137 8.938-26.576 15.578-142.355 94.121zm-28.259-58.315c-1.937 5.756 1.21 10.27 5.179 15.958l.968 1.394 23.448 34.085 138.433-91.524 25.283-14.819 3.479-7.516c4.214-9.106 4.688-19.76 1.303-29.229l-3.867-10.812c-.05-.14-.18-.508-.647-.462-.332.035-.527.248-.579.632l-3.592 26.567-3.645-4.501c-16.481-20.357-41.488-30.334-66.902-26.687l-7.57 1.086c-39.494 5.665-75.71 25.881-101.978 56.923l-8.781 10.377 4.668 2.891c1.497.927 7.416 5.579 8.797 7.761 2.255 3.564.367 6.177-.883 7.906-.614.849-1.25 1.728-1.642 2.81l-.105.29-11.367 16.87z"/><path clip-path="url(#b)" fill="#CC126B" d="M355.045 129.686l4.129 1.848c10.398 4.653 18.561 14.366 22.371 26.619l-6.58 2.002c-1.517.462-2.223 2.511-1.402 4.077 1.91 3.655 2.516 8.045 1.683 12.218l-14.604 66.143-42.984-7.663 5.782-52.169-10.894-40.427 42.499-12.648z"/><path clip-path="url(#b)" fill="#FF1579" d="M362.564 245.476l-47.65-8.495 5.987-54.025-11.403-42.323 45.723-13.607 4.975 2.226c11.06 4.949 19.71 15.213 23.737 28.159l.747 2.402-8.898 2.707a.65.65 0 0 0-.005.553c2.188 4.183 2.87 9.107 1.92 13.867l-15.133 68.536zm-42.166-12.597l38.318 6.831 14.087-63.799c.706-3.54.179-7.392-1.457-10.519a5.666 5.666 0 0 1-.195-4.764c.589-1.403 1.714-2.447 3.087-2.864l4.109-1.251c-3.866-10.444-11.125-18.638-20.195-22.697l-3.283-1.469-39.276 11.688 10.382 38.532-5.577 50.312z"/><path clip-path="url(#b)" fill="#C5C5FF" d="M319.668 357.665l3.771-21.75h-97.333l3.769 21.75a154.87 154.87 0 0 1-.644 56.381v.002a21.358 21.358 0 0 0 11.299 23.179 75.739 75.739 0 0 0 68.484 0 21.361 21.361 0 0 0 11.3-23.179 154.88 154.88 0 0 1-.646-56.383"/><path clip-path="url(#b)" fill="#5445A1" d="M274.772 447.876c-12.149 0-24.298-2.807-35.373-8.42-9.487-4.808-14.677-15.455-12.621-25.891a151.807 151.807 0 0 0 .633-55.474l-4.276-24.677h103.274l-4.277 24.677a151.807 151.807 0 0 0 .634 55.474c2.056 10.436-3.135 21.083-12.622 25.891-11.074 5.613-23.223 8.42-35.372 8.42m-45.696-109.461l3.262 18.823a156.762 156.762 0 0 1-.655 57.291c-1.625 8.251 2.478 16.667 9.977 20.468 20.733 10.508 45.49 10.507 66.224 0 7.498-3.801 11.602-12.217 9.977-20.465a156.823 156.823 0 0 1-.655-57.294l3.263-18.823h-91.393z"/><path clip-path="url(#b)" fill="#C5C5FF" d="M317.706 140.453l-25.168-3.002c-4.143-.494-8.373-.02-12.117 1.36l-.202.074c-3.067 1.128-6.43 1.014-9.501-.103-3.725-1.355-7.922-1.818-12.032-1.328l-4.141 6.466c-4.868.581-37.422 13.201-46.687 27.3-10.901 16.589-17.5 35.521-18.905 55.132l-.026.365c-.446 6.401-.03 19.027-.03 19.027l11.895 70.962c1.235 7.363 5.136 14.075 11.109 19.038l36.427 32.927c2.779 2.513 6.462 3.911 10.31 3.911h32.095c3.847 0 7.53-1.398 10.31-3.911l36.431-32.927c5.975-4.963 9.876-11.675 11.111-19.038l11.904-70.962s.574-12.626.127-19.027c-.9-12.889-11.111-86.264-42.91-86.264"/><path clip-path="url(#b)" fill="#5445A1" d="M290.731 375.082h-32.093c-4.48 0-8.737-1.618-11.987-4.556l-36.389-32.894c-6.37-5.308-10.607-12.591-11.936-20.514l-11.923-71.126-.005-.167c-.017-.52-.415-12.829.034-19.282l.027-.372c1.417-19.781 8.094-39.258 19.309-56.324 9.091-13.836 39.142-26.229 47.245-28.172l4.204-6.565 1.172-.139c4.515-.539 9.075-.035 13.183 1.461 2.615.953 5.38.991 7.784.106l.193-.071c4.137-1.526 8.729-2.039 13.284-1.499l25.024 2.985c14.596.093 26.458 13.553 35.262 40.009 6.816 20.486 9.563 42.488 9.989 48.581.451 6.47-.1 18.792-.124 19.313l-.031.301-11.903 70.963c-1.329 7.922-5.568 15.205-11.937 20.513l-36.395 32.894c-3.25 2.937-7.507 4.555-11.987 4.555m-99.34-129.585l11.868 70.796c1.132 6.758 4.769 12.983 10.24 17.528l.079.068 36.427 32.928c2.329 2.105 5.395 3.265 8.634 3.265h32.093c3.238 0 6.305-1.159 8.636-3.265l36.509-32.996c5.472-4.546 9.108-10.771 10.243-17.529l11.879-70.811c.061-1.432.528-12.775.123-18.589-1.161-16.655-12.003-83.939-40.415-83.939l-.295-.018-25.169-3.001c-3.776-.453-7.564-.029-10.957 1.222l-.195.072c-3.52 1.294-7.504 1.258-11.227-.096-3.029-1.103-6.368-1.548-9.728-1.306l-4.122 6.437-1.172.139c-4.826.576-36.378 13.231-44.894 26.192-10.747 16.353-17.145 35.005-18.501 53.936l-.025.358c-.406 5.814-.077 17.11-.031 18.609"/><path clip-path="url(#b)" fill="#5445A1" d="M275.2 289.829l-.099-.002c-3.428-.168-6.579-1.545-9.364-4.094-1.026-.938-2.197-1.159-3.295-.628l-1.521.735a2 2 0 1 1-1.743-3.6l1.521-.736c2.599-1.257 5.49-.779 7.738 1.277 2.109 1.93 4.352 2.927 6.859 3.049a2.001 2.001 0 0 1-.096 3.999"/><path clip-path="url(#b)" fill="#5445A1" d="M276.895 289.829a2 2 0 0 1-.096-3.998c2.507-.122 4.75-1.119 6.857-3.049 2.249-2.057 5.143-2.532 7.738-1.278l1.522.737a2 2 0 1 1-1.743 3.6l-1.521-.737c-1.099-.529-2.271-.308-3.296.63-2.784 2.549-5.935 3.926-9.363 4.094l-.098.001M250.789 227.351c0 2.781-2.33 5.035-5.205 5.035-2.874 0-5.204-2.254-5.204-5.035s2.33-5.035 5.204-5.035c2.875 0 5.205 2.254 5.205 5.035M310.537 227.351c0 2.781-2.33 5.035-5.205 5.035-2.874 0-5.204-2.254-5.204-5.035s2.33-5.035 5.204-5.035c2.875 0 5.205 2.254 5.205 5.035M263.372 327.582a1.499 1.499 0 0 1-1.433-1.06 1.499 1.499 0 0 1 .993-1.874l5.873-1.805a19.03 19.03 0 0 1 10.931-.083l6.467 1.881a1.5 1.5 0 0 1-.838 2.88l-6.467-1.881a16.036 16.036 0 0 0-9.212.069l-5.873 1.805a1.442 1.442 0 0 1-.441.068"/><path clip-path="url(#b)" fill="#CC126B" d="M314.846 138.466c7.895-13.74-1.535-29.926-19.617-33.675l-14.24-2.953c-22.64-4.694-46.623-2.323-67.217 6.647-1.72.749-1.116 2.864.834 2.922l20.493.609a135.507 135.507 0 0 1 26.39 3.385l24.056 5.547-57.712 13.71c-14.423 3.427-26.193 11.932-32.065 23.171-.667 1.277 1.001 2.529 2.515 1.889l2.147-.909c24.812-10.503 52.015-16.751 79.922-18.357l34.494-1.986z"/><path clip-path="url(#b)" fill="#FF1579" d="M197.423 162.393c-1.235 0-2.434-.492-3.283-1.413-1.101-1.194-1.332-2.885-.588-4.309 6.231-11.927 18.516-20.837 33.703-24.446l47.322-11.241-13.65-3.147a132.99 132.99 0 0 0-25.902-3.321l-20.494-.61c-2.107-.063-3.834-1.438-4.201-3.344-.351-1.823.63-3.579 2.443-4.369 21.117-9.197 45.523-11.614 68.723-6.803l14.24 2.953c10.312 2.138 18.681 8.338 22.388 16.584 3.066 6.82 2.672 14.201-1.11 20.784l-.674 1.173-35.845 2.063c-27.783 1.6-54.393 7.71-79.09 18.164l-2.148.909a4.717 4.717 0 0 1-1.834.373m21.603-53.356l16.147.48a138.18 138.18 0 0 1 26.878 3.447l34.462 7.948-68.103 16.179c-12.696 3.015-23.111 10.031-29.018 19.442l.064-.027c25.226-10.677 52.395-16.918 80.752-18.551l33.092-1.904c2.372-4.849 2.476-10.155.263-15.075-3.051-6.788-10.095-11.923-18.842-13.737l-14.24-2.953c-20.652-4.285-42.292-2.585-61.455 4.751"/><path clip-path="url(#b)" fill="#CC126B" d="M319.846 135.349l-1.511 4.296s-58.719 7.74-69.71 20.801c-9.859 11.715 7.3-21.695 21.175-27.525 14.754-6.2 31.376-7.741 42.152-7.996 5.659-.134 9.718 5.238 7.894 10.424"/><path clip-path="url(#b)" fill="#FF1579" d="M245.952 165.429c-.297 0-.601-.051-.916-.16-1.088-.378-1.789-1.368-1.828-2.584-.132-4.104 13.693-27.056 25.623-32.069 14.947-6.281 31.667-7.921 43.062-8.19 3.523-.071 6.879 1.552 8.929 4.373 2.005 2.76 2.508 6.179 1.383 9.379l-2.02 5.745-1.523.201c-16.064 2.118-59.623 9.829-68.124 19.932-1.595 1.893-2.986 3.373-4.586 3.373m66.207-38.007l-.147.002c-10.964.26-27.019 1.823-41.244 7.802-6.238 2.621-13.542 11.819-18.117 18.959 16.877-9.785 55.495-15.635 63.832-16.809l1.004-2.856c.573-1.628.314-3.371-.711-4.783-1.073-1.476-2.749-2.315-4.617-2.315"/><path clip-path="url(#b)" fill="#5445A1" d="M225.46 208.014l.648-.396c7.692-4.702 16.479-7.463 25.559-8.032l9.624-.603"/><path clip-path="url(#b)" fill="#5445A1" d="M225.464 212.015a3.999 3.999 0 0 1-2.088-7.415l.648-.396c8.22-5.025 17.693-8.002 27.393-8.61l9.624-.602a3.999 3.999 0 1 1 .5 7.984l-9.624.602c-8.404.527-16.607 3.104-23.723 7.454l-.65.396c-.65.398-1.37.587-2.08.587M324.615 198.339l-.648-.396c-7.691-4.702-16.479-7.463-25.559-8.032l-9.624-.603"/><path clip-path="url(#b)" fill="#5445A1" d="M324.611 202.34c-.71 0-1.43-.189-2.08-.587l-.648-.395c-7.118-4.351-15.321-6.928-23.725-7.455l-9.624-.602a3.999 3.999 0 0 1-3.742-4.242c.138-2.204 2.045-3.867 4.242-3.742l9.624.602c9.7.608 19.173 3.585 27.395 8.611l.646.395a4 4 0 0 1-2.088 7.415M274.066 365.313a1.5 1.5 0 0 1-1.5-1.5v-12.5a1.5 1.5 0 1 1 3 0v12.5c0 .829-.67 1.5-1.5 1.5"/><path clip-path="url(#b)" fill="#FFF" d="M249.182 299.103l25.969 2.543 27.467-6.876 2.333 1.501-19.167 13.414-12.475.693-20.025-4.108zM320.511 246.289c-.518 3.306 3.684 6.71 9.385 7.602s10.741-1.065 11.259-4.371c.518-3.307-3.685-6.71-9.385-7.602-5.702-.893-10.743 1.065-11.259 4.371"/><path clip-path="url(#b)" fill="#5445A1" d="M274.899 312.131c-2.968 0-6.215-.134-9.678-.398l-2.353-.18c-6.281-.479-12.155-3.489-16.538-8.475a3.396 3.396 0 0 1-.478-3.765 3.175 3.175 0 0 1 3.038-1.779l22.827 1.604a26.82 26.82 0 0 0 9.192-.949l22.158-6.241c1.229-.345 2.524.046 3.379 1.024a3.672 3.672 0 0 1 .59 3.858c-1.152 2.665-3.141 4.771-5.608 5.945l-4.646 3.018c-6.193 4.025-13.252 6.212-20.412 6.325-.481.009-.973.013-1.471.013m-24.412-10.475c3.531 3.466 7.979 5.549 12.685 5.908l2.354.18c3.923.3 7.549.43 10.781.376 6.407-.101 12.733-2.064 18.296-5.679l5.018-3.235c1.35-.618 2.491-1.686 3.287-3.057l-20.914 5.891a31.087 31.087 0 0 1-6.758 1.121 30.677 30.677 0 0 1-3.798-.033l-20.951-1.472zm-1.878-.132h.002-.002z"/><path clip-path="url(#b)" fill="#5445A1" d="M274.069 311.063a1.5 1.5 0 0 1-1.295-2.262c.014-.493-.003-1.58-.027-3.178l-.053-3.629a1.5 1.5 0 0 1 1.48-1.52h.02a1.5 1.5 0 0 1 1.5 1.48l.052 3.622c.072 4.676.074 4.764-.986 5.315a1.461 1.461 0 0 1-.691.172m-.694-2.831l.693 1.33-.686-1.334-.007.004"/></svg>