<svg xmlns="http://www.w3.org/2000/svg" preserveAspectRatio="xMidYMid" viewBox="0 0 205 49"><path d="M204.96 24.859h-.09l-.09.309-.73 1.189-.26.484-.43.53-.13.309-.56.618-.04.264-.91 1.013-.95 1.013-.99.969-.86.882-.35.133-.21.265-.3.086-.09.134-.61.309-1.03.838h-.21v.086l-.7.178-.08.131-.69.134-.95.35-.51.089-.09.134-1.34.175h-.13v.089l-.6.042-.74.176-1.37-.131h-.65l-1.08-.351-.69-.089-1.29-.618-.52-.309-.26-.264-.35-.176-.51-.793-.13-.089-.35-.618-.04-.262-.13-.178-.26-1.497-.14-1.07-.37.41v.22l-.31.175v.22h-.08l-.65 1.058-.26.089-.95.88-.17.044-.86.882-.26.089-1.03.88-1.09.662-1.2.485-1.38.264h-1.51l-.73-.089-1.13-.351-.47-.309-.6-.618v-.175l-.31-.222-.08-.396-.22-.22-.08-1.188h-.09l-.05-.918-.64.651-.91 1.057-.04.09-.3.086-.3.4h-.13l-1.17.925-.51.439-.26.045v.087h-.18l-1.29.442-.6.175h-1.38l-.82.089-.09-.131h-.43l-.73-.309-.35-.178-.34-.571-.31-.308-.04-.576-.73-1.189-.13-.306-.03-.963-.53.565-.95 1.102-.3.086-.39.576-.3.042-.17.309h-.22v.087l-.64.353-.78.618-1.21.398-.9.395-1.38.042-1.34-.086-.65-.22-.51-.354-.56-.529-.57-.837-.25-.262-.22-1.28-.09-.749.09-1.453.09-.751.38-1.32.3-1.37.09-.307.13-.133.05-.353.25-.485.22-.175v-.22h.09l.34-1.102.26-.793h.09v-.176l.34-.531.47-1.233.18-.661.3-.617.09-.484h.08v-.177l.21-.529.18-1.499v-.175l-.56-.662-.61-.087-1.37.396-1.26.705-1.03.793-.47.574-.52.395-.39.529-.3.661-.22.882h-.08l-.13.574-.26.529-.18.704-.51 1.28-.52 1.319-.47 1.191-.22.176-.43 1.279-.52 1.366-.13.618-.34.573-.48 1.367-.47 1.277-.56 1.103-.43.484-.52.175-1.46.178-.7-.133-.3-.176h-.73l-.74-.219-.08-.707.34-1.365.43-1.146.7-1.28.11-.302-.29.084-.17.263-.99.266-.91.485h-.47v.086h-.69l-.69.134h-1.55l-.52.351-1.03 1.015-.56.66-.22.044-.91.616-1.12.662-1.25.573-1.38.398-.69.131-1.34-.044-1.37-.265-1.26-.353-.73-.571-1.08-1.013-.21-.222-.05-.265-.26-.262v-.178l-.12-.133-.22-.529-.26-1.498-.16-.902-.05.02v.222l-.35.527-.13.045-.39.573-.99 1.013-.91 1.057-.04.09-.3.086-.3.4h-.13l-1.16.925-.52.439-.26.045v.087h-.17l-1.3.442-.6.175h-1.38l-.82.089-.09-.131h-.43l-.73-.309-.34-.178-.35-.571-.3-.308-.04-.576-.74-1.189-.13-.306-.03-1.007-.18.3-.261.089-.95.88-.172.044-.863.882-.258.089-1.036.88-1.078.662-1.208.485-1.38.264h-1.508l-.733-.089-1.122-.351-.473-.309-.605-.618v-.175l-.301-.222-.087-.396-.214-.22-.087-1.188h-.086l-.087-1.456.004-.027-.264.247-.516.398-.216.262-.087.265-.129.133h-.216l-.086.22h-.215l-.087.175h-.215l-.388.311v.087l-.172.045-.863.706-1.208.571-.474.398-.43.131-.217.178-1.337.306-.474.089v.089l-.388.131-1.379.178-.475.173-1.294-.173-.259.087-1.379-.087h-.388l-.087-.089h-.302l-.216-.175-1.335-.573-.476-.265-.344-.044-.906-1.058-.819-1.102-.173-.88-.258-.618-.13-.662.087-.44-.031-.032-.444.603-.301.222-.087.309-.906.969-.948 1.102-.302.086-.388.576-.302.042-.173.309h-.215v.087l-.647.353-.776.618-1.208.398-.904.395-1.381.042-1.337-.086-.647-.22-.517-.354-.561-.529-.56-.837-.26-.262-.215-1.28-.086-.749.086-1.453.087-.751.388-1.32.302-1.37.085-.307.129-.133.044-.353.258-.485.217-.175v-.22h.086l.344-1.102.259-.793h.087v-.176l.345-.531.475-1.233.171-.661.303-.617.085-.484h.087v-.177l.215-.529.173-1.499v-.175l-.56-.662-.605-.087-1.379.396-1.251.705-1.035.793-.474.574-.518.395-.388.529-.301.661-.216.882h-.086l-.131.574-.257.529-.173.704-.518 1.28-.517 1.319-.475 1.191-.214.176-.432 1.279-.517 1.366-.131.618-.344.573-.474 1.367-.474 1.277-.561 1.103-.43.484-.519.175-1.465.178-.691-.133-.302-.176h-.733l-.733-.219-.086-.707.282-1.119-.196.192-.992.882-.561.487-.43.131-.174.264h-.214v.089h-.173v.087h-.216v.089h-.172v.133l-1.164.22-1.424.176-1.422.086-.302-.086-.086-.131-.346-.045-.042-.131h-.217v-.089l-.301-.089-.992-1.057-.604-1.278-.258-.265-.173-.044-.474.22-.949.969-.301.264-.26.089-.906.751-.69.262-.128.134-1.295.395-1.337.176-.991-.045-.69-.262-.647-.353-.992-.882v-.22l-.258-.134-.086-.749-.13-.13-.216-.663v-1.409l.087-.706-1.122.838-1.035.793-1.164.573-.388.045-.259.222-.301.042-.302.175-.603.176-1.381.267-.647.089-.431-.045-.216.131-1.077.131-.475.354-.129.264-.173 1.542-.044.707-.085.086-.086.707-.086.089-.346 1.408-.388 1.279-.432 1.321-.516 1.367-.346.529-.172.442-.13.131-.042.22h-.087l-.431.927-.259.264-.431.793-.431.309-.086.307-1.079.837-.215.045-.173.309-.302.089-.43.44-.388.044-1.337.44-.647.089-1.38-.134-.647-.088-.863-.483-.086-.178-.561-.395-.043-.178-.345-.351v-.175l-.215-.222-.129-1.454-.173-.968.215-.749.217-1.411.473-1.278.432-1.324.432-.704v-.176l.516-1.015.345-1.103.259-.264.345-1.322.13-.44.129-.131.129-.442.216-.176.086-.484.518-1.233.474-1.28.475-1.1.431-1.322.302-.487.345-.925.258-.752.13-.086.474-1.322.432-1.322.042-.178.129-.087.388-.748.173-.838.216-.222.172-.66.474-1.234.561-1.278.173-.617.172-.309.043-.309.217-.264.387-1.146.302-.571.431-1.324.216-.352.474-1.278.518-1.278.043-.176.216-.177.344-1.322.13-.485.215-.177.432-1.233.042-.178.173-.087.043-.265.172-.087.562-1.278.085-.309.604-.75.086-.308.216-.307v-.221l.216-.088.087-.309 1.939-1.984.302-.087.087-.221h.215l.561-.352L20.911.09l.603-.087h1.553l1.207.175.647.44h.173l.862 1.013.346.574.084.309.173.22.217 1.367v1.145l-.13.133-.129 1.41-.044.705-.302.881-.172.309v.529l-.173.132-.086.44-.474 1.234-.13.133-.042.308-.432 1.279-.129.352-.215.177v.308l-.388.925-.217.177-.043.307-.215.31-.303.925-.042.175-.259.266-.172.617-.259.397-.044.22-.259.265-.129.528h-.086l-.086.353-.517 1.102-.346.528-.042.308-.776 1.147-.734 1.146-.647.794-.086.306-1.078.972-.302.13-.387.398-.26.045-.518.44-1.25.308-1.336.354-1.466.132-.216.089-.647.88-.345 1.015v.351l.474.573h.173v.089h.215v.087h.173v.133l1.164.354 1.165.219 1.207-.088.086-.087.69-.044 1.294-.309.948-.354.475-.131.129-.133.474-.131.087-.133.172-.045.475-.44.172-.044.259-.351h.216l.302-.398h.172l.863-.838.128-.044v-.22l.475-.397v-.177l.474-.485.561-.924.56-.662.302-.616.432-.618.039-.025.219-.548.432-1.411.345-.617.043-.308.345-.617.173-.661.129-.089.43-1.277.217-.397.085-.397.086-.043.389-1.323.518-1.19.301-.661.13-.617h.129l.043-.264.432-.529.818-.221 1.294.132 1.423-.044.647.222.431.528.087.088-.216.705-.259.441-.344 1.233-.56 1.234-.044.309-.13.132-.128.573-.346.971-.259.263-.258.926-.259.264-.173.661-.302.442-.085.66-.087.044-.086.529-.648 1.191-.257.574-.346 1.233h-.086l-.087.351-.128.133v.353l-.216.352-.086.707-.173.218-.13.356-.129.131-.344 1.322-.087.529-.129.133v.395l-.087.089v.309l.13.351.475.529.474.133.646-.177 1.035-.661.086-.133.302-.086.906-1.014.388-.397.043-.265.387-.395.303-.178v-.22l.776-1.102.734-1.192.388-.527.474-1.191.258-.617.346-.529.129-.571.13-.134.516-1.322.216-.705.172-.309.131-.705.56-1.234.432-1.322.172-.309.042-.307.131-.132.042-.265.215-.221.346-.617.345-1.277.474-.97.517-.397h1.854l.086-.089.605.089 1.251-.089.517.441v.618l-.432 1.498-.517 1.323-.475 1.277-.171.617-.217.177-.042.352-.217.352-.085.309-.303.484-.171.926-.217.265-.129.44-.173.265-.086.353-.216.265-.128.439-.217.265-.042.309-.216.175-.172.926h-.087l-.474 1.323-.172.264-.174.705-.085.088-.388 1.368-.518 1.367-.172.748v.793l.13.661.171.264.389.267h.216l.086.131 1.034-.176.474-.178 1.942-1.982.991-1.059.431-.527v-.178l.345-.618.777-1.014.517-.573.431-.705.087-.308.129-.132.043-.264h.13v-.178l.469-.691.005-.013.648-1.278.516-1.366.517-1.322.474-1.323.519-1.145.43-1.323.519-1.321.516-1.19.302-.53.474-.397.345.045.604.221.173.176.819.353.216.22h.172v.088l1.207.616h.432l.647-.264 1.121-.792.905-.53h.173v-.133h.215v-.086l1.208-.353 1.251-.309.733-.088.819.045.69.131.561.309 1.034.925.086.089.346 1.101.215.573v.661l-.259 1.454-.388 1.41-.388 1.147-.129.132-.301.969-.216.265-.389 1.233-.129.485-.301.398v.308l-.519 1.147-.258.66-.129.133-.302 1.055h-.087l-.042.31-.217.308-.085.355-.13.131-.388 1.28-.259 1.322h-.086l.043 1.453.043.44.388.309.044.089.172.042.776-.262h.215v-.089h.173v-.089h.216v-.131h.172v-.089h.217l.473-.485h.216l1.035-1.013.129-.089.346-.573.732-.749v-.175l.475-.485.086-.309.906-1.103.776-1.013.129-.133.044-.265.215-.22.647-1.277.198-.254.104-.275.129-.749.13-.133.516-1.233.432-1.235.646-.97v-.22l.173-.087v-.222h.129v-.176l.733-1.146.475-.484.086-.308.173-.088.345-.574.992-1.057.129-.133.345-.132.561-.616.647-.354.559-.484.346-.088.259-.221.301-.088.173-.221.517-.175.777-.088 1.336-.309 1.294-.089 1.423.265 1.036.221.991.836.518.441.215.485.26.221.257.529.216.704.216 1.454-.043 1.104-.217.661-.084.704-.476 1.367-.216.659-.991.972-1.337.175-1.423-.045-.691-.044-.042-.086-.345-.134-.258-.307-.087-.044.043-1.015.173-.176v-.177l.516-1.233.388-1.41.087-.707-.043-.307-.172-.266-.302-.218-.69-.088-1.163.263-.389.352-.345.046-.993.969-.085.308-.172.088-.131.309-.474.529-.647 1.278-.431.968-.259.178v.309l-.56 1.102-.302 1.102-.345.924-.431 1.234-.215 1.236-.087.087-.129 1.411-.044.704.518 1.102.431.663.863.571 1.465.353.605.089 1.336-.176h.345l.087-.089.389-.044.387-.22 1.337-.484 1.164-.663.991-.793.303-.131.475-.529.559-.398.949-1.102.519-.306.043-.268.386-.265.044-.264.517-.484.605-.749v-.22l.258-.176.043-.308.215-.089.087-.351.344-.487.218-.197.085-.243.345-.704.431-1.28.174-.265.171-.704.303-.485.043-.265.301-.617.131-.661.386-.881.129-.088v-.221h.087L92.623 16l.13-.132v-.177l.214-.309v-.22h.087l.388-1.234.301-.881-.084-.352-.173-.265-.259-.132h-1.25l-.519-.133-.344-.219-.387-.442.129-.749.215-.22.13-.309.301-.352.302-.089.086-.132.646-.177 1.511.045.646-.088.604-.353.173-.308.128-.088.13-.618.13-.131.128-.618.216-.221.216-.615.344-.573.345-1.19.173-.529.174-.088.086-.309h.215l.043-.133.602-.131h1.51l.3-.132h.87l.73.132.47.22.05.044.08.793-.13.661-.56 1.235-.21.484-.43 1.279-.09.308v.441l.17.308.22.044.08.131h1.42l.56.134.35.44.05.309-.18.748-.34.53-.44.44h-.17l-.13.178-.6.132-1.38-.132-.69.088-.558.396-.605 1.189-.431 1.279-.605 1.322-.345.573v.132l-.344.661-.131.969-.301.398-.388 1.189-.474 1.324-.518 1.364-.171.618-.13.089-.518 1.322-.301.615-.347.971-.084.087-.087.53-.217.264-.128.663-.388 1.233-.173 1.5.044.395.301.573.431.134.13.131 1.164-.131.819-.531.345-.132 1.165-.97.819-.88.949-1.1.086-.178.216-.089v-.176l.26-.219.258-.529.257-.178v-.177l.3-.22.09-.308.86-1.014.22-.353v-.22h.08v-.178h.09v-.22l.26-.22.13-.351.47-.686.04-.109.18-.66.17-.309.08-.529.22-.177.09-.616.08-.089v-.22l.22-.22.04-.309.39-.704.39-1.235.17-.485h.09l.51-1.365.57-1.279.64-1.233.31-.838.51-.484.43-.221h3.02l.43.087.31.178.34.395.04.045-.26 1.057-.12.044-.48 1.279-.39 1.233-.21.221-.05.396-.17.221-.26.925h-.13l-.21.661-.13.132-.47 1.235-.09.528-.13.045-.31 1.013-.47.662-.04.22h-.09v.22h-.08l-.18.618-.3 1.277-.13.089-.43 1.364-.3.794-.21.223v.307l-.14.133-.17.796h-.08l-.35 1.233-.17.747v.706l.43.573.56.309 1.16-.178 1.04-.704.52-.573.43-.265.51-.528.18-.354.47-.484.74-1.144.86-.973.08-.308.26-.176.09-.309.21-.175.09-.309.69-.882.17-.66.35-.398.04-.176.04-.039v-.005l.35-.616.34-1.368.56-1.321.44-.705v-.176l.51-.838.35-.353.08-.308.22-.088v-.22l.65-1.103.43-.397.09-.308 1.03-.926.78-.925.26-.088.64-.661h.22v-.088h.17v-.089h.21l.09-.22.52-.087 1.16-.575.69-.219 1.25-.087 1.47.043 1.34.175 1.12.355v.088l.56.352.99.925.39.308.17.264.18.089.21.661.13.134.3 1.189.09.087.13 1.278.04 1.498-.13 1.367-.04.573-.18.396-.08.707-.3 1.366-.39 1.277-.39.925-.6 1.28-.13.572.08.267.26.175.35.087.86-.262 1.03-.443.61-.396.52-.487.34-.131.95-.969.39-.486.73-1.278.65-1.278.52-1.366.51-1.322.48-1.323.51-1.145.43-1.323.52-1.321.52-1.19.3-.53.48-.397.34.045.61.221.17.176.82.353.21.22h.17v.088l1.21.616h.43l.65-.264 1.12-.792.91-.53h.17v-.133h.21v-.086l1.21-.353 1.26-.309.73-.088.82.045.68.131.57.309 1.03.925.09.089.34 1.101.22.573v.661l-.26 1.454-.39 1.41-.39 1.147-.13.132-.3.969-.21.265-.39 1.233-.13.485-.3.398v.308l-.52 1.147-.26.66-.13.133-.3 1.055h-.09l-.04.31-.21.308-.09.355-.13.131-.39 1.28-.26 1.322h-.08l.04 1.453.04.44.39.309.05.089.16.042.78-.262h.22v-.089h.17v-.089h.22v-.131h.17v-.089h.22l.47-.485h.21l1.04-1.013.13-.089.35-.573.72-.749v-.175l.48-.485.09-.309.91-1.103.77-1.013.13-.133.04-.265.22-.22.64-1.277.35-.44.08-.222.18-.66.17-.309.08-.529.22-.177.09-.616.08-.089v-.22l.22-.22.04-.309.39-.704.39-1.235.17-.485h.09l.51-1.365.57-1.279.64-1.233.3-.838.52-.484.43-.221h3.02l.43.087.3.178.35.395.04.045-.26 1.057-.13.044-.47 1.279-.39 1.233-.21.221-.05.396-.17.221-.26.925h-.12l-.22.661-.13.132-.48 1.235-.08.528-.13.045-.3 1.013-.48.662-.04.22h-.09v.22h-.09l-.16.618-.31 1.277-.13.089-.43 1.364-.3.794-.22.223v.307l-.13.133-.17.796h-.08l-.35 1.233-.17.747v.706l.43.573.56.309 1.16-.178 1.04-.704.52-.573.43-.265.51-.528.18-.354.47-.484.73-1.144.87-.973.09-.308.25-.176.09-.309.21-.175.09-.309.69-.882.17-.66.35-.398.04-.176.06-.059.07-.205.35-.704.43-1.28.17-.265.17-.704.3-.485.05-.265.3-.617.13-.661.38-.881.14-.088v-.221h.08l.35-1.057.13-.132v-.177l.21-.309v-.22h.09l.38-1.234.31-.881-.09-.352-.17-.265-.26-.132h-1.25l-.52-.133-.34-.219-.39-.442.13-.749.21-.22.13-.309.3-.352.31-.089.09-.132.64-.177 1.51.045.65-.088.6-.353.17-.308.13-.088.13-.618.13-.131.13-.618.21-.221.22-.615.34-.573.35-1.19.17-.529.18-.088.08-.309h.22l.04-.133.6-.131h1.51l.3-.132h.87l.73.132.47.22.05.044.08.793-.13.661-.55 1.235-.22.484-.43 1.279-.09.308v.441l.18.308.21.044.09.131h1.42l.56.134.35.44.04.309-.17.748-.35.53-.43.44h-.17l-.13.178-.61.132-1.38-.132-.69.088-.56.396-.6 1.189-.43 1.279-.61 1.322-.34.573v.132l-.34.661-.13.969-.3.398-.4 1.189-.47 1.324-.52 1.364-.17.618-.13.089-.51 1.322-.31.615-.34.971-.09.087-.09.53-.21.264-.13.663-.39 1.233-.17 1.5.04.395.3.573.43.134.13.131 1.17-.131.82-.531.34-.132 1.17-.97.82-.88.95-1.1.08-.178.22-.089v-.176l.26-.219.26-.529.25-.178v-.177l.3-.22.09-.308.87-1.014.21-.353v-.22h.09v-.178h.08v-.22l.26-.22.13-.351.52-.751.01-.002.07-.218v-.529l.52-1.146.52-1.101.22-.353.43-.969.17-.089.08-.308.65-1.102.56-.882.91-.924.51-.44.48-.618.52-.441.3-.397.26-.044 1.12-.749.22-.045.17-.264.6-.263 1.34-.442 1.33-.088h.43l.09-.088h1.38l.56.176.13.133.69.176.48.396.64.264.43.574.69.572.09.309.17.089v.22l.18.132.17 1.277.17 1.411-.09.705-.34 1.322-.04.353-.39.925-.26.308-.26.751-.17.087-.22.573-.26.265-.3.529-1.04 1.015-.56.44-.17.042-.21.222-.6.351-.4.134-.17.22h-.21v.086l-1.08.354-.56.177-.69.042-.3.134h-1.34l-1.34.045-1.42.044-.69.529-.22 1.323v1.498l.22.573.82 1.013.6.44.48.222.77.176 1.47.042 1.3-.218 1.24-.531 1.34-.571.86-.706h.22l.08-.176h.22l.56-.618.26-.044.48-.616.3-.089.81-.835.87-1.017.82-1.057.82-1.147.43-.571.04-.264.65-.838.6-.176.6.307.48.353.26.618-.04.749zm-56.45.88l-.17-.087v.307l.17-.042v-.178zm-88.66 0l-.173-.087v.307l.173-.042v-.178zM2.455 42.707h-.218v.089l-.084.044v.178l.084.089h.218l.085-.089-.085-.311zm.301-.571l.129.704.259.267h.086l.087-.134v-.353l.258-.175.043-.22-.862-.089zm12.42-27.458h-.217l.044.352.129.046h.087l.042-.266-.085-.132zm.559-2.469h-.171l-.303.309-.042.088h.387l.216-.219-.087-.178zm1.725-3.613l-.215-.221-.043-.175.086-.397-.301-.089-.086.221.171.572.044.089-.087.352.087.132h.215l.259-.176-.13-.308zm.82 13.046l.086.044.086-.178-.086-.22h-.086l-.086.132.086.222zm-5.174 2.026l.172.309.216.089.388-.045.474-.175.475-.398.301-.089.862-1.013.69-1.147.476-.616.128-.529.26-.264.215-.617.517-.617.172-.573h.087v-.22l.215-.221v-.176l.561-1.189.129-.486.604-1.233.129-.132.518-1.19.56-1.323.173-.706.172-.22.044-.528.216-.265.042-.265.13-.132.517-1.365.302-.573.259-1.455.042-.705-.129-.661-.259-.441-.732-.131-.13.043h-.042l-.949.705-.647.969-.173.398h-.087l-.042.263-.388.617-.086.31-.388.529-.044.307-.258.265-.173.749-.173.264v.221h-.086v.176h-.086v.221h-.129v.177h-.086v.219h-.087v.176h-.086v.221l-.216.177-.086.527h-.086v.177l-.517 1.279-.13.661-.258.704-.389.574v.176h-.087l-.042.309-.302.572-.044.53h-.087v.175h-.128l-.431 1.278-.518 1.322-1.034 2.558-.431 1.1v.353zM4.999 37.641h-.13l.13.351v.222l-.259.131-.044.176h.216l.216-.22.043-.485-.172-.175zm3.104-6.788l-.173-.087-.345.042-.043.045.13.308.258.09.173-.265v-.133zm1.079 2.16L8.75 34.29l-.13.134-.129.528-.475 1.192-.516 1.099-.302.573-.173.927h-.086l-.044.351-.43.927v.309l-.216.219v.176l-.172.309-.13.089-.129.704-.604 1.28-.345 1.322v.218l.172.442.302.176.044.044.302.044.602-.264.604-.487.82-1.144.388-.529.345-1.057.216-.22.56-1.322.388-1.367.388-.882.131-.793.301-.969.129-.265.129-1.5.044-.528-.13-.22-.043-.44h-.086l-.043-.267-.259-.218-.345-.133-.344.045-.302.22zm.43-6.523l-.128.087.128.264h.432l.215-.309.388-.175.043-.265-.086-.353-.172-.176-.301.089-.087.087.129.486-.042.176-.519.089zm1.337-1.544l-.388-.307-.388.042-.129.089.215.089h.173l.172.309.259.086.086-.308zm16.43 2.249l-.474-.044v.395l.474-.131.129.045-.129-.265zm2.673-11.327h.174v-.177h-.174v.177zm4.398 14.28l-.172.485.087.089.085.044.216-.266.173-.087.086-.178-.475-.087zm.432 1.498l-.043.089.216.22h.172v-.309h-.345zm.603-4.011l-.258-.175-.215.398v.086l.128.089.345-.044v-.354zm.389.529l-.259-.087v.176l-.172.133-.043.087.129.089h.345l.129-.089-.129-.309zm.129 2.602h-.302v.087h.086l.044.088h.172v-.175zm.604.749l.087.131h.086l.086-.131v-.22l-.086-.134h-.086l-.087.134v.22zm.346-1.324l-.173.133-.086.044-.388-.44-.217.045v.218l.217.355.215-.046.475.266.086-.089-.129-.131.215-.487v-.175l-.086-.044-.129.351zm.215-4.01v.265l.086.044.13-.089v-.176l-.13-.088-.086.044zm.517-1.5l-.301-.309-.087.134.044.353.258.22h.086v-.398zm4.096-7.006l.087-.176-.215-.133-.044.133-.043.087.215.089zm9.186 5.906h-.173l-.129.265h.302v-.265zm1.164-6.17l-.129-.133h-.259v.221l.087.131h.215l.086-.044v-.175zm.993-1.146l-.044.13-.044.089.174.089.129-.178-.215-.13zm10.995-1.189h.129v-.178l-.216-.088-.042.175.129.091zm-.733 2.246l.172.044h.129l.088-.176-.131-.308-.172-.089-.129.045-.044.352.087.132zm-.389-2.027l.087.087.173-.044.086-.131.432-.177.085-.132-.173-.088-.473.088-.217.309v.088zm-.904 3.922l.129.088.086-.043v-.177l-.215-.221v.353zm-1.639 9.652l.215-.043.087-.131-.13-.222h-.086l-.086.264v.132zm.043-5.861l-.043.042.043.354.129.044.259-.176.043-.308-.431.044zm11.642.573l-.012.026.068.011-.056-.037zm.131.087l-.033-.022.054.11-.021-.088zm12.289-7.273h.173l.086-.218-.172-.088-.087.219v.087zm-8.02.971l.129.133.43-.088v-.089l-.344-.176h-.173l-.042.044v.176zm-2.243 4.627h.173v-.218h-.173v.218zm16.213 9.477l-.344-.131-.129.131v.087l.129.089h.216l.128-.089v-.087zm7.935-20.451l.087.088.085-.088v-.175l-.085-.045-.087.088.087.088-.087.044zm.087-1.409l.302-.177.086-.044.173-.176.043-.309-.216-.177h-.172l-.303.177.087.706zm-2.026 1.938l.085.045v-.308l-.129.088.044.175zm-.303 1.72h.172v-.177h-.172v.177zm6.508 17.805l-.08-.132h-.43l-.09.045.13.309.3.089.17-.089v-.222zm1.34-1.851l-.21-.396-.18-.044.22.529v.089l-.04.131-.31.089-.04.175.35-.087.21-.308v-.178zm2.55-9.388l.21.177h.09v-.309l-.3-.088v.22zm-.82 1.19l.12.089h.14v-.178l-.22-.22-.09.133.05.176zm21.47 6.127h.17l.09-.177-.17-.133-.09.22v.09zm-1.17 1.28l.31.175.09.131-.09.089-.05.309.44.176.17-.089v-.176l-.31-.615.05-.178.22-.22.04-.175-.82.351-.05.044v.178zm-1.2 2.51l.21.176h.09v-.395h-.3v.219zm-8.24-3.481l-.43-.045v.22l.17.267.22.131h.08l.22-.398-.26-.175zm.74-2.601v.087l.3.088.17-.088v-.22l-.21-.176-.26.309zm.77-4.628l-.47-.088.04.22.3.088.13-.133v-.087zm.39.837l-.09.44v.134h.22l.21-.178.05-.307-.39-.089zm8.71-4.539l-.3-.574-.47-.396-.78-.264-.39-.045-.13.132h-.3l-.26.221-.21.044-1.08.969-.26.177-.31.573-.38.309v.176l-.52.705-.17.088v.22l-.26.264-.09.265-.13.132-.13.441-.6 1.191-.6 1.233-.57 1.014-.12.706-.48 1.322-.26 1.409-.38 1.368v2.337l.34.571.47.529.56.309.35.089 1.03-.222.35-.307.3-.089.56-.395.99-1.103.22-.573v-.704l-.43-1.367v-.707l.21-.749.18-.22.08-.309.26-.176v-.177l.6-.485.61-.306.65-.134.3-.175.43-.574.56-1.279.34-1.322.26-1.366.13-1.367-.17-1.409zm.3 9.299l-.13.22v.089h.22l.04-.178-.13-.131zm.26 3.307l.04.176.18.131h.08v-.307h-.3zm.99-2.91l-.52.087-.17.353v.089h.22l.17-.222.3-.131v-.176zm10.82-2.644h-.16l-.14.265h.3v-.265zm1.17-6.17l-.13-.133h-.26v.221l.09.131h.22l.08-.044v-.175zm.99-1.146l-.04.13-.05.089.18.089.13-.178-.22-.13zm11-1.189h.13v-.178l-.22-.088-.04.175.13.091zm-.73 2.246l.17.044h.13l.09-.176-.14-.308-.17-.089-.13.045-.04.352.09.132zm-.39-2.027l.08.087.18-.044.08-.131.44-.177.08-.132-.17-.088-.48.088-.21.309v.088zm-.91 3.922l.13.088.09-.043v-.177l-.22-.221v.353zm-1.64 9.652l.22-.043.09-.131-.13-.222h-.09l-.09.264v.132zm.05-5.861l-.05.042.05.354.13.044.25-.176.05-.308-.43.044zm10.18 8.065l-.09-.132h-.43l-.09.045.13.309.3.089.18-.089v-.222zm1.33-1.851l-.22-.396-.17-.044.22.529v.089l-.05.131-.3.089-.04.175.34-.087.22-.308v-.178zm2.54-9.388l.22.177h.09v-.309l-.31-.088v.22zm-.81 1.19l.12.089h.13v-.178l-.21-.22-.09.133.05.176zm9.09 10.446l-.34-.131-.13.131v.087l.13.089h.21l.13-.089v-.087zm7.94-20.451l.09.088.08-.088v-.175l-.08-.045-.09.088.09.088-.09.044zm.09-1.409l.3-.177.08-.044.18-.176.04-.309-.22-.177h-.17l-.3.177.09.706zm-2.03 1.938l.09.045v-.308l-.13.088.04.175zm-.31 1.72h.18v-.177h-.18v.177zm8.03 14.234l-.22-.087-.09.176.18.089.13-.178zm-.52 2.998h.21v-.22h-.21v.22zm-.31-1.321l.14-.088v-.089l-.26-.089-.04.178.16.088zm1.21-4.629l-.08.045.04.264h.34l.09-.264-.39-.045zm13.16-7.051h.21v-.177h-.21v.177zm-.78-.574h.35l.08-.132-.04-.089h-.39v.221zm-8.75 6.39l.26.133h1.55l.52-.044.25-.22.35-.089.39-.307.52-.222.08-.131.26-.045.95-1.057.56-1.19.6-1.279.26-.704.17-1.322-.52-.573-.25-.132H194l-.56.262-.25.045-.91.838-.26.044-.9 1.102-.44.793-.13.088-.64 1.058-.22.661h-.09v.175h-.12l-.05.309-.51 1.324.3.483zm-1.77-2.467l.04-.221h-.04l-.22.263.22-.042zM171.02 7.891l-.39.484-.04.177-1.12.749-.39.132-.26.264h-.6l-1.47-.264-.51-.309-.26-.263-.05-.265-.17-.089-.56-1.277-.09-.618.13-.793.3-.573.26-.265.56-.835 1.04-.354.64-.087.74.087.64.22.56.308.52.486.39.573.17.529.09 1.542v.176l-.13.088v.177zm-56.62 0l-.39.484-.04.177-1.12.749-.39.132-.26.264h-.6l-1.47-.264-.52-.309-.26-.263-.04-.265-.17-.089-.56-1.277-.09-.618.13-.793.3-.573.26-.265.56-.835 1.04-.354.64-.087.74.087.64.22.57.308.51.486.39.573.17.529.09 1.542v.176l-.13.088v.177z"/></svg>