<svg xmlns="http://www.w3.org/2000/svg" xmlns:xlink="http://www.w3.org/1999/xlink" width="566" height="526" viewBox="0 0 566 526"><defs><path id="a" d="M0 0h566v526H0z"/></defs><clipPath id="b"><use xlink:href="#a" overflow="visible"/></clipPath><g clip-path="url(#b)"><defs><path id="c" d="M0 0h566v526H0z"/></defs><clipPath id="d"><use xlink:href="#c" overflow="visible"/></clipPath><path clip-path="url(#d)" fill="#E6E6E6" d="M485.544 310.68c0 111.361-90.276 201.637-201.637 201.637S82.27 422.042 82.27 310.68c0-111.361 90.276-201.637 201.637-201.637s201.637 90.276 201.637 201.637"/><path clip-path="url(#d)" fill="#5445A1" d="M204.354 124.754l-5.11 6.787c-8.281 11-12.132 24.796-10.769 38.582l5.277 53.395a163.702 163.702 0 0 1-.02 32.409l-.378 3.778 11 50.842 36 32.445 53.5-178.051-15.5-55.449-74 15.262z"/><path clip-path="url(#d)" fill="#5445A1" d="M241.612 347.493l-39.531-35.628-11.254-52.016.417-4.171a161.525 161.525 0 0 0 .02-31.914l-5.278-53.394c-1.428-14.466 2.571-28.789 11.261-40.332l5.677-7.541 77.209-15.924 16.323 58.395-.208.695-54.636 181.83zm-34.986-38.263l32.469 29.263 52.156-173.575-14.677-52.505-70.791 14.599-4.542 6.033c-7.933 10.539-11.584 23.619-10.278 36.832l5.277 53.395a166.64 166.64 0 0 1-.021 32.904l-.339 3.386 10.746 49.668z"/><path clip-path="url(#d)" fill="#5445A1" d="M375.03 134.411l3.052 4.054c4.933 6.552 7.226 14.77 6.415 22.982l-5.762 58.293a201.944 201.944 0 0 0 .024 39.966l-11 50.842-36 32.445-53.5-178.05 15.5-55.45 62.283 12.845c7.556 1.558 14.301 5.847 18.988 12.073"/><path clip-path="url(#d)" fill="#5445A1" d="M330.502 347.493l-54.844-182.524 16.323-58.396 64.568 13.317c8.152 1.681 15.424 6.304 20.478 13.017l3.053 4.054c5.329 7.079 7.781 15.862 6.905 24.732l-5.761 58.293a199.767 199.767 0 0 0 .024 39.471l.039.393-11.255 52.015-39.53 35.628zm-49.639-182.575l52.156 173.575 32.469-29.263 10.746-49.668a204.746 204.746 0 0 1 .015-40.068l5.761-58.293c.752-7.617-1.352-15.158-5.924-21.232l-3.053-4.054c-4.32-5.74-10.533-9.692-17.493-11.129l-59.999-12.373-14.678 52.505z"/><path clip-path="url(#d)" fill="#C5C5FF" d="M363.68 316.728l6.47-35.234H203.096l6.471 35.233a237.063 237.063 0 0 1-1.106 91.336l-.001.004c-3.172 15.202 4.751 30.542 19.393 37.547h.001c36.943 17.673 80.597 17.673 117.54 0 14.644-7.005 22.566-22.345 19.394-37.547a237.02 237.02 0 0 1-1.108-91.339"/><path clip-path="url(#d)" fill="#5445A1" d="M286.622 461.314c-20.556 0-41.111-4.482-59.849-13.446-15.536-7.432-24.066-23.873-20.814-40.055v-.005l.053-.257c6.244-29.92 6.612-60.326 1.094-90.374l-7.012-38.185H373.15l-7.011 38.186c-5.519 30.049-5.15 60.456 1.094 90.377 3.394 16.265-5.144 32.842-20.761 40.313-18.739 8.964-39.293 13.446-59.85 13.446m-75.663-52.994l-.053.257c-2.923 14.004 4.49 28.305 18.025 34.781 36.125 17.281 79.257 17.281 115.382 0 13.536-6.477 20.948-20.777 18.026-34.781-6.377-30.559-6.755-61.613-1.118-92.301l5.927-32.283H206.096l5.928 32.282c5.622 30.603 5.263 61.569-1.065 92.045"/><path clip-path="url(#d)" fill="#C5C5FF" d="M379.931 280.339c-5.339 11.162-12.62 19.394-19.843 23.409-6.147 3.418-12.254 3.784-17.088.306-10.514-7.563-11.025-30.444-1.143-51.106 9.882-20.661 26.417-31.279 36.931-23.715s11.025 30.445 1.143 51.106"/><path clip-path="url(#d)" fill="#5445A1" d="M350.624 309.001c-3.3 0-6.379-.972-9.084-2.918-11.627-8.364-12.479-32.178-1.938-54.215 6.854-14.329 16.912-24.41 26.903-26.966 5.085-1.302 9.84-.507 13.742 2.301 11.628 8.364 12.479 32.179 1.938 54.215-5.342 11.171-12.954 20.107-20.883 24.516-3.678 2.044-7.293 3.067-10.678 3.067m20.538-79.71a13.78 13.78 0 0 0-3.419.455c-8.445 2.161-17.501 11.464-23.632 24.28-9.21 19.256-9.05 41.237.35 47.999 4.893 3.518 10.536 1.692 14.411-.462 7.044-3.915 13.897-12.045 18.805-22.303 9.21-19.256 9.05-41.237-.35-47.998-1.823-1.313-3.889-1.971-6.165-1.971"/><path clip-path="url(#d)" fill="#C5C5FF" d="M192.487 280.339c5.115 11.162 12.089 19.394 19.009 23.409 5.889 3.418 11.739 3.784 16.369.306 10.072-7.563 10.562-30.444 1.095-51.106-9.467-20.661-25.306-31.279-35.378-23.715-10.072 7.563-10.561 30.445-1.095 51.106"/><path clip-path="url(#d)" fill="#5445A1" d="M220.564 309.006c-3.274 0-6.768-1.032-10.322-3.095-7.609-4.416-14.908-13.357-20.027-24.531-10.084-22.005-9.263-45.789 1.866-54.147 3.715-2.79 8.24-3.615 13.083-2.386 9.542 2.421 19.531 12.79 26.069 27.059 10.083 22.005 9.263 45.789-1.866 54.146-2.622 1.97-5.607 2.954-8.803 2.954m-19.671-79.713c-2.145 0-4.09.647-5.81 1.938-9.012 6.769-9.161 28.78-.323 48.067 4.699 10.256 11.257 18.38 17.991 22.289 3.664 2.127 8.999 3.932 13.614.468 9.011-6.768 9.16-28.779.323-48.067-5.924-12.927-14.643-22.237-22.754-24.295a12.364 12.364 0 0 0-3.041-.4"/><path clip-path="url(#d)" fill="#C5C5FF" d="M367.871 223.607l-.001-.014a229.405 229.405 0 0 0-.994-7.824l-4.329-34.079c-2.45-19.283-17.72-35.024-37.902-39.244l-16.773 1.474a219.287 219.287 0 0 1-41.956-.346l-16.713-1.747c-20.659 3.991-36.363 20.035-38.709 39.721l-3.47 29.132c-2.077 12.449-3.168 25.616-3.108 39.235.012 2.857-.201 13.064-.461 24.229-.532 22.901 5.971 75.816 29.298 92.979l31.13 26.72c2.423 2.201 43.906 2.201 46.329 0l32.025-33.946c20.915-17.816 25.485-57.145 25.806-77.99l.174-11.3a236.45 236.45 0 0 0 .997-20.691 236.465 236.465 0 0 0-1.343-26.309"/><path clip-path="url(#d)" fill="#5445A1" d="M287.047 397.993c-22.312 0-24.152-1.671-24.846-2.3l-31.007-26.613c-24.101-17.834-30.781-71.683-30.239-94.994.317-13.594.471-21.722.46-24.16-.058-13.448.995-26.771 3.132-39.6l3.464-29.074c2.481-20.823 18.844-37.653 40.717-41.881l.365-.07 17.082 1.787a217.235 217.235 0 0 0 41.478.342l17.141-1.507.362.075c21.27 4.447 37.291 21.075 39.871 41.377l4.33 34.078c.409 2.864.737 5.451.998 7.872l.002.014a239.53 239.53 0 0 1 1.355 26.587 239.287 239.287 0 0 1-.999 20.814l-.172 11.203c-.209 13.56-2.745 59.334-26.58 79.767l-32.069 33.983c-.693.629-2.532 2.3-24.845 2.3m-21.712-6.197c4.396 1.586 38.617 1.598 43.345.026l31.934-33.829c22.335-19.026 24.727-63.078 24.928-76.126l.186-11.49c.625-6.784.957-13.672.985-20.473a234.608 234.608 0 0 0-1.326-26.03h.001a234.305 234.305 0 0 0-.985-7.752l-4.336-34.116c-2.295-18.075-16.572-32.917-35.576-37.037l-16.4 1.441a222.17 222.17 0 0 1-42.435-.35l-16.338-1.708c-19.548 3.925-34.132 18.951-36.341 37.492l-3.488 29.247c-2.096 12.568-3.13 25.627-3.073 38.813.011 2.484-.144 10.658-.462 24.298-.502 21.591 5.923 74.457 28.281 90.907l.146.117 30.954 26.57zm.123.104l.052.045-.052-.045"/><path clip-path="url(#d)" fill="#5445A1" d="M327.133 143.32l.605-.321c14.773-7.819 18.61-27.25 7.917-40.098a32.336 32.336 0 0 0-19.808-11.254l-39.365-6.22a76.86 76.86 0 0 0-44.4 6.223l-24.43 11.357a49.758 49.758 0 0 0-24.618 25.197c-3.991 9.132-.947 19.811 7.258 25.467l20.262 13.967a26.667 26.667 0 0 0 21.892 3.839l4.719-1.237a108.454 108.454 0 0 0 25.905-10.515l9.951-5.631a76.431 76.431 0 0 1 34.019-9.822l20.093-.952z"/><path clip-path="url(#d)" fill="#5445A1" d="M225.679 174.851a29.14 29.14 0 0 1-16.543-5.154l-20.263-13.967c-9.171-6.322-12.589-18.319-8.13-28.526a52.222 52.222 0 0 1 25.856-26.462l24.431-11.358c14.355-6.675 30.209-8.891 45.843-6.426l39.365 6.22a34.831 34.831 0 0 1 21.339 12.124 28.707 28.707 0 0 1 6.123 24.02 28.705 28.705 0 0 1-14.792 19.888l-1.102.582-20.648.978a74.287 74.287 0 0 0-32.905 9.501l-9.951 5.63a110.976 110.976 0 0 1-26.503 10.758l-4.719 1.236a29.132 29.132 0 0 1-7.401.956m38.75-87.872c-10.763 0-21.406 2.343-31.292 6.938l-24.431 11.358a47.23 47.23 0 0 0-23.381 23.931c-3.503 8.017-.818 17.441 6.386 22.407l20.263 13.967a24.15 24.15 0 0 0 19.839 3.479l4.719-1.236a106.05 106.05 0 0 0 25.307-10.274l9.951-5.63a79.326 79.326 0 0 1 35.132-10.143l19.535-.926.114-.06a23.719 23.719 0 0 0 12.223-16.437 23.72 23.72 0 0 0-5.06-19.852 29.816 29.816 0 0 0-18.277-10.383l-39.365-6.22a74.66 74.66 0 0 0-11.663-.919"/><g opacity=".6" clip-path="url(#d)"><defs><path id="e" d="M196.534 89.686h114.99v60.524h-114.99z"/></defs><clipPath id="f"><use xlink:href="#e" overflow="visible"/></clipPath><path clip-path="url(#f)" fill="#675DD1" d="M299.627 129.662l.421-.209c10.268-5.096 12.934-17.759 5.503-26.132-3.489-3.93-8.381-6.537-13.768-7.335l-27.358-4.053c-10.487-1.554-21.23-.142-30.858 4.055l-16.979 7.402c-7.648 3.334-13.733 9.174-17.11 16.421-2.773 5.951-.658 12.911 5.045 16.597l14.082 9.102c4.441 2.871 9.997 3.784 15.215 2.502l3.279-.806a78.293 78.293 0 0 0 18.005-6.853l6.916-3.669c7.238-3.84 15.336-6.033 23.643-6.402l13.964-.62z"/><path clip-path="url(#f)" fill="#675DD1" d="M229.116 150.21c-4.067 0-8.079-1.149-11.498-3.359l-14.083-9.102c-6.373-4.121-8.75-11.939-5.65-18.591 3.55-7.617 9.931-13.742 17.97-17.246l16.979-7.401c9.977-4.35 20.996-5.795 31.862-4.188l27.358 4.053c5.804.86 11.07 3.666 14.832 7.902 3.878 4.37 5.429 10.076 4.254 15.653-1.174 5.578-4.921 10.302-10.279 12.962l-.766.379-14.352.637c-7.994.355-15.902 2.496-22.869 6.192l-6.916 3.669a80.112 80.112 0 0 1-18.42 7.011l-3.279.806a21.551 21.551 0 0 1-5.143.623m26.931-57.267a54.389 54.389 0 0 0-21.748 4.522l-16.98 7.402c-7.269 3.169-13.04 8.708-16.249 15.595-2.436 5.226-.569 11.367 4.438 14.603l14.082 9.103c4.03 2.605 9.057 3.429 13.789 2.267l3.279-.805a76.517 76.517 0 0 0 17.589-6.696l6.916-3.669c7.439-3.946 15.882-6.232 24.417-6.61l13.577-.604.079-.039c4.428-2.197 7.524-6.102 8.495-10.712s-.312-9.326-3.517-12.937c-3.221-3.629-7.731-6.032-12.702-6.768l-27.359-4.053a55.407 55.407 0 0 0-8.106-.599"/></g><path clip-path="url(#d)" fill="#5445A1" d="M311.438 332.445l-19.795-11.459a5.805 5.805 0 0 0-1.558-.645 18.808 18.808 0 0 0-3.462-.483v-.029l-.003-.003c-.166 0-.331.012-.496.016-.166-.004-.331-.016-.496-.016l-.003.003v.029a18.98 18.98 0 0 0-3.463.483 5.799 5.799 0 0 0-1.558.645l-19.795 11.459a6.236 6.236 0 0 1-.843.398c-4.788 1.875-8.07 6.033-8.617 10.8-.101.88.013 1.772.293 2.611l2.281 6.839a6.19 6.19 0 0 1 .296 2.494s-1.482 29.332-.7 30.086l8.727 13.431c1.145 1.105 11.083-1.106 21.607-1.032 12.035.085 24.84 2.296 26.147 1.032l8.728-13.431c.781-.754-.718-28.542-.718-28.542a6.242 6.242 0 0 1 .21-2.251l2.482-8.771c.215-.76.291-1.555.21-2.338-.503-4.82-3.801-9.036-8.631-10.929a5.998 5.998 0 0 1-.843-.397m3.304 23.069l-1.755 14.634a6.02 6.02 0 0 1-.217 1.036l-2.029 6.799a6.21 6.21 0 0 1-1.547 2.601l-.563.565c-3.805 3.824-9.798 2.473-12.007-2.709-1.143-2.68-4.421-5.601-7.059-7.635a6.17 6.17 0 0 0-2.942-1.244v-.057c-.167-.005-.333.02-.499.028-.167-.009-.333-.033-.499-.028v.057a6.187 6.187 0 0 0-2.944 1.244c-2.637 2.034-5.915 4.955-7.057 7.635-2.209 5.182-8.203 6.533-12.008 2.709l-.562-.565a6.194 6.194 0 0 1-1.547-2.601l-2.031-6.799a6.336 6.336 0 0 1-.216-1.036l-1.754-14.634a5.322 5.322 0 0 1-.038-.456c-.09-2.054-.326-16.137 9.808-18.961.283-.078.577-.13.868-.168l11.653-1.51c1.313-.17 3.79-.258 6.327-.267 2.537.009 5.014.097 6.326.267l11.652 1.51c.292.038.586.09.869.168 10.133 2.824 9.897 16.907 9.809 18.961-.008.155-.02.302-.038.456"/><path clip-path="url(#d)" fill="#5445A1" d="M307.578 401.495c-1.803 0-4.395-.205-8.247-.53-4.516-.381-10.134-.855-15.49-.893-5.098-.038-9.993.47-13.938.875-5.677.583-7.797.801-9.046-.404l-.163-.158-8.761-13.479c-.696-.874-1.112-3.699.289-31.418a4.288 4.288 0 0 0-.196-1.761l-2.281-6.839a8.002 8.002 0 0 1-.382-3.474c.634-5.531 4.417-10.295 9.873-12.433.229-.089.414-.176.57-.267l19.796-11.459a7.868 7.868 0 0 1 2.094-.859 20.628 20.628 0 0 1 3.015-.481l.086-.086.831-.003c.123 0 .245.005.366.01l.164.006.095-.006c.122-.005.243-.01.366-.01h.828l.089.089c1.032.089 2.042.25 3.013.481a7.878 7.878 0 0 1 2.098.859l19.794 11.459c.155.09.341.177.571.267 5.516 2.161 9.306 6.982 9.89 12.582a8.179 8.179 0 0 1-.272 3.091l-2.484 8.771a4.198 4.198 0 0 0-.141 1.526c1.426 26.416 1.008 29.096.307 29.958l-8.757 13.475-.163.158c-.704.68-1.735.953-3.814.953m-24.256-5.425l.545.002c5.514.038 11.218.52 15.801.906 3.586.304 7.609.643 9.018.479l8.2-12.618c.26-2.283-.212-14.645-.709-24.491l-1.205 10.037a7.999 7.999 0 0 1-.285 1.372l-2.03 6.797a8.22 8.22 0 0 1-2.046 3.439l-.561.564c-2.229 2.237-5.212 3.19-8.182 2.622-3.101-.597-5.749-2.823-7.085-5.957-.766-1.796-3.053-4.224-6.438-6.835a4.169 4.169 0 0 0-1.996-.847l-.099-.014-.126.007-.14-.008-.087.015c-.724.1-1.396.385-1.996.847-3.387 2.612-5.673 5.04-6.438 6.835-1.336 3.134-3.985 5.36-7.085 5.957-2.97.567-5.954-.383-8.181-2.621l-.562-.567a8.204 8.204 0 0 1-2.045-3.438l-2.031-6.799a8.245 8.245 0 0 1-.286-1.373l-1.261-10.521c-.529 11.298-.898 22.792-.649 24.981l8.168 12.568c1.085.063 3.657-.206 5.961-.443 3.905-.399 8.732-.896 13.83-.896m2.794-59.918c-2.612.009-4.94.104-6.062.25l-11.654 1.51a4.216 4.216 0 0 0-.585.111c-8.723 2.431-8.414 15.469-8.35 16.947.005.103.013.201.025.304l1.755 14.634c.029.238.078.473.146.702l2.031 6.8c.198.662.56 1.271 1.048 1.762l.564.567c1.291 1.297 2.92 1.835 4.589 1.514 1.818-.35 3.335-1.661 4.16-3.598 1.06-2.484 3.642-5.322 7.676-8.435a8.289 8.289 0 0 1 2.166-1.204v-.398l1.94-.113c.188-.004.37.007.556.021h.005c.185-.016.37-.028.555-.021l1.942.057v.455a8.252 8.252 0 0 1 2.164 1.205c4.033 3.11 6.616 5.947 7.677 8.434.825 1.937 2.341 3.248 4.16 3.598 1.668.318 3.299-.218 4.59-1.516l.562-.564c.488-.49.852-1.1 1.049-1.763l2.03-6.798c.069-.231.117-.466.147-.703l1.755-14.635c.011-.103.02-.201.024-.305.064-1.478.38-14.514-8.347-16.945a4.105 4.105 0 0 0-.591-.112l-11.651-1.51c-1.121-.147-3.449-.242-6.076-.251m0-4c1.37.005 4.726.042 6.591.283l11.652 1.51a8.17 8.17 0 0 1 1.151.227c9.42 2.624 11.026 13.45 11.253 18.51l2.015-7.117a4.21 4.21 0 0 0 .146-1.585c-.43-4.107-3.253-7.66-7.371-9.273a8.144 8.144 0 0 1-1.117-.53l-19.795-11.459a3.908 3.908 0 0 0-1.022-.431 16.977 16.977 0 0 0-3.094-.431l-.313-.017-.054.003-.157-.005-.279.019c-1.07.052-2.112.197-3.095.432a3.82 3.82 0 0 0-1.019.43l-19.797 11.459a8.093 8.093 0 0 1-1.118.531c-4.071 1.595-6.891 5.107-7.356 9.164-.065.556.006 1.16.203 1.751l1.987 5.959c.382-5.512 2.358-14.943 11.212-17.41.34-.095.715-.169 1.146-.226l11.656-1.51c1.865-.242 5.22-.279 6.575-.284M272.018 222.493a2.988 2.988 0 0 1-1.573-.447l-11.02-6.802a14.07 14.07 0 0 0-11.223-1.549l-16.356 4.682a3 3 0 1 1-1.65-5.768l16.355-4.681a20.065 20.065 0 0 1 16.026 2.211l11.02 6.801a3.001 3.001 0 0 1-1.579 5.553M296.126 222.493a3 3 0 0 1-1.578-5.553l11.019-6.801a20.067 20.067 0 0 1 16.027-2.211l16.354 4.681a3 3 0 0 1-1.649 5.768l-16.356-4.682a14.078 14.078 0 0 0-11.224 1.549l-11.02 6.802a2.997 2.997 0 0 1-1.573.447"/><path clip-path="url(#d)" fill="#FF1579" d="M200.854 229.493l16.537 19.435M217.392 251.428c-.707 0-1.41-.299-1.905-.88l-16.537-19.434a2.5 2.5 0 0 1 3.808-3.241l16.537 19.435a2.5 2.5 0 0 1-1.903 4.12M349.354 249.434l20.796-19.941M349.354 251.935a2.5 2.5 0 0 1-1.73-4.305l20.795-19.941a2.501 2.501 0 0 1 3.461 3.609l-20.796 19.942a2.489 2.489 0 0 1-1.73.695"/><path clip-path="url(#d)" fill="#CC126B" d="M272.048 264.773l-12.746 1.471a95.832 95.832 0 0 1-21.954 0l-12.746-1.471c-4.124-.477-7.211-3.611-7.211-7.323v-16.435c0-3.802 3.234-6.983 7.474-7.35l15.198-1.315a95.793 95.793 0 0 1 16.525 0l15.198 1.315c4.239.367 7.474 3.548 7.474 7.35v16.435c0 3.712-3.088 6.847-7.212 7.323"/><path clip-path="url(#d)" fill="#FF1579" d="M248.326 269.374c-3.763 0-7.526-.215-11.263-.646l-12.746-1.471c-5.374-.621-9.426-4.837-9.426-9.807v-16.435c0-5.128 4.196-9.359 9.76-9.84l15.196-1.316a98.398 98.398 0 0 1 16.958 0l15.198 1.317c5.562.48 9.758 4.711 9.758 9.839v16.435c0 4.97-4.052 9.186-9.425 9.807h-.001l-12.746 1.471a98.348 98.348 0 0 1-11.263.646m0-34.88a93.43 93.43 0 0 0-8.047.346l-15.197 1.316c-2.959.256-5.191 2.345-5.191 4.859v16.435c0 2.43 2.15 4.511 4.999 4.84l12.746 1.471a93.441 93.441 0 0 0 21.38 0l12.747-1.471h-.001c2.849-.329 4.999-2.41 4.999-4.84v-16.435c0-2.514-2.231-4.603-5.189-4.859l-15.199-1.316a93.413 93.413 0 0 0-8.047-.346"/><path clip-path="url(#d)" fill="#CC126B" d="M345.424 264.773l-12.746 1.471a95.824 95.824 0 0 1-21.953 0l-12.746-1.471c-4.124-.477-7.211-3.611-7.211-7.323v-16.435c0-3.802 3.233-6.983 7.474-7.35l15.198-1.315a95.782 95.782 0 0 1 16.524 0l15.198 1.315c4.239.367 7.474 3.548 7.474 7.35v16.435c0 3.712-3.088 6.847-7.212 7.323"/><path clip-path="url(#d)" fill="#FF1579" d="M321.701 269.374c-3.764 0-7.525-.215-11.264-.646l-12.745-1.471c-5.374-.621-9.426-4.837-9.426-9.807v-16.435c0-5.128 4.196-9.359 9.759-9.84l15.197-1.316a98.6 98.6 0 0 1 16.958 0l15.197 1.317c5.563.48 9.759 4.711 9.759 9.839v16.435c0 4.97-4.052 9.186-9.425 9.807h-.001l-12.746 1.471a98.296 98.296 0 0 1-11.263.646m0-34.88a93.43 93.43 0 0 0-8.047.346l-15.197 1.316c-2.959.256-5.19 2.345-5.19 4.859v16.435c0 2.43 2.15 4.511 4.999 4.84l12.745 1.471a93.45 93.45 0 0 0 21.381 0l12.746-1.471c2.849-.329 4.999-2.41 4.999-4.84v-16.435c0-2.514-2.232-4.603-5.19-4.858l-15.197-1.317a93.494 93.494 0 0 0-8.049-.346"/><path clip-path="url(#d)" fill="#A3115D" d="M256.065 248.641a4.916 4.916 0 1 1-9.834 0 4.916 4.916 0 1 1 9.834 0M323.389 248.928a5.205 5.205 0 1 1-10.41 0 5.205 5.205 0 0 1 10.41 0"/><path clip-path="url(#d)" fill="#FF1579" d="M280.26 247.928l10.508.506M290.769 250.935c-.041 0-.081-.001-.121-.003l-10.507-.507a2.5 2.5 0 0 1-2.377-2.617 2.495 2.495 0 0 1 2.617-2.377l10.507.507a2.499 2.499 0 0 1 2.377 2.617 2.502 2.502 0 0 1-2.496 2.38"/><path clip-path="url(#d)" fill="#5445A1" d="M276.09 347.201l.3-.057a51.727 51.727 0 0 1 19.095 0l.3.057"/><path clip-path="url(#d)" fill="#5445A1" d="M295.786 348.701c-.093 0-.187-.008-.279-.026l-.3-.057a49.991 49.991 0 0 0-18.54 0l-.299.057a1.5 1.5 0 1 1-.557-2.947l.3-.057a52.829 52.829 0 0 1 19.651 0l.3.057a1.499 1.499 0 0 1-.276 2.973"/><path clip-path="url(#d)" fill="#C5C5FF" d="M264.585 310.882l-.293.7c-1.361 3.258.522 6.938 4.013 7.844l3.414.884c1.068.277 6.347 4.614 6.347 4.614a5.408 5.408 0 0 0 2.949 1.954s5.83 1.021 8.488 0c0 0 2.222-.996 2.949-1.954 0 0 5.279-4.337 6.347-4.614l3.414-.884c3.49-.905 5.375-4.586 4.013-7.844l-.293-.7"/><path clip-path="url(#d)" fill="#5445A1" d="M286.055 329.328c-2.527 0-4.973-.408-5.383-.48l-.16-.034a7.445 7.445 0 0 1-3.881-2.48c-2.147-1.756-4.785-3.761-5.502-4.11l-3.325-.861a7.962 7.962 0 0 1-5.148-4.149 7.707 7.707 0 0 1-.209-6.401l.294-.7a2 2 0 0 1 3.689 1.543l-.293.701a3.658 3.658 0 0 0 .102 3.078 3.955 3.955 0 0 0 2.569 2.056l3.414.885c.369.096 1.494.388 7.115 5.006l.181.149.143.187a3.409 3.409 0 0 0 1.787 1.208c2.184.37 5.807.64 7.292.105.879-.402 1.898-1.034 2.122-1.315l.322-.334c5.619-4.618 6.745-4.91 7.115-5.006l3.413-.884a3.965 3.965 0 0 0 2.569-2.057 3.66 3.66 0 0 0 .1-3.079l-.292-.7a1.999 1.999 0 1 1 3.69-1.543l.293.7a7.711 7.711 0 0 1-.208 6.401 7.965 7.965 0 0 1-5.149 4.149l-3.324.861c-.719.351-3.371 2.366-5.521 4.127-1.026 1.165-2.954 2.087-3.548 2.354l-.103.042c-1.145.439-2.67.581-4.164.581m-14.849-7.086a.093.093 0 0 1 .013.004l-.013-.004zm28.111-.001l-.016.004a.062.062 0 0 0 .016-.004"/><path clip-path="url(#d)" fill="#FFF" d="M235.161 275.818c.517 3.306-3.684 6.71-9.385 7.602-5.701.893-10.741-1.064-11.259-4.371-.517-3.307 3.685-6.71 9.385-7.602 5.701-.892 10.742 1.066 11.259 4.371"/></g></svg>