<svg xmlns="http://www.w3.org/2000/svg" xmlns:xlink="http://www.w3.org/1999/xlink" width="566" height="526" viewBox="0 0 566 526"><defs><path id="a" d="M0 0h566v526H0z"/></defs><clipPath id="b"><use xlink:href="#a" overflow="visible"/></clipPath><path clip-path="url(#b)" fill="#E6E6E6" d="M484.637 310.734c0 111.361-90.275 201.637-201.637 201.637S81.363 422.096 81.363 310.734c0-111.361 90.276-201.637 201.637-201.637s201.637 90.277 201.637 201.637"/><path clip-path="url(#b)" fill="#00B7B2" d="M364.563 214.727c0 53.199-37.328 96.326-83.373 96.326-46.046 0-83.374-43.127-83.374-96.326 0-53.199 37.328-96.326 83.374-96.326 46.045 0 83.373 43.127 83.373 96.326"/><path clip-path="url(#b)" fill="#00D6DB" d="M279.627 313.553c-47.351 0-85.874-44.333-85.874-98.826 0-54.492 38.523-98.825 85.874-98.825s85.873 44.333 85.873 98.825c0 54.493-38.521 98.826-85.873 98.826m0-192.652c-44.594 0-80.874 42.09-80.874 93.825 0 51.737 36.28 93.826 80.874 93.826 44.594 0 80.873-42.089 80.873-93.826 0-51.734-36.278-93.825-80.873-93.825"/><path clip-path="url(#b)" fill="#C5C5FF" d="M324.65 384.136l3.77-21.75h-97.333l3.769 21.75a154.87 154.87 0 0 1-.644 56.381v.002a21.36 21.36 0 0 0 11.299 23.179 75.745 75.745 0 0 0 68.484 0 21.36 21.36 0 0 0 11.3-23.179 154.88 154.88 0 0 1-.645-56.383"/><path clip-path="url(#b)" fill="#5445A1" d="M279.752 474.347c-12.149 0-24.297-2.807-35.371-8.42-9.488-4.808-14.678-15.455-12.622-25.891a151.834 151.834 0 0 0 .634-55.475l-4.277-24.676H331.39l-4.277 24.677a151.823 151.823 0 0 0 .634 55.473c2.056 10.437-3.135 21.084-12.622 25.892-11.074 5.612-23.224 8.42-35.373 8.42m-45.695-109.461l3.263 18.822a156.79 156.79 0 0 1-.656 57.292c-1.625 8.251 2.478 16.666 9.976 20.466 20.735 10.51 45.492 10.509 66.225.001 7.499-3.801 11.601-12.216 9.976-20.464a156.822 156.822 0 0 1-.654-57.294l3.263-18.823h-91.393z"/><path clip-path="url(#b)" fill="#00B7B2" d="M319.001 154.954l9.129-4.109c10.637-4.787 14.81-17.715 8.98-27.819l-1.39-2.41a47.263 47.263 0 0 0-28.23-21.903h-.001a93.459 93.459 0 0 0-55.472 1.623l-4.946 1.698a94.045 94.045 0 0 0-60.441 65.13l-3.44 13.143a44.882 44.882 0 0 0 1.602 27.669l2.631 6.751.679-5.582a28.177 28.177 0 0 1 21.805-24.097l105.611-5.647 3.483-24.447z"/><path clip-path="url(#b)" fill="#00D6DB" d="M188.707 224.901l-6.243-16.017c-3.655-9.374-4.24-19.476-1.691-29.21l3.44-13.143c8.206-31.345 31.401-56.34 62.048-66.861l4.946-1.697c18.459-6.339 38.155-6.915 56.955-1.667 12.62 3.522 23.177 11.712 29.726 23.061l1.39 2.41a22.243 22.243 0 0 1 1.897 17.92 22.246 22.246 0 0 1-12.019 13.428l-7.874 3.544-3.578 25.119-107.448 5.745c-10.479 2.439-18.373 11.22-19.671 21.914l-1.878 15.454zM282.34 97.755a90.771 90.771 0 0 0-29.51 4.946l-4.947 1.698c-29.059 9.976-51.053 33.676-58.834 63.398l-3.44 13.143c-2.088 7.975-1.826 16.224.746 23.998 2.832-11.048 11.673-19.787 23.005-22.329l.414-.057 103.559-5.537 3.387-23.776 10.384-4.672a17.247 17.247 0 0 0 9.313-10.406c1.491-4.62.955-9.68-1.471-13.885l-1.39-2.411c-5.891-10.208-15.386-17.575-26.737-20.743a90.994 90.994 0 0 0-24.479-3.367"/><path clip-path="url(#b)" fill="#C5C5FF" d="M364.814 284.494c-4.578 9.733-10.823 16.91-17.02 20.412-5.273 2.98-10.51 3.3-14.656.268-9.018-6.597-9.457-26.548-.98-44.564 8.476-18.016 22.657-27.274 31.676-20.679 9.018 6.595 9.457 26.548.98 44.563"/><path clip-path="url(#b)" fill="#5445A1" d="M339.675 309.811c-2.906 0-5.623-.873-8.012-2.62-10.089-7.379-10.865-28.307-1.768-47.646 5.943-12.633 14.687-21.5 23.389-23.719 4.448-1.136 8.608-.414 12.026 2.087 10.089 7.379 10.865 28.308 1.767 47.646-4.611 9.802-11.191 17.646-18.052 21.524-3.216 1.819-6.382 2.728-9.35 2.728m17.613-69.508c-.884 0-1.808.123-2.768.368-7.163 1.827-14.864 9.875-20.101 21.003-7.843 16.671-7.755 35.667.195 41.482 4.034 2.948 8.725 1.396 11.95-.427 5.979-3.38 11.807-10.414 15.987-19.3 7.844-16.671 7.756-35.667-.194-41.481-1.496-1.095-3.194-1.645-5.069-1.645"/><path clip-path="url(#b)" fill="#C5C5FF" d="M194.439 284.494c4.579 9.733 10.824 16.91 17.02 20.412 5.273 2.98 10.51 3.3 14.656.268 9.018-6.597 9.457-26.548.981-44.564-8.476-18.016-22.658-27.274-31.676-20.679-9.017 6.595-9.457 26.548-.981 44.563"/><path clip-path="url(#b)" fill="#5445A1" d="M219.58 309.811c-2.967.001-6.133-.908-9.35-2.728-6.861-3.878-13.441-11.723-18.052-21.524-9.099-19.338-8.322-40.267 1.767-47.646 3.418-2.501 7.575-3.224 12.026-2.087 8.702 2.219 17.445 11.086 23.389 23.719 9.097 19.339 8.321 40.267-1.768 47.646a13.345 13.345 0 0 1-8.012 2.62m-17.614-69.508c-1.875 0-3.572.55-5.07 1.646-7.95 5.814-8.038 24.81-.195 41.481 4.181 8.886 10.008 15.92 15.988 19.3 3.225 1.823 7.915 3.376 11.951.427 7.949-5.815 8.037-24.812.194-41.482-5.236-11.128-12.937-19.176-20.1-21.003a11.146 11.146 0 0 0-2.768-.369"/><path clip-path="url(#b)" fill="#00D6DB" d="M292.009 401.553h-24.645a14.31 14.31 0 0 1-9.685-3.772l-29.715-27.228c-5.269-4.454-9.083-10.696-10.695-17.546l-17.09-31.477.003-.641c.003-.502.237-50.243.073-57.01-.32-13.229.409-26.407 2.163-39.164l2.722-29.278c1.98-21.297 17.375-38.549 38.309-42.931l.394-.082 16.418 1.854a191.827 191.827 0 0 0 39.655.352l16.472-1.563.391.088a48.387 48.387 0 0 1 37.499 42.407l3.438 34.267c.331 2.865.589 5.438.785 7.829l-2.49.217 2.491-.203c.708 8.629.96 17.447.748 26.206a246.302 246.302 0 0 1-1.331 20.278l-1.439 41.78-14.376 27.058c-1.609 6.853-5.426 13.101-10.771 17.622l-29.639 27.161a14.297 14.297 0 0 1-9.685 3.776m-86.824-81.282l16.808 30.956.076.341c1.327 5.929 4.594 11.338 9.199 15.233l29.789 27.291a9.313 9.313 0 0 0 6.307 2.46h24.645a9.327 9.327 0 0 0 6.309-2.46l29.712-27.226a28.166 28.166 0 0 0 9.271-15.299l.073-.329 14.148-26.627 1.416-40.899c.71-6.587 1.152-13.3 1.313-19.954a243.632 243.632 0 0 0-.732-25.676 235.265 235.265 0 0 0-.774-7.716l-3.443-34.303a43.386 43.386 0 0 0-33.243-37.941l-15.67 1.487a197.2 197.2 0 0 1-40.688-.362l-15.614-1.763c-18.576 4.059-32.205 19.449-33.967 38.416l-2.74 29.443c-1.724 12.509-2.439 25.434-2.125 38.415.156 6.498-.042 50.393-.07 56.513"/><path clip-path="url(#b)" fill="#C5C5FF" d="M356.011 237.877l-.001-.014c-.215-2.62-.484-5.21-.781-7.783l-3.438-34.267c-1.974-19.659-16.294-35.854-35.563-40.218l-16.074 1.525a194.307 194.307 0 0 1-40.172-.358l-16.019-1.808c-19.732 4.129-34.466 20.641-36.332 40.714l-2.726 29.333c-1.71 12.401-2.472 25.432-2.149 38.818.166 6.88-.073 57.082-.073 57.082l16.948 31.213a30.464 30.464 0 0 0 10.023 16.597l29.715 27.226a11.843 11.843 0 0 0 7.996 3.116h24.645c2.955 0 5.809-1.112 7.997-3.116l29.713-27.226a30.455 30.455 0 0 0 10.021-16.597l14.261-26.839 1.423-41.294a245.064 245.064 0 0 0 .586-46.104"/><path clip-path="url(#b)" fill="#5445A1" d="M246.771 261.939a5.205 5.205 0 1 1-10.41 0 5.205 5.205 0 0 1 10.41 0M323.519 261.939a5.205 5.205 0 1 1-10.41 0 5.205 5.205 0 0 1 10.41 0"/><path clip-path="url(#b)" fill="#00D6DB" d="M310.313 155.627c-.263 0-.531-.05-.789-.155-1.014-.415-1.482-1.534-1.047-2.499 5.964-13.205 1.66-28.415-10.467-36.988l-8.703-6.154c-.887-.627-1.071-1.819-.412-2.662.66-.844 1.913-1.016 2.798-.392l8.704 6.154c13.62 9.629 18.454 26.713 11.754 41.543-.325.721-1.062 1.153-1.838 1.153M186.794 207.976l-.096-.002a2 2 0 0 1-1.903-2.092c1.228-26.076 8.695-43.668 22.193-52.286 17.664-11.279 38.836-2.858 39.729-2.493a2 2 0 1 1-1.511 3.703c-.296-.119-20.232-7.97-36.092 2.178-12.323 7.886-19.161 24.4-20.324 49.086a2 2 0 0 1-1.996 1.906"/><path clip-path="url(#b)" fill="#5445A1" d="M284.681 333.437h-12.417c-7.802 0-15.565-1.528-22.451-4.422l-.094-.04a2 2 0 1 1 1.563-3.682l.087.038c6.393 2.685 13.621 4.105 20.895 4.105h12.417c8.864 0 17.422-2.05 24.745-5.929a2 2 0 0 1 1.871 3.535c-7.897 4.184-17.101 6.395-26.616 6.395"/><path clip-path="url(#b)" fill="#00D6DB" d="M295.745 400.553h-31.602c-8.176 0-16.128-3.169-21.818-8.694l-.092-.099-19.502-22.68c-13.468-13.088-19.837-24.273-21.978-38.593-2.305-15.407-2.03-36.012.891-66.81l1.106-13.193 1.725 25.877c-.284 21.944 8.135 43.034 23.715 59.407.862.496 1.786.346 2.384.025.331-.18 1.103-.706 1.103-1.749 0-7.208 1.711-14.472 4.948-21.005l.318-.643c2.188-4.417 7.547-6.649 12.464-5.19l4.842 1.437c16.593 4.926 34.577 4.179 50.642-2.104l5.468-2.138c4.355-1.705 9.33-.372 12.1 3.236l1.37 1.786c3.969 5.168 5.729 11.504 4.957 17.843l-.479 3.932c-.135 1.88.154 3.19.804 3.522 1.311.676 4.731-1.226 5.928-2.198.167-.165.346-.256.447-.307 1.471-.751 9.002-5.132 12.704-17.649 5.682-19.208 8.13-61.685 8.143-61.998l1.911 11.109c2.921 30.796 3.196 51.4.892 66.81-2.142 14.319-8.511 25.505-21.979 38.593l-19.594 22.778c-5.691 5.526-13.643 8.695-21.818 8.695m-51.282-10.8c5.132 4.958 12.301 7.8 19.68 7.8h31.602c7.379 0 14.548-2.842 19.681-7.8l19.594-22.778c12.984-12.607 19.112-23.306 21.149-36.93 1.737-11.621 1.95-26.889.617-47.256-1.074 10.333-2.858 22.957-5.719 32.63-4.05 13.69-12.554 18.619-14.218 19.468l-.008-.015c-1.474 1.184-5.554 3.763-8.553 2.749-1.539-.52-3.303-2.105-2.967-6.714l.486-4.004c.676-5.553-.872-11.112-4.359-15.652l-1.37-1.786c-1.963-2.557-5.512-3.49-8.627-2.27l-5.468 2.139c-16.682 6.523-35.357 7.301-52.589 2.187l-4.841-1.436c-3.536-1.052-7.373.517-8.923 3.645l-.318.643c-3.033 6.121-4.636 12.925-4.636 19.673 0 1.845-1.003 3.486-2.681 4.39a5.442 5.442 0 0 1-5.586-.241l-.259-.216c-12.587-13.174-20.685-29.324-23.536-46.559-.751 16.135-.379 28.71 1.104 38.626 2.038 13.624 8.165 24.322 21.15 36.93l.092.099 19.503 22.678zm36.164-24.126c-11.949 0-24.425-11.16-32.788-20.522-6.662-7.458-8.198-17.828-3.913-26.418v-.001c.098-.194.196-.387.297-.58 1.022-1.962 3.386-2.984 5.622-2.434l9.406 2.32a78.32 78.32 0 0 0 41.207-.999l10.777-3.227c2.808-.843 5.81.278 7.3 2.718a15.665 15.665 0 0 1 2.313 8.688c.049 1.327.415 17.84-10.709 29.466-6.976 7.291-16.906 10.989-29.512 10.989m-34.017-45.6c-3.733 7.483-2.372 16.543 3.467 23.079 6.512 7.29 19.14 19.521 30.55 19.521 11.745 0 20.939-3.38 27.327-10.045 10.465-10.918 9.901-27.18 9.895-27.343l-.002-.059.002-.06a12.665 12.665 0 0 0-1.874-7.072c-.769-1.261-2.4-1.857-3.879-1.408l-10.776 3.226a81.315 81.315 0 0 1-42.787 1.038l-9.406-2.32c-.895-.22-1.858.17-2.243.907-.093.18-.185.358-.274.536"/><path clip-path="url(#b)" fill="#00B7B2" d="M356.751 263.82s-1.32 31.558-7.122 51.173c-4.275 14.45-13.498 18.549-13.525 18.592-.104.161-10.026 7.588-9.284-2.568l.478-3.932c.722-5.932-.938-11.904-4.657-16.748l-1.371-1.786c-2.353-3.065-6.646-4.206-10.362-2.753l-5.469 2.138c-16.396 6.412-34.68 7.173-51.615 2.147l-4.842-1.437c-4.241-1.259-8.818.633-10.693 4.418l-.319.643c-3.156 6.37-4.791 13.312-4.791 20.338 0 2.867-3.442 4.545-5.942 2.897-15.891-16.635-24.55-38.262-24.26-60.601l.162-12.521c-2.856 30.11-3.197 51.096-.902 66.445 2.34 15.642 9.892 26.43 21.588 37.785l19.547 22.732c5.443 5.285 12.94 8.27 20.772 8.27h31.603c7.832 0 15.329-2.984 20.771-8.27l19.547-22.732c11.696-11.355 19.248-22.144 21.589-37.785 2.294-15.349 1.952-36.334-.903-66.445m-111.482 55.537a36.6 36.6 0 0 1 .284-.559c.712-1.365 2.367-2.058 3.933-1.672l9.406 2.322a79.957 79.957 0 0 0 41.997-1.02l10.776-3.227c2.147-.644 4.469.227 5.59 2.063a14.173 14.173 0 0 1 2.092 7.909s1.722 38.952-38.72 38.952c-11.619 0-24.03-11.47-31.668-20.021-6.165-6.9-7.759-16.591-3.69-24.747"/><path clip-path="url(#b)" fill="#00B7B2" d="M279.478 343.516h4.693c2.957 0 4.824 2.702 3.385 4.897l-1.339 2.045c-1.867 2.85-6.665 2.906-8.625.103l-1.445-2.066c-1.535-2.197.326-4.979 3.331-4.979"/><path clip-path="url(#b)" fill="#00D6DB" d="M281.866 353.629c-2.099 0-3.997-.927-5.094-2.495l-1.444-2.067c-.858-1.228-.964-2.739-.283-4.047.805-1.545 2.503-2.504 4.433-2.504h4.693c1.9 0 3.588.938 4.405 2.449.688 1.276.621 2.77-.184 3.996l-1.34 2.045c-1.055 1.611-2.954 2.591-5.08 2.623h-.106zm-2.388-9.113c-1.412 0-2.3.737-2.66 1.428-.196.379-.439 1.137.149 1.977l1.445 2.068c.733 1.049 2.02 1.629 3.531 1.641 1.461-.022 2.747-.665 3.437-1.718l1.34-2.045c.406-.621.441-1.313.097-1.95-.467-.864-1.48-1.4-2.646-1.4h-4.693z"/><path clip-path="url(#b)" fill="#5445A1" d="M216.234 235.095a3 3 0 0 1-2.102-5.141l4.072-3.997c8.253-8.101 21.206-12.448 34.649-11.624l11.425.7a3 3 0 0 1-.367 5.989l-11.426-.7c-11.775-.725-23.018 2.986-30.078 9.917l-4.071 3.997a2.99 2.99 0 0 1-2.102.859M345.35 235.095a2.992 2.992 0 0 1-2.102-.859l-4.071-3.997c-7.06-6.931-18.306-10.64-30.078-9.917l-11.426.7a2.993 2.993 0 0 1-3.177-2.811 2.998 2.998 0 0 1 2.81-3.178l11.426-.7c13.449-.823 26.396 3.522 34.648 11.624l4.072 3.997a3 3 0 0 1-2.102 5.141"/><path clip-path="url(#b)" fill="#C5C5FF" d="M270.58 292.149c-.914 2.378-3.496 3.729-6.038 3.159-2.374-.531-4.793.692-5.712 2.889l-.292.701c-1.362 3.257.522 6.938 4.013 7.843l3.414.884c1.067.277 6.346 4.615 6.346 4.615a5.412 5.412 0 0 0 2.95 1.953s5.829 1.021 8.487 0c0 0 2.223-.996 2.95-1.953 0 0 5.279-4.338 6.347-4.615l3.414-.884c3.49-.905 5.374-4.586 4.014-7.843l-.293-.701c-.919-2.196-3.339-3.42-5.713-2.889-2.542.57-5.124-.781-6.037-3.159"/><path clip-path="url(#b)" fill="#5445A1" d="M280.256 316.14c-2.471 0-4.853-.397-5.253-.469l-.119-.025a6.939 6.939 0 0 1-3.651-2.352c-2.268-1.856-5.056-3.976-5.707-4.236l-3.351-.864a7.458 7.458 0 0 1-4.826-3.89 7.205 7.205 0 0 1-.195-5.984l.293-.7c1.203-2.88 4.323-4.468 7.424-3.774 1.812.404 3.664-.554 4.309-2.234a1.501 1.501 0 0 1 2.801 1.076c-1.176 3.059-4.517 4.813-7.767 4.086-1.674-.381-3.357.469-3.999 2.003l-.293.701a4.15 4.15 0 0 0 .114 3.494 4.456 4.456 0 0 0 2.891 2.318l3.414.884c1.147.297 4.398 2.833 6.923 4.907l.242.252a3.919 3.919 0 0 0 2.077 1.395c2.113.363 5.995.694 7.628.066.83-.376 1.999-1.073 2.293-1.461l.242-.252c2.525-2.074 5.776-4.61 6.923-4.907l3.414-.884a4.454 4.454 0 0 0 2.89-2.318 4.141 4.141 0 0 0 .115-3.495l-.293-.7c-.642-1.535-2.323-2.38-3.999-2.003-3.253.734-6.592-1.027-7.767-4.086a1.5 1.5 0 1 1 2.8-1.076c.645 1.681 2.501 2.64 4.309 2.234 3.102-.693 6.221.894 7.424 3.774l.294.7a7.211 7.211 0 0 1-.195 5.985 7.461 7.461 0 0 1-4.826 3.889l-3.414.885c-.59.241-3.387 2.368-5.656 4.227-.975 1.133-2.991 2.073-3.402 2.258-1.134.434-2.636.576-4.107.576M284.681 345.016l-6.616-.012-7.987-1a1.5 1.5 0 0 1 .374-2.977l7.893.988h6.336c2.954 0 5.922-.23 8.821-.688a1.498 1.498 0 1 1 .468 2.962c-3.055.482-6.18.727-9.289.727"/><path clip-path="url(#b)" fill="#00D6DB" d="M239.25 151.346l2.531-1.82s20.591 5.184 26.843 5.511c6.252.327-23.624-1.636-23.624-1.636l-5.75-2.055z"/><path clip-path="url(#b)" fill="#5445A1" d="M204.049 254.329c2.664 2.574 2.93 10.117 2.93 10.117 2.751 21.483 12.871 26.72 29.292 26.72 16.423 0 20.062-3.639 24.766-7.369 4.705-3.726 8.346-16.953 9.854-21.658 1.509-4.704 8.61-5.149 8.61-5.149s7.102.445 8.611 5.149c1.508 4.705 5.148 17.932 9.853 21.658 4.704 3.73 8.344 7.369 24.767 7.369s26.54-5.236 29.293-26.72c0 0 .265-7.543 2.928-10.117 2.665-2.575 3.996-2.575 3.996-4.705 0-2.131 3.816-5.504-6.924-6.304-10.742-.798-15.978-1.951-27.429-1.951-11.452 0-29.604.133-32.666 3.195-3.063 3.062-6.747 3.994-13.14 3.994-6.39 0-8.653-.932-11.715-3.994-3.063-3.062-21.216-3.195-32.667-3.195-11.45 0-16.69 1.153-27.429 1.951-10.741.8-6.924 4.173-6.924 6.304 0 2.13 1.332 2.13 3.994 4.705m96.668-6.658c9.853-3.018 33.996-3.995 44.648-.444 0 0 4.352 1.154 4.262 7.189-.088 6.037-2.485 19.174-4.262 22.992-1.775 3.816-3.461 10.829-23.079 11.362-19.617.531-26.273-9.854-28.404-19.264-2.131-9.408-3.019-18.817 6.835-21.835m-86.549-.444c10.654-3.551 34.797-2.574 44.651.444 9.853 3.018 8.964 12.427 6.836 21.836-2.131 9.41-8.788 19.795-28.407 19.264-19.616-.533-21.303-7.546-23.08-11.362-1.776-3.818-4.171-16.955-4.26-22.992-.088-6.036 4.26-7.19 4.26-7.19"/></svg>