<svg xmlns="http://www.w3.org/2000/svg" xmlns:xlink="http://www.w3.org/1999/xlink" width="566" height="526" viewBox="0 0 566 526"><defs><path id="a" d="M0 0h566v526H0z"/></defs><clipPath id="b"><use xlink:href="#a" overflow="visible"/></clipPath><path clip-path="url(#b)" fill="#E6E6E6" d="M486.855 310.012c0 111.361-90.275 201.638-201.637 201.638S83.582 421.373 83.582 310.012c0-111.36 90.276-201.637 201.637-201.637s201.636 90.276 201.636 201.637"/><path clip-path="url(#b)" fill="#FEB300" d="M355.264 128.987v-27.308l-7 6-8.5-19-5.368 13-25.049-4.656a88.2 88.2 0 0 0-25.481-3.746c-50.407 0-91.27 42.393-91.27 94.688s40.862 94.688 91.27 94.688c50.405 0 91.268-42.393 91.268-94.688-.001-22.301-7.436-42.798-19.87-58.978"/><path clip-path="url(#b)" fill="#5445A1" d="M283.864 285.152c-51.704 0-93.769-43.598-93.769-97.187 0-53.59 42.065-97.188 93.769-97.188a90.803 90.803 0 0 1 26.073 3.812l22.922 4.261 6.813-16.5 9.506 21.251 8.585-7.358v31.899c13.003 17.222 19.87 37.887 19.87 59.823.001 53.59-42.065 97.187-93.769 97.187m0-189.374c-48.947 0-88.769 41.355-88.769 92.188 0 50.832 39.822 92.187 88.769 92.187s88.77-41.354 88.77-92.187c0-21.113-6.692-40.981-19.353-57.456l-.518-.673v-22.722l-5.415 4.642-7.493-16.75-3.923 9.5-27.307-5.09a85.828 85.828 0 0 0-24.761-3.639"/><path clip-path="url(#b)" fill="#C5C5FF" d="M375.052 267.563c-4.578 10.365-10.823 18.008-17.02 21.737-5.273 3.174-10.51 3.513-14.656.284-9.018-7.024-9.457-28.271-.98-47.458 8.476-19.185 22.657-29.045 31.676-22.021 9.017 7.024 9.456 28.271.98 47.458"/><path clip-path="url(#b)" fill="#5445A1" d="M349.91 294.366c-2.929 0-5.664-.936-8.07-2.81-10.02-7.805-10.78-29.959-1.731-50.44 5.929-13.418 15.005-23.112 23.688-25.296 4.371-1.098 8.455-.299 11.811 2.313 10.02 7.803 10.78 29.959 1.731 50.439v.001c-4.6 10.41-11.166 18.746-18.019 22.869-3.237 1.95-6.424 2.924-9.41 2.924m17.608-74.024c-.802 0-1.636.108-2.5.326-7.114 1.79-15.096 10.611-20.336 22.47-7.892 17.862-7.787 38.228.23 44.473 3.99 3.108 8.637 1.469 11.83-.453 5.99-3.605 11.83-11.116 16.023-20.606v.001c7.892-17.863 7.786-38.231-.229-44.475-1.484-1.156-3.165-1.736-5.018-1.736"/><path clip-path="url(#b)" fill="#C5C5FF" d="M191.677 267.563c4.579 10.365 10.824 18.008 17.02 21.737 5.273 3.174 10.51 3.513 14.656.284 9.018-7.024 9.457-28.271.981-47.458-8.476-19.185-22.658-29.045-31.676-22.021s-9.457 28.271-.981 47.458"/><path clip-path="url(#b)" fill="#5445A1" d="M216.819 294.366c-2.987 0-6.173-.975-9.412-2.924-6.851-4.124-13.418-12.459-18.017-22.869-9.049-20.481-8.288-42.636 1.731-50.44 3.356-2.613 7.44-3.412 11.811-2.313 8.683 2.185 17.76 11.878 23.688 25.297 9.049 20.48 8.288 42.635-1.731 50.439-2.406 1.875-5.141 2.81-8.07 2.81m-22.856-27.814c4.193 9.49 10.033 17.001 16.022 20.606 3.195 1.922 7.838 3.561 11.832.453 8.017-6.244 8.122-26.61.229-44.473-5.239-11.859-13.221-20.68-20.334-22.47-2.864-.72-5.394-.246-7.519 1.41-8.017 6.244-8.122 26.611-.23 44.474"/><path clip-path="url(#b)" fill="#C5C5FF" d="M328.887 358.928l3.771-21.75h-97.334l3.769 21.75a154.87 154.87 0 0 1-.644 56.381v.002a21.357 21.357 0 0 0 11.299 23.178 75.739 75.739 0 0 0 68.484 0 21.36 21.36 0 0 0 11.3-23.178 154.88 154.88 0 0 1-.645-56.383"/><path clip-path="url(#b)" fill="#5445A1" d="M283.99 449.139c-12.148 0-24.298-2.808-35.373-8.421-9.487-4.808-14.677-15.454-12.621-25.891a151.802 151.802 0 0 0 .633-55.473l-4.276-24.678h103.274l-4.277 24.678a151.802 151.802 0 0 0 .634 55.473c2.056 10.437-3.135 21.083-12.622 25.891-11.073 5.613-23.222 8.421-35.372 8.421m-45.696-109.462l3.262 18.823a156.762 156.762 0 0 1-.655 57.291c-1.625 8.251 2.478 16.667 9.977 20.468 20.733 10.509 45.49 10.509 66.224 0 7.498-3.801 11.601-12.217 9.976-20.465a156.845 156.845 0 0 1-.654-57.294l3.263-18.823h-91.393z"/><path clip-path="url(#b)" fill="#C5C5FF" d="M335.813 136.179l-12.169 2.149a31.465 31.465 0 0 0-15.077 7.149c-1.667 1.438-3.346 2.66-5.034 3.034v.002l-25.062 6.718a75.384 75.384 0 0 0-25.94 12.652l-2.484 1.878 2.996-16.061c-7.708 0-15.017 3.332-19.952 9.096l-8.879 10.371v-21.414l-8.5 13.627a36.933 36.933 0 0 1-3.321-12.487c-12.481 27.455-11.505 80.027-11.544 89.565-.026 6.373 1.304 18.765 1.304 18.765l14.864 65.51c1.456 6.421 5.25 12.216 10.78 16.466l22.249 18.544 10.705 8.921c2.454 2.045 5.669 3.18 9.007 3.18H298.221c3.338 0 6.553-1.135 9.007-3.18l32.954-27.465c5.53-4.25 9.324-10.045 10.78-16.466l14.864-65.51s1.33-12.392 1.304-18.765c-.05-13.023 1.793-106.279-31.317-106.279"/><path clip-path="url(#b)" fill="#5445A1" d="M298.225 376.344h-28.468c-3.931 0-7.698-1.335-10.607-3.759l-32.954-27.464c-5.886-4.522-10.04-10.877-11.618-17.834l-14.896-65.653-.016-.144c-.054-.512-1.344-12.604-1.318-19.041.003-.61.001-1.397-.001-2.341-.09-41.184 3.87-70.874 11.769-88.249l3.955-8.7.812 9.521a34.509 34.509 0 0 0 1.365 7.12l10.465-16.778v23.381l4.48-5.233c5.425-6.336 13.389-9.97 21.851-9.97h3.009l-2.382 12.774c7.331-5.074 15.442-8.822 24.154-11.158l23.639-6.337.018-.072 1.511-.336c1.266-.28 2.771-1.477 3.942-2.486a33.947 33.947 0 0 1 16.275-7.718l12.604-2.188c5.313 0 10.1 2.097 14.227 6.234 13.116 13.144 19.71 46.852 19.595 100.187-.003.948-.004 1.737-.002 2.349.027 6.437-1.264 18.529-1.319 19.041l-.047.286-14.864 65.51c-1.578 6.958-5.73 13.313-11.694 17.896l-32.877 27.403c-2.91 2.424-6.678 3.759-10.608 3.759m-93.602-115.53l14.831 65.366c1.321 5.823 4.825 11.163 9.866 15.037l33.031 27.527c2.012 1.676 4.642 2.6 7.406 2.6h28.468c2.764 0 5.393-.924 7.405-2.599l32.954-27.466c5.119-3.937 8.622-9.276 9.942-15.1l14.831-65.366c.146-1.392 1.299-12.547 1.275-18.346-.002-.619-.001-1.418.002-2.379.139-64.718-9.784-88.277-18.134-96.645-3.144-3.15-6.572-4.709-10.477-4.764l-11.944 2.111a28.935 28.935 0 0 0-13.878 6.579c-1.327 1.144-2.864 2.35-4.576 3.078l-.024.097-.931.25a7.582 7.582 0 0 1-.486.131l-.005.002-25.06 6.718c-9.149 2.452-17.587 6.567-25.08 12.231l-7.633 5.771 3.592-19.258c-5.837.736-11.189 3.572-15.008 8.032l-13.278 15.51v-19.447l-6.318 10.13-1.948-4.179a39.124 39.124 0 0 1-1.802-4.601c-5.585 17.321-8.374 43.578-8.298 78.261.002.958.004 1.755.001 2.372-.022 5.803 1.13 16.954 1.276 18.347"/><path clip-path="url(#b)" fill="#5445A1" d="M286.012 291.576a2 2 0 0 1-.097-3.998c1.562-.075 3.951-.684 5.545-2.142 1.194-1.093 2.682-1.66 4.165-1.591a5.48 5.48 0 0 1 1.972.463l.54.14a5.858 5.858 0 0 0 3.485-.175c1.36-.498 2.23-1.915 2.117-3.446a1.999 1.999 0 0 1 1.846-2.143c1.104-.094 2.06.744 2.143 1.846.247 3.306-1.697 6.39-4.729 7.499a9.815 9.815 0 0 1-5.858.292l-1.088-.319a1.503 1.503 0 0 0-.604-.16c-.551-.016-1 .284-1.288.546-2.992 2.737-6.917 3.131-8.048 3.187l-.101.001"/><path clip-path="url(#b)" fill="#5445A1" d="M285.42 291.576l-.1-.002c-1.131-.056-5.056-.449-8.048-3.186-.288-.263-.727-.578-1.285-.547a1.52 1.52 0 0 0-.608.16l-.374.137-.714.183a9.828 9.828 0 0 1-5.859-.292c-3.029-1.108-4.974-4.192-4.728-7.499a1.988 1.988 0 0 1 2.143-1.846 2 2 0 0 1 1.846 2.143c-.114 1.531.756 2.948 2.116 3.446a5.845 5.845 0 0 0 3.486.175l.54-.14a5.48 5.48 0 0 1 1.975-.463c1.479-.071 2.968.498 4.163 1.592 1.593 1.457 3.982 2.065 5.544 2.141a2 2 0 0 1-.097 3.998M260.008 231.613c0 2.781-2.33 5.035-5.205 5.035-2.874 0-5.204-2.254-5.204-5.035s2.33-5.035 5.204-5.035c2.875.001 5.205 2.255 5.205 5.035M319.756 231.613c0 2.781-2.33 5.035-5.205 5.035-2.874 0-5.204-2.254-5.204-5.035s2.33-5.035 5.204-5.035c2.875.001 5.205 2.255 5.205 5.035M234.679 208.276l.648-.396c7.692-4.702 16.479-7.463 25.559-8.032l9.624-.603"/><path clip-path="url(#b)" fill="#5445A1" d="M234.683 212.277a3.999 3.999 0 0 1-2.088-7.415l.648-.396c8.22-5.025 17.693-8.002 27.393-8.61l9.624-.602a3.997 3.997 0 0 1 4.242 3.742 3.999 3.999 0 0 1-3.742 4.242l-9.624.602c-8.404.527-16.607 3.104-23.723 7.454l-.65.396c-.65.398-1.37.587-2.08.587M334.396 201.246l-.728.219c-8.631 2.605-17.831 3.055-26.759 1.31l-9.464-1.85-2.183 3.587"/><path clip-path="url(#b)" fill="#5445A1" d="M295.26 208.513a4 4 0 0 1-3.414-6.08l3.631-5.967 12.2 2.384c8.268 1.614 16.854 1.196 24.836-1.214l.731-.22a3.996 3.996 0 0 1 4.982 2.678 3.999 3.999 0 0 1-2.678 4.982l-.727.219c-9.223 2.784-19.143 3.272-28.68 1.406l-6.729-1.315-.733 1.205a3.996 3.996 0 0 1-3.419 1.922"/><path clip-path="url(#b)" fill="#FEB300" d="M317.524 333.739c-.18-2.056-2.548-2.372-3.096-.414l-5.082 18.221-1.663 1.789c-3.805 4.097-9.798 2.649-12.007-2.9-1.162-2.918-4.704-6.104-7.508-8.286-2.275-1.771-5.199-1.737-7.433.109-2.637 2.18-5.915 5.308-7.058 8.177-2.209 5.55-8.202 6.997-12.007 2.9l-1.663-1.789-5.082-18.221c-.546-1.958-2.916-1.642-3.095.414l-2.232 25.66.782 2.905 9.92 10.262c2.453 2.537 5.668 3.945 18.352 3.945H300.046c3.338 0 6.554-1.408 9.006-3.945l9.92-10.262.782-2.905-2.23-25.66z"/><path clip-path="url(#b)" fill="#5445A1" d="M300.048 378.513h-21.395c-13.082 0-16.805-1.469-19.789-4.556l-10.28-10.635-1.008-3.745 2.263-26.012c.167-1.919 1.513-3.373 3.273-3.537 1.708-.147 3.243.978 3.74 2.761l4.952 17.752 1.332 1.433c1.257 1.353 2.832 1.933 4.435 1.634 1.821-.341 3.409-1.803 4.249-3.913 1.049-2.635 3.62-5.654 7.642-8.978 2.937-2.426 6.929-2.487 9.936-.146 4.331 3.371 7.07 6.442 8.138 9.124.84 2.11 2.429 3.572 4.249 3.913 1.604.298 3.178-.281 4.435-1.634l1.333-1.433 4.951-17.752c.498-1.782 2.04-2.91 3.74-2.761 1.761.164 3.106 1.618 3.273 3.537l2.264 26.012-1.01 3.745-10.278 10.634c-2.843 2.938-6.552 4.557-10.445 4.557m-47.87-17.228l9.561 9.892c1.828 1.889 4.234 3.336 16.914 3.336h21.395c2.8 0 5.488-1.186 7.569-3.337l9.561-9.891.557-2.064-2.01-23.082-4.582 16.412-1.992 2.146c-2.193 2.36-5.144 3.397-8.102 2.844-3.177-.595-5.88-2.975-7.229-6.366-.779-1.955-3.223-4.601-6.879-7.447-1.538-1.196-3.428-1.17-4.931.074-3.399 2.808-5.698 5.427-6.474 7.374-1.349 3.391-4.052 5.771-7.23 6.365-2.954.554-5.908-.483-8.1-2.844l-1.994-2.146-4.581-16.423-2.009 23.093.556 2.064z"/><path clip-path="url(#b)" fill="#FFF" d="M285.431 268.513v2.833M285.431 272.346c-.553 0-1-.446-1-1v-2.834a1 1 0 1 1 2 0v2.834a1 1 0 0 1-1 1M296.264 268.513l2.333 1.661M298.597 271.173a.997.997 0 0 1-.579-.186l-2.334-1.661a1.001 1.001 0 0 1 1.162-1.629l2.333 1.662a1 1 0 1 1-.582 1.814M275.723 268.513l-2.333 1.661M273.391 271.173a.999.999 0 0 1-.581-1.814l2.333-1.662a1.001 1.001 0 0 1 1.394.235.999.999 0 0 1-.234 1.394l-2.333 1.661a.997.997 0 0 1-.579.186"/><path clip-path="url(#b)" fill="#5445A1" d="M283.999 311.547c-.86 0-1.722-.068-2.573-.207l-16.259-2.636a28.1 28.1 0 0 1-12.583-5.438 2 2 0 0 1 2.438-3.172 24.067 24.067 0 0 0 10.785 4.661l16.259 2.637c1.1.178 2.218.205 3.325.076l23.356-2.712a17.099 17.099 0 0 0 7.904-3.035l.946-.673a2 2 0 0 1 2.315 3.263l-.945.671a21.11 21.11 0 0 1-9.76 3.748l-23.356 2.711c-.615.071-1.234.106-1.852.106M296.264 323.012H273.39a1.5 1.5 0 1 1 0-3h22.874a1.5 1.5 0 0 1 0 3"/><path clip-path="url(#b)" fill="#FFF" d="M305.75 185.179c-.09 0-.182-.012-.272-.037l-5.187-1.463c-3.244-.918-6.659-.435-9.618 1.355a1 1 0 0 1-1.035-1.71c3.439-2.081 7.414-2.637 11.196-1.57l5.187 1.462a1 1 0 0 1-.271 1.963M232.635 247.23c.517 3.306-3.684 6.71-9.385 7.602-5.701.892-10.741-1.065-11.259-4.371-.517-3.307 3.685-6.71 9.385-7.602 5.701-.893 10.742 1.065 11.259 4.371"/></svg>