<svg xmlns="http://www.w3.org/2000/svg" xmlns:xlink="http://www.w3.org/1999/xlink" width="566" height="526" viewBox="0 0 566 526"><defs><path id="a" d="M0 0h566v526H0z"/></defs><clipPath id="b"><use xlink:href="#a" overflow="visible"/></clipPath><path clip-path="url(#b)" fill="#E6E6E6" d="M484.607 310c0 111.361-90.276 201.637-201.637 201.637S81.333 421.362 81.333 310c0-111.361 90.276-201.637 201.637-201.637S484.607 198.639 484.607 310"/><path clip-path="url(#b)" fill="#C5C5FF" d="M344.652 368.022l4.99-21.75H220.79l4.991 21.75c4.285 18.674 3.996 37.785-.853 56.381l-.001.002c-2.447 9.386 3.664 18.854 14.958 23.179h.001c28.495 10.909 62.166 10.909 90.661 0 11.294-4.324 17.405-13.793 14.958-23.179-4.849-18.595-5.138-37.707-.853-56.383"/><path clip-path="url(#b)" fill="#5445A1" d="M285.216 458.23c-15.875 0-31.751-2.771-46.224-8.312-12.474-4.775-19.252-15.526-16.484-26.144l.021-.083c4.745-18.247 5.019-36.789.815-55.11l-5.693-24.81h135.13l-5.693 24.81c-4.209 18.35-3.928 36.92.836 55.193 2.769 10.617-4.01 21.367-16.483 26.144-14.471 5.542-30.347 8.312-46.225 8.312m-57.889-33.121c-2.051 8.045 3.47 16.317 13.452 20.14 27.825 10.655 61.047 10.655 88.874 0 10.013-3.833 15.536-12.145 13.433-20.212-4.97-19.06-5.263-38.431-.871-57.574l4.289-18.69H223.929l4.288 18.69c4.392 19.142 4.099 38.511-.87 57.571l-.02.075z"/><path clip-path="url(#b)" fill="#C5C5FF" d="M364.541 315.615c-4.711 10.161-11.136 17.652-17.51 21.308-5.425 3.111-10.813 3.444-15.079.278-9.277-6.885-9.729-27.712-1.008-46.52 8.72-18.807 23.311-28.472 32.588-21.587 9.279 6.886 9.729 27.714 1.009 46.521"/><path clip-path="url(#b)" fill="#5445A1" d="M338.677 341.935c-2.981 0-5.766-.909-8.214-2.725-10.337-7.672-11.121-29.45-1.787-49.58 6.124-13.207 15.128-22.452 24.087-24.731 4.535-1.151 8.774-.396 12.261 2.189 10.336 7.671 11.12 29.448 1.785 49.579-4.734 10.212-11.49 18.385-18.533 22.426-3.305 1.892-6.554 2.842-9.599 2.842m18.12-72.56c-.896 0-1.831.123-2.802.37-7.404 1.883-15.368 10.309-20.784 21.987-8.095 17.458-7.988 37.361.232 43.461 4.168 3.098 9.015 1.472 12.343-.438 6.168-3.537 12.177-10.897 16.488-20.192 8.094-17.458 7.988-37.359-.232-43.459-1.55-1.152-3.307-1.729-5.245-1.729"/><path clip-path="url(#b)" fill="#C5C5FF" d="M199.136 315.615c4.513 10.161 10.668 17.652 16.774 21.308 5.197 3.111 10.358 3.444 14.444.278 8.888-6.885 9.321-27.712.967-46.52-8.354-18.807-22.331-28.472-31.219-21.587-8.887 6.886-9.32 27.714-.966 46.521"/><path clip-path="url(#b)" fill="#5445A1" d="M223.916 341.938c-2.949 0-6.092-.957-9.29-2.87-6.759-4.047-13.238-12.226-17.774-22.438-8.929-20.101-8.173-41.847 1.72-49.511 3.322-2.574 7.366-3.358 11.688-2.268 8.559 2.156 17.505 11.665 23.347 24.815 8.927 20.1 8.171 41.848-1.721 49.512-2.376 1.841-5.079 2.76-7.97 2.76m-17.354-72.562c-1.82 0-3.471.566-4.928 1.695-7.884 6.107-7.981 26.04-.212 43.529 4.127 9.293 9.876 16.647 15.773 20.178 3.14 1.881 7.709 3.485 11.629.447 7.883-6.107 7.98-26.041.213-43.53-5.153-11.599-13.003-20.233-19.998-21.996a10.132 10.132 0 0 0-2.477-.323"/><path clip-path="url(#b)" fill="#C5C5FF" d="M323.401 194.733l-22.49-2.739c-3.702-.45-7.482-.018-10.828 1.241l-.182.068c-2.742 1.03-5.743.926-8.49-.094-3.329-1.236-7.079-1.659-10.751-1.211l-3.701 5.898c-4.351.53-39.533 1.83-47.813 14.692-2.241 3.481-12.924 11.645-14.748 15.334-6.107 12.347 4.913 31.396 3.946 45.171l-.023.333c-.398 5.838-.027 17.357-.027 17.357l.825 22.642c.717 19.677 5.684 39.001 14.838 56.435 2.3 4.38 4.411 7.767 5.894 9.023l31.552 23.038c2.484 2.291 5.775 3.567 9.214 3.567l14.275 1h.129l14.275-1c3.438 0 6.729-1.276 9.214-3.567l30.556-23.038c1.954-1.656 5.002-7.015 8.134-13.471 7.59-15.644 11.958-32.657 12.981-50.015l1.451-24.614s.513-11.519.114-17.357c-.803-11.758-9.929-78.693-38.345-78.693"/><path clip-path="url(#b)" fill="#5445A1" d="M285.109 408.988l-.392-.006-14.191-.994c-3.995-.022-7.788-1.485-10.707-4.129l-31.585-23.07c-1.651-1.399-3.773-4.595-6.49-9.768-9.158-17.441-14.388-37.325-15.122-57.506l-.825-22.643c-.016-.484-.372-11.722.031-17.617l.022-.338c.368-5.234-1.153-11.401-2.764-17.931-2.432-9.858-4.945-20.051-.929-28.174 1.114-2.252 4.126-5.121 8.595-9.24 2.551-2.352 5.442-5.018 6.292-6.338 7.213-11.203 30.429-14.278 47.264-15.617l1.189-.094 3.679-5.865 1.181-.143c4.086-.499 8.21-.031 11.925 1.349 2.272.843 4.665.877 6.74.097l.18-.067c3.739-1.406 7.89-1.885 12.012-1.382l22.345 2.721c33.656.243 40.627 80.213 40.682 81.022.404 5.911-.089 17.161-.11 17.638l-1.452 24.65c-1.056 17.894-5.506 35.039-13.229 50.958-5.646 11.641-7.994 13.633-8.766 14.286l-.112.091-30.461 22.966c-2.922 2.651-6.721 4.12-10.722 4.143l-14.28 1.001zm-53.697-32.06l31.688 23.156c2.029 1.872 4.699 2.904 7.517 2.904l.175.005 14.165.993 14.34-.998c2.818 0 5.488-1.032 7.519-2.906l.19-.157 30.487-22.986c.61-.543 2.768-2.949 7.458-12.617 7.434-15.327 11.719-31.836 12.734-49.071l1.451-24.614c.005-.077.5-11.408.115-17.038-1.034-15.152-10.665-76.364-35.851-76.364l-.301-.019-22.491-2.738c-3.328-.405-6.66-.026-9.646 1.098l-.181.069c-3.208 1.204-6.843 1.171-10.24-.091-2.621-.974-5.504-1.379-8.419-1.183l-3.679 5.865-1.182.143c-.495.061-1.373.132-2.557.226-24.386 1.938-39.007 6.427-43.456 13.339-1.195 1.856-3.936 4.382-7.108 7.306-2.992 2.759-6.715 6.192-7.501 7.782-3.207 6.484-.915 15.775 1.3 24.759 1.633 6.617 3.321 13.458 2.899 19.478l-.022.312c-.387 5.664-.027 17.01-.023 17.122l.824 22.633c.708 19.437 5.74 38.58 14.553 55.363 3.125 5.947 4.675 7.72 5.242 8.229"/><path clip-path="url(#b)" fill="#00D6DB" d="M295.328 292.303v12.178l5.237 11.441 8.5 6.167 19.707 2.166 12.793-4.583 7.149-13.417 2.017-17.458-4.227-1.081-31.939-.794-9.834.794zM274.209 292.303v12.178l-5.237 11.441-8.5 6.167-19.707 2.166-12.793-4.583-7.148-13.417-2.018-17.458 4.228-1.081 31.938-.794 9.834.794z"/><path clip-path="url(#b)" fill="#00B7B2" d="M216.485 295.342c2.42 2.094 2.662 8.231 2.662 8.231 2.498 17.481 11.69 21.741 26.605 21.741 14.917 0 18.222-2.961 22.495-5.995 4.273-3.033 7.58-13.795 8.951-17.623 1.37-3.828 7.82-4.189 7.82-4.189s6.449.361 7.82 4.189c1.37 3.828 4.676 14.59 8.949 17.623 4.273 3.034 7.579 5.995 22.495 5.995 14.917 0 24.106-4.26 26.607-21.741 0 0 .239-6.138 2.658-8.231 2.421-2.096 3.631-2.096 3.631-3.829s3.466-4.479-6.289-5.129c-9.758-.649-14.513-1.589-24.914-1.589s-26.89.109-29.67 2.601c-2.782 2.492-6.129 3.25-11.936 3.25-5.803 0-7.859-.758-10.64-3.25-2.782-2.491-19.27-2.601-29.671-2.601-10.4 0-15.159.939-24.913 1.589-9.756.65-6.29 3.396-6.29 5.129s1.212 1.733 3.63 3.829m87.803-5.418c8.949-2.455 30.878-3.25 40.554-.361 0 0 3.951.938 3.871 5.85-.081 4.912-2.258 15.602-3.871 18.708-1.612 3.105-3.145 8.812-20.963 9.245-17.817.434-23.864-8.018-25.799-15.674-1.935-7.657-2.742-15.313 6.208-17.768m-78.612-.361c9.677-2.889 31.606-2.094 40.556.361 8.95 2.455 8.143 10.111 6.209 17.768-1.936 7.656-7.982 16.107-25.801 15.674-17.818-.434-19.35-6.14-20.964-9.245-1.613-3.106-3.789-13.796-3.869-18.708-.08-4.912 3.869-5.85 3.869-5.85"/><path clip-path="url(#b)" fill="#00B7B2" d="M256.883 298.926a6.623 6.623 0 1 1-13.245 0 6.623 6.623 0 0 1 13.245 0M327.33 298.926a6.623 6.623 0 1 1-13.245 0 6.623 6.623 0 0 1 13.245 0"/><path clip-path="url(#b)" fill="#5445A1" d="M304.704 382.841a1.78 1.78 0 1 1-3.561-.001 1.78 1.78 0 0 1 3.561.001"/><path clip-path="url(#b)" fill="#FF71B2" d="M368.527 258.372l-3.176-41.095a46.84 46.84 0 0 0-37.261-42.266l-32.573-6.699a57.255 57.255 0 0 0-23.231.033l-25.848 5.393c-10.946 2.283-21.776 1.665-29.483 9.255a55.202 55.202 0 0 0-2.127 2.226c-10.773 11.879-18.985 27.195-19.882 43.206l-.676 32.947c-1.226 15.861 7.75 28.765 14.628 43.11v-21.897l3.361-24.163c2.831-13.162 3.306-45.833 37.727-44.201l68.739 4.108c13.403-1.646 25.849 7.208 28.688 20.411l4.985 23.182 7.5 20.663v21.897a90.509 90.509 0 0 0 8.629-46.11"/><path clip-path="url(#b)" fill="#FF1579" d="M357.898 313.277v-30.342l-7.455-20.593-4.984-23.182c-2.641-12.274-14.028-20.382-26.489-18.846l-.181.021-68.921-4.119c-28.414-1.303-32.143 21.665-34.63 36.89-.337 2.062-.655 4.011-1.008 5.663l-3.331 23.953v30.555l-3.804-7.932c-1.328-2.772-2.761-5.536-4.147-8.211-6.01-11.597-11.687-22.552-10.676-35.86l.675-32.891c.847-15.155 8.092-30.937 20.4-44.509a59.786 59.786 0 0 1 2.204-2.307c6.25-6.155 14.126-7.279 22.465-8.468 2.625-.375 5.341-.763 8.015-1.321l25.847-5.392a58.887 58.887 0 0 1 24.043-.034l32.573 6.699c16.92 3.48 30.873 15.806 36.415 32.167a48.868 48.868 0 0 1 2.436 11.904l3.177 41.095a92.648 92.648 0 0 1-8.819 47.128l-3.805 7.932zm-73.919-144.146c-3.771 0-7.542.391-11.285 1.172l-25.848 5.392c-2.799.584-5.578.981-8.266 1.365-8.001 1.141-14.911 2.128-20.222 7.357a54.476 54.476 0 0 0-2.05 2.147c-11.694 12.894-18.572 27.8-19.365 41.972l-.68 32.991c-.942 12.197 4.487 22.673 10.236 33.768l.399.771.019-13.757L210.304 258c.337-1.568.653-3.497.986-5.539 2.383-14.594 6.834-41.742 38.792-40.239l68.585 4.099c14.466-1.694 27.637 7.745 30.701 21.997l4.957 23.049 7.573 20.865v12.144a88.647 88.647 0 0 0 4.635-35.849l-3.177-41.096a44.852 44.852 0 0 0-2.235-10.929c-5.089-15.02-17.899-26.337-33.434-29.532l-32.573-6.699a55.187 55.187 0 0 0-11.135-1.14"/><path clip-path="url(#b)" fill="#FF71B2" d="M237.75 215.119s26.9 3.291 49.692 2.353c16.683-.686 28.35 16.786 32.425 26.833 9.641 23.773 9.641 10.205 9.641 10.205l.058-17.146c.576.491 10.635 10.732 10.635 9.981l-.34-16.435 7.705 8.14c1.982 2.095 5.766 1.358 6.982-1.359l1.547-3.449a66.075 66.075 0 0 0 4.271-12.927c3.038-13.918 1.296-28.106-4.973-40.5-5.451-10.776-13.725-22.512-26.599-23.923 0 0-43.547-14.66-85.143 4.859-3.813 1.789-7.808 3.569-9.526 7.259-.549 1.179.506 14.089 1.616 25.948.154 1.646.309 3.271.461 4.842.819 8.445 1.548 15.319 1.548 15.319"/><path clip-path="url(#b)" fill="#FF1579" d="M327.969 260.376c-2.381 0-4.943-2.959-9.954-15.319-3.637-8.962-14.438-25.604-29.632-25.604-.284 0-.569.006-.858.018-22.688.935-49.746-2.332-50.017-2.367l-1.578-.193-.168-1.581c-.007-.068-.74-6.98-1.549-15.336-.153-1.574-.308-3.201-.462-4.849-2.344-25.033-1.82-26.158-1.439-26.978 1.973-4.236 6.313-6.27 10.142-8.064l.349-.163c40.341-18.929 83.012-6.09 86.417-5.012 10.959 1.289 20.106 9.464 27.957 24.985 6.523 12.894 8.302 27.358 5.144 41.829a68.174 68.174 0 0 1-4.399 13.318l-1.546 3.45c-.863 1.925-2.659 3.293-4.804 3.657-2.051.347-4.093-.302-5.457-1.741l-4.146-4.38.261 12.622-1.278.56c-1.418.591-1.581.654-9.399-7.095l-.042 12.384c0 1.948-.38 5.3-2.927 5.797-.206.04-.41.062-.615.062m-39.555-44.924c17.262 0 29.022 17.54 33.307 28.102 2.911 7.179 4.735 10.378 5.74 11.795.029-.283.046-.573.047-.841l.072-21.465 3.283 2.8c.181.153.562.529 1.987 1.945a458.969 458.969 0 0 0 5.259 5.163l-.355-17.175 11.265 11.9c.638.673 1.529.608 1.881.547.827-.139 1.508-.644 1.825-1.349l1.545-3.45a64.21 64.21 0 0 0 4.142-12.535c2.96-13.561 1.299-27.106-4.804-39.171-7.242-14.316-15.43-21.786-25.03-22.837l-.42-.093c-.429-.144-43.306-14.161-83.656 4.773l-.352.165c-3.461 1.622-6.734 3.155-8.136 5.975-.101.803-.174 4.849 1.719 25.071a1934.622 1934.622 0 0 0 1.839 18.542c6.075.674 28.546 2.95 47.789 2.16.352-.014.704-.022 1.053-.022"/><path clip-path="url(#b)" fill="#5445A1" d="M285.248 365.466c-12.687 0-25.369-.494-27.419-1.484a1.5 1.5 0 0 1 1.304-2.703c3.664 1.665 48.57 1.664 52.23 0a1.513 1.513 0 0 1 1.994.723 1.486 1.486 0 0 1-.691 1.98c-2.05.99-14.734 1.484-27.418 1.484M276.1 377.178a1 1 0 0 1-.332-1.943 24.656 24.656 0 0 1 8.207-1.417h7.82c1.781 0 3.571.198 5.322.589a.999.999 0 0 1 .757 1.194.994.994 0 0 1-1.193.758 22.518 22.518 0 0 0-4.886-.541h-7.82c-2.55 0-5.088.438-7.543 1.303a1.04 1.04 0 0 1-.332.057M276.974 288.797c-.427 0-.86-.092-1.272-.285l-3.842-1.806c-8.507-4.485-18.696-6.246-28.705-4.962l-17.12 3.238a2.992 2.992 0 0 1-3.506-2.39 3 3 0 0 1 2.39-3.505l17.377-3.281c11.225-1.46 22.695.512 32.299 5.558l3.655 1.716a2.998 2.998 0 0 1 1.442 3.989 3.003 3.003 0 0 1-2.718 1.728M293.959 288.797a3.003 3.003 0 0 1-2.718-1.728 2.998 2.998 0 0 1 1.442-3.989l3.654-1.716c9.606-5.046 21.073-7.018 32.3-5.558l.171.026 17.205 3.255a2.999 2.999 0 0 1 2.39 3.505 2.994 2.994 0 0 1-3.505 2.39l-17.12-3.238c-10.004-1.284-20.196.477-28.706 4.962l-.124.062-3.717 1.744a2.991 2.991 0 0 1-1.272.285"/><path clip-path="url(#b)" fill="#FF1579" d="M239.23 214.848a1.5 1.5 0 0 1-1.357-2.137c4.104-8.759 13.295-14.173 23.512-13.813l47.567 1.722a1.5 1.5 0 0 1 1.444 1.554 1.513 1.513 0 0 1-1.554 1.445l-47.567-1.723c-8.955-.331-17.094 4.419-20.687 12.089a1.5 1.5 0 0 1-1.358.863M281.97 181.221s19.325-.338 36.422 2.572"/><path clip-path="url(#b)" fill="#FF1579" d="M318.395 185.292c-.084 0-.168-.007-.254-.021-16.756-2.852-35.958-2.557-36.144-2.551h-.027a1.5 1.5 0 0 1-.026-3c.194.002 19.662-.307 36.701 2.593a1.502 1.502 0 0 1 1.228 1.731 1.502 1.502 0 0 1-1.478 1.248M233.976 181.474a1.501 1.501 0 0 1-1.065-2.557c5.821-5.868 13.692-9.683 22.162-10.743l13.259-1.657a1.513 1.513 0 0 1 1.674 1.303 1.5 1.5 0 0 1-1.301 1.674l-13.26 1.657c-7.807.976-15.054 4.485-20.404 9.88a1.503 1.503 0 0 1-1.065.443M215.564 214.088a1.5 1.5 0 0 1-1.251-2.326 22.547 22.547 0 0 1 18.814-10.147l3.073-.005h.002a1.5 1.5 0 0 1 .002 3l-3.072.005a19.553 19.553 0 0 0-16.315 8.799 1.493 1.493 0 0 1-1.253.674"/><path clip-path="url(#b)" fill="#00B7B2" d="M196.898 279.962l22.248 6.525-1.599 11.02zM371.921 279.962l-22.248 6.525 1.598 11.02z"/><path clip-path="url(#b)" fill="#C5C5FF" d="M315.898 385.255l2.809 9.471-1.302 3.699a11.342 11.342 0 0 1-6.444 6.751s-19.841 12.733-25.675 12.648c-5.833-.085-25.202-13.273-25.202-13.273a11.34 11.34 0 0 1-6.333-7.218l2.147-10.745"/><path clip-path="url(#b)" fill="#5445A1" d="M285.335 419.324h-.07c-6.009-.088-23.423-11.768-25.913-13.457a12.81 12.81 0 0 1-7.041-8.114l-.103-.353 2.22-11.105a1.5 1.5 0 1 1 2.941.588l-2.072 10.371a9.817 9.817 0 0 0 5.39 5.924l.241.133c7.636 5.2 20.431 12.955 24.38 13.014h.046c4.003 0 17.003-7.409 24.795-12.411l.248-.128a9.851 9.851 0 0 0 5.594-5.858l1.14-3.241-2.671-9.005a1.502 1.502 0 0 1 1.012-1.865 1.506 1.506 0 0 1 1.865 1.013l2.946 9.936-1.462 4.159a12.849 12.849 0 0 1-7.166 7.588c-2.541 1.624-20.242 12.81-26.32 12.811"/><path clip-path="url(#b)" fill="#5445A1" d="M267.883 410.383a.999.999 0 0 1-.939-.658l-3.318-9.128a.999.999 0 1 1 1.879-.684l3.317 9.128a.997.997 0 0 1-.939 1.342M281.969 418.824c-.454 0-.865-.313-.973-.772l-3.404-14.57a.999.999 0 1 1 1.947-.454l3.405 14.568a1 1 0 0 1-.975 1.228M293.958 415.864a1 1 0 0 1-.977-1.219l2.941-13.137a1 1 0 0 1 1.951.437l-2.94 13.138a1 1 0 0 1-.975.781M307.581 408.279a.997.997 0 0 1-.992-1.131l1.318-10.024a.991.991 0 0 1 1.122-.861 1 1 0 0 1 .861 1.122l-1.319 10.025a1 1 0 0 1-.99.869"/><path clip-path="url(#b)" fill="#FFF" d="M281.969 270.589a.999.999 0 0 1-.983-.824c-.376-2.106-4.994-5.608-7.816-7.322a.999.999 0 1 1 1.037-1.708c.826.5 8.092 5.005 8.747 8.678a.998.998 0 0 1-.985 1.176"/><path clip-path="url(#b)" fill="#5445A1" d="M221.805 362.631a1 1 0 0 1-.784-1.619l6.078-7.709a1 1 0 0 1 1.57 1.238l-6.078 7.709a.998.998 0 0 1-.786.381M227.132 372.817a1 1 0 0 1-.845-1.534l6.843-10.825a1 1 0 0 1 1.691 1.068l-6.842 10.825a1.001 1.001 0 0 1-.847.466M236.202 382.061a.997.997 0 0 1-.943-1.331l3.029-8.64a.996.996 0 0 1 1.274-.611.999.999 0 0 1 .613 1.273l-3.03 8.64a1 1 0 0 1-.943.669M347.199 362.631a.998.998 0 0 1-.786-.381l-6.078-7.709a.999.999 0 1 1 1.57-1.238l6.078 7.709a1 1 0 0 1-.784 1.619M341.872 372.817c-.332 0-.656-.165-.847-.466l-6.841-10.825a1 1 0 1 1 1.691-1.068l6.842 10.825a1 1 0 0 1-.845 1.534M332.802 382.061a.998.998 0 0 1-.942-.669l-3.03-8.64a.998.998 0 0 1 .612-1.273.996.996 0 0 1 1.274.611l3.029 8.64a.996.996 0 0 1-.612 1.273.991.991 0 0 1-.331.058M273.689 319.672a1.001 1.001 0 0 1-.969-1.252l4.247-16.329a7.689 7.689 0 0 1 3.098-4.407 7.648 7.648 0 0 1 9.542.688l2.218 2.041a.997.997 0 0 1 .059 1.411.995.995 0 0 1-1.412.06l-2.218-2.041a5.66 5.66 0 0 0-7.06-.509 5.686 5.686 0 0 0-2.291 3.261l-4.247 16.329a.998.998 0 0 1-.967.748M285.431 351.277c-.029 0-.059-.001-.088-.003-2.889-.167-5.529-1.53-7.849-4.054-.626-.679-1.624-1.345-2.798-.668a5.288 5.288 0 0 1-3.746.599l-1.232-.268c-1.453-.314-2.713-1.247-3.549-2.625-.983-1.621-1.253-3.629-.739-5.511a1.501 1.501 0 0 1 2.895.789c-.294 1.076-.141 2.26.409 3.166.405.667.98 1.111 1.62 1.25l1.23.266a2.25 2.25 0 0 0 1.618-.267c2.163-1.241 4.654-.767 6.498 1.238 1.8 1.956 3.704 2.967 5.817 3.09a1.5 1.5 0 0 1-.086 2.998"/><path clip-path="url(#b)" fill="#5445A1" d="M285.95 351.277a1.5 1.5 0 0 1-.086-2.997c2.113-.123 4.016-1.134 5.816-3.09 1.845-2.005 4.333-2.479 6.499-1.238.51.295 1.07.386 1.615.267l1.232-.266c.64-.139 1.215-.582 1.619-1.249.55-.907.703-2.091.409-3.167a1.5 1.5 0 0 1 2.895-.789c.514 1.882.244 3.891-.739 5.511-.836 1.378-2.096 2.311-3.548 2.625l-1.232.268a5.278 5.278 0 0 1-3.746-.599c-1.18-.676-2.171-.011-2.797.668-2.321 2.523-4.962 3.887-7.85 4.054a2.414 2.414 0 0 1-.087.002"/><path clip-path="url(#b)" fill="#FFF" d="M235.143 299.153c-2.782 5.217-3.79 12.244-6.518 10.79-2.728-1.455-6.144-10.841-3.362-16.059 2.782-5.217 14.708-4.29 17.436-2.835s-4.774 2.888-7.556 8.104M311.563 299.153c-2.781 5.217-3.79 12.244-6.518 10.79-2.729-1.455-6.145-10.841-3.362-16.059 2.782-5.217 14.708-4.29 17.437-2.835 2.727 1.456-4.775 2.888-7.557 8.104"/></svg>