<svg xmlns="http://www.w3.org/2000/svg" xmlns:xlink="http://www.w3.org/1999/xlink" width="566" height="526" viewBox="0 0 566 526"><defs><path id="a" d="M0 0h566v526H0z"/></defs><clipPath id="b"><use xlink:href="#a" overflow="visible"/></clipPath><path clip-path="url(#b)" fill="#E6E6E6" d="M486.855 302.882c0 111.36-90.275 201.637-201.637 201.637S83.582 414.242 83.582 302.882c0-111.361 90.276-201.637 201.637-201.637s201.636 90.276 201.636 201.637"/><path clip-path="url(#b)" fill="#C5C5FF" d="M327.488 362.917l3.77-21.75h-97.333l3.769 21.75a154.87 154.87 0 0 1-.644 56.381v.002a21.357 21.357 0 0 0 11.299 23.178 75.739 75.739 0 0 0 68.484 0 21.36 21.36 0 0 0 11.3-23.178 154.88 154.88 0 0 1-.645-56.383"/><path clip-path="url(#b)" fill="#5445A1" d="M282.591 453.128c-12.149 0-24.298-2.807-35.372-8.421-9.487-4.808-14.678-15.455-12.623-25.891l.066-.333a151.798 151.798 0 0 0 .569-55.141l-4.278-24.676h103.275l-4.277 24.677a151.824 151.824 0 0 0 .635 55.473c2.055 10.437-3.136 21.083-12.623 25.891-11.074 5.614-23.223 8.421-35.372 8.421m-43.117-33.199c-1.547 8.202 2.551 16.541 10.005 20.319 20.734 10.509 45.491 10.507 66.224 0 7.498-3.801 11.601-12.217 9.977-20.466a156.768 156.768 0 0 1-.654-57.292l3.262-18.823h-91.392l3.263 18.822a156.812 156.812 0 0 1-.655 57.292l-.03.148z"/><path clip-path="url(#b)" fill="#C5C5FF" d="M366.108 275.776c-4.779 8.587-11.299 14.919-17.767 18.008-5.504 2.629-10.972 2.91-15.3.235-9.413-5.819-9.872-23.422-1.023-39.315 8.849-15.894 23.653-24.062 33.066-18.243 9.415 5.819 9.873 23.421 1.024 39.315"/><path clip-path="url(#b)" fill="#5445A1" d="M339.873 298.396c-2.957 0-5.719-.75-8.146-2.249-10.697-6.613-11.528-25.351-1.894-42.659 5.968-10.717 14.734-18.471 23.451-20.74 4.854-1.264 9.391-.716 13.114 1.586 10.697 6.613 11.528 25.351 1.894 42.658-4.835 8.685-11.714 15.628-18.874 19.048-3.285 1.57-6.518 2.356-9.545 2.356m18.359-61.306c-1.177 0-2.412.165-3.688.497-7.311 1.902-15.104 8.928-20.341 18.333-8.055 14.469-7.984 30.941.153 35.973 3.414 2.111 7.997 1.98 12.908-.365 6.245-2.982 12.317-9.167 16.659-16.967 8.055-14.469 7.984-30.943-.153-35.973-1.61-.996-3.486-1.498-5.538-1.498"/><path clip-path="url(#b)" fill="#C5C5FF" d="M198.277 275.776c4.579 8.587 10.824 14.919 17.02 18.008 5.273 2.629 10.51 2.91 14.656.235 9.018-5.819 9.457-23.422.981-39.315-8.476-15.894-22.658-24.062-31.676-18.243-9.017 5.819-9.457 23.421-.981 39.315"/><path clip-path="url(#b)" fill="#5445A1" d="M223.413 298.397c-2.929 0-6.053-.792-9.23-2.376-6.875-3.429-13.476-10.379-18.111-19.068-9.213-17.276-8.408-35.985 1.831-42.593 3.547-2.288 7.863-2.865 12.482-1.666 8.463 2.196 16.97 9.984 22.756 20.833 9.213 17.276 8.409 35.984-1.831 42.593-2.353 1.519-5.033 2.277-7.897 2.277m-22.93-23.797c4.157 7.795 9.963 13.972 15.93 16.947 4.643 2.314 8.969 2.446 12.185.372 7.803-5.035 7.863-21.539.13-36.038-5.063-9.493-12.573-16.523-19.6-18.346-3.276-.852-6.141-.504-8.515 1.027-7.801 5.035-7.862 21.539-.13 36.038"/><path clip-path="url(#b)" fill="#C5C5FF" d="M362.138 216.658l-.001-.014c-.226-2.62-.505-5.21-.815-7.783l-3.59-34.267c-2.06-19.659-17.009-35.854-37.124-40.218l-16.78 1.525a211.678 211.678 0 0 1-41.934-.358l-16.723-1.808c-20.598 4.129-35.979 20.641-37.926 40.714l-2.846 29.333c-1.785 12.401-2.581 25.432-2.243 38.818.07 2.797.071 12.754.047 23.588-.049 22.03 8.588 75.417 30.893 91.29l28.158 17.239c2.283 2.004 41.181 2.004 43.464 0l30.405-21.767c20.077-16.539 25.289-59.282 26.009-79.268l.393-10.921a232.711 232.711 0 0 0 1.386-20.162 235.217 235.217 0 0 0-.773-25.941"/><path clip-path="url(#b)" fill="#5445A1" d="M282.985 378.721c-18.397 0-22.002-1.189-23.056-1.873l-29.589-21.192c-23.045-16.399-30.689-66.431-30.638-89.474.029-13.02.013-21.152-.046-23.519-.334-13.238.426-26.421 2.259-39.179l2.841-29.276c2.066-21.301 18.11-38.551 39.923-42.924l.378-.076 17.105 1.851a209.657 209.657 0 0 0 41.439.353l17.162-1.56.375.081c21.199 4.599 36.904 21.639 39.079 42.4l3.59 34.268c.346 2.871.615 5.445.82 7.83l.001.015a237.943 237.943 0 0 1 .78 26.218 236.15 236.15 0 0 1-1.39 20.283l-.39 10.826c-.364 10.142-3.376 61.716-26.917 81.108l-.135.104-30.317 21.702c-.77.636-3.331 2.034-23.274 2.034m-20.302-6.075c4.277 1.414 36.627 1.407 40.659-.019l30.257-21.659c16.926-14.023 24.065-50.432 25.035-77.376l.406-11.11a231.11 231.11 0 0 0 1.371-19.946 233.116 233.116 0 0 0-.765-25.666l-.003-.049a224.96 224.96 0 0 0-.805-7.662l-3.594-34.305c-1.938-18.49-15.9-33.697-34.798-37.954l-16.393 1.49a214.637 214.637 0 0 1-42.431-.361l-16.335-1.767c-19.447 4.058-33.716 19.456-35.557 38.428l-2.86 29.448c-1.798 12.5-2.545 25.419-2.218 38.398.062 2.447.078 10.406.048 23.657-.055 24.688 8.221 76.711 28.394 91.285l29.589 15.168z"/><path clip-path="url(#b)" fill="#5445A1" d="M254.609 240.72a5.205 5.205 0 1 1-10.41 0 5.205 5.205 0 0 1 10.41 0M321.356 240.72a5.205 5.205 0 1 1-10.41 0 5.205 5.205 0 0 1 10.41 0M281.579 301.833l-.095-.002c-3.549-.166-6.815-1.533-9.708-4.064-1.116-.977-2.4-1.207-3.614-.643l-1.591.736a2.003 2.003 0 0 1-2.655-.976 2.002 2.002 0 0 1 .976-2.656l1.591-.735c2.656-1.229 5.619-.757 7.927 1.264 2.226 1.947 4.601 2.954 7.261 3.078a2.001 2.001 0 1 1-.092 3.998"/><path clip-path="url(#b)" fill="#5445A1" d="M283.352 301.833a2.002 2.002 0 0 1-1.998-1.907 2.001 2.001 0 0 1 1.905-2.091c2.66-.124 5.035-1.131 7.261-3.078 2.309-2.02 5.272-2.492 7.928-1.264l1.592.735a2.003 2.003 0 0 1 .976 2.656 1.998 1.998 0 0 1-2.655.976l-1.591-.736c-1.213-.563-2.498-.334-3.615.643-2.893 2.531-6.158 3.898-9.707 4.064l-.096.002M230.62 224.699a2.5 2.5 0 0 1-1.183-4.704l18.749-10.051c4.695-2.517 10.244-2.057 14.479 1.207a2.5 2.5 0 1 1-3.051 3.961c-2.655-2.044-6.129-2.336-9.065-.762l-18.75 10.051c-.377.202-.78.298-1.179.298M332.796 224.698c-.398 0-.803-.095-1.179-.297l-18.75-10.051c-2.94-1.575-6.412-1.28-9.066.762a2.496 2.496 0 0 1-3.506-.455 2.5 2.5 0 0 1 .455-3.506c4.235-3.262 9.785-3.724 14.479-1.207l18.75 10.051a2.498 2.498 0 0 1 1.022 3.384 2.497 2.497 0 0 1-2.205 1.319M281.889 320.229c-3.543 0-7.082-.387-10.541-1.159l-11.149-2.715c-4.542-1.015-8.518-4.079-10.872-8.398a2 2 0 0 1 3.513-1.914c1.801 3.307 4.816 5.646 8.269 6.417l11.148 2.715a44.626 44.626 0 0 0 21.668-.59l20.023-6.163a1.999 1.999 0 1 1 1.176 3.822l-20.072 6.178a48.86 48.86 0 0 1-13.163 1.807M291.274 332.667a.988.988 0 0 1-.479-.123c-2.757-1.509-13.207-.43-16.999.113a.998.998 0 0 1-1.131-.849 1 1 0 0 1 .848-1.132c1.463-.209 14.405-1.986 18.243.113a.999.999 0 0 1 .396 1.357.995.995 0 0 1-.878.521"/><path clip-path="url(#b)" fill="#5445A1" d="M379.472 179.553l-1.144-11.242c-2.465-24.24-17.656-45.816-39.646-56.306l-28.888-13.781c-8.877-4.234-18.882-4.934-28.244-1.984l-2.332-.687a38.695 38.695 0 0 0-26.608 1.754l-24.052 10.684a70.195 70.195 0 0 0-41.522 58.739l-.645 8.25a126.772 126.772 0 0 0 13.991 68.546l4.197 8.049-1.599-34.054 8.235-5.824c4.61-3.26 7.396-8.365 7.646-14.005l.459-10.384c.366-.347 1.36-1.157 3.977-2.807.871-.548 1.751-1.073 2.632-1.593a30.198 30.198 0 0 0 8.757 13.694l5.196 4.634-.891-5.552a26.1 26.1 0 0 1 5.401-20.483 22.912 22.912 0 0 0 7.089 12.072l4.937 4.405-.891-5.554a18.835 18.835 0 0 1 4.387-15.37l.627-.721a17.74 17.74 0 0 0 5.752 10.884l4.754 4.238-.89-5.55a13.7 13.7 0 0 1 3.19-11.18l.114-.132a106.389 106.389 0 0 1 16.329.249 13.694 13.694 0 0 1 3.1 11.062l-.891 5.551 4.754-4.239c3.064-2.733 5.042-6.439 5.683-10.442.188.04.376.086.564.127l.133.153a18.842 18.842 0 0 1 4.387 15.37l-.891 5.557 4.936-4.408a22.902 22.902 0 0 0 7.066-11.974l.151.058a26.097 26.097 0 0 1 5.274 20.327l-.891 5.554 5.194-4.636a30.183 30.183 0 0 0 8.33-12.408c3.578 2.186 4.857 3.186 5.303 3.588l.826 11.244a18.113 18.113 0 0 0 5.456 11.684l12.708 12.331-.1 26.597 3.724-5.98c11.855-19.032 17.133-41.798 14.866-64.105"/><path clip-path="url(#b)" fill="#FFF" d="M230.911 257.424c.517 3.306-3.684 6.71-9.385 7.602-5.701.893-10.741-1.064-11.259-4.371-.517-3.307 3.685-6.71 9.385-7.602 5.701-.893 10.742 1.065 11.259 4.371M328.127 257.424c-.517 3.306 3.685 6.71 9.386 7.602 5.701.893 10.74-1.064 11.259-4.371.517-3.307-3.686-6.71-9.385-7.602-5.701-.893-10.742 1.065-11.26 4.371"/><path clip-path="url(#b)" fill="#675DD1" d="M336.048 129.413c0 5.272-24.412-3.805-54.525-3.805-30.114 0-54.525 9.077-54.525 3.805s24.411-22.898 54.525-22.898c30.113 0 54.525 17.626 54.525 22.898"/><path clip-path="url(#b)" fill="#B7B7EA" d="M293.667 337.516c0 1.783-5.074 3.228-11.333 3.228-6.26 0-11.334-1.444-11.334-3.228s5.074-3.229 11.334-3.229c6.259 0 11.333 1.445 11.333 3.229"/><path clip-path="url(#b)" fill="#5445A1" d="M346.222 322.949c-4.65 12.725-15.923 21.162-27.924 21.162-4.886.779-9.249 3.852-11.84 8.306-.631 1.084-3.376 5.918-7.259 6.502-9.097 1.367-24.435 1.36-33.468-.021-3.811-.582-6.5-5.409-7.123-6.481-2.645-4.546-7.135-7.652-12.141-8.351-12.994-1.815-24.347-12.152-29.437-26.078l-14.207-38.865 3.749 44.513 2.15 11.695c2.126 11.558 7.226 21.974 14.352 30.278.621.723 1.731.758 2.416.096l4.576-4.422c.42-.405 1.098.037.897.585l-3.178 8.647c5.509 5.127 11.9 9.141 18.864 11.7l9.391 3.453 13.395 7.025a28.053 28.053 0 0 0 25.942.057l13.648-7.082 9.391-3.453c19.081-7.015 33.881-24.89 37.927-46.885l2.151-11.695 3.748-44.513-16.02 43.827z"/><path clip-path="url(#b)" fill="#5445A1" d="M344.343 322.263c-4.339 11.872-14.806 19.849-26.045 19.849l-.315.025c-5.505.878-10.335 4.258-13.288 9.334-2.545 4.385-4.722 5.31-5.792 5.471-8.95 1.343-24 1.335-32.87-.02-1.255-.192-3.252-1.286-5.635-5.403l-.062-.107c-2.944-5.062-8.026-8.548-13.593-9.326-12.019-1.679-22.944-11.406-27.835-24.783l-19.331-52.883 5.002 59.386 2.177 11.888c2.035 11.063 6.707 21.168 13.314 29.461 1.393 1.748 3.973 1.95 5.58.397-7.499-8.27-12.802-18.849-14.96-30.581l-2.133-11.599-2.488-29.544 9.083 24.848c5.391 14.747 17.574 25.491 31.038 27.371 4.361.61 8.357 3.368 10.689 7.377l.057.099c2.551 4.408 5.408 6.882 8.493 7.354 9.193 1.404 24.794 1.412 34.068.021 3.163-.476 6.076-2.972 8.689-7.474 2.252-3.87 6.085-6.595 10.278-7.313 12.848-.076 24.742-9.09 29.636-22.475l10.896-29.809-2.488 29.544-2.133 11.599c-3.881 21.1-17.924 38.484-36.65 45.37l-9.391 3.452-13.879 7.184a26.06 26.06 0 0 1-24.094-.055l-13.393-7.023-9.629-3.558c-7.029-2.584-13.397-6.648-18.817-11.832l-.594 1.619a3.768 3.768 0 0 0 1.132 4.201c5.044 4.171 10.732 7.499 16.898 9.766l9.268 3.407 13.277 6.963a30.038 30.038 0 0 0 13.957 3.436c4.751 0 9.502-1.124 13.837-3.373l13.536-7.023 9.272-3.409c20.047-7.371 35.068-25.917 39.203-48.401l2.15-11.694 3.028-59.579-19.143 57.842z"/></svg>