<svg xmlns="http://www.w3.org/2000/svg" xmlns:xlink="http://www.w3.org/1999/xlink" width="566" height="526" viewBox="0 0 566 526"><defs><path id="a" d="M0 0h566v526H0z"/></defs><clipPath id="b"><use xlink:href="#a" overflow="visible"/></clipPath><path clip-path="url(#b)" fill="#E6E6E6" d="M484.637 311.56c0 111.361-90.275 201.638-201.637 201.638S81.363 422.921 81.363 311.56c0-111.36 90.276-201.637 201.637-201.637s201.637 90.276 201.637 201.637"/><path clip-path="url(#b)" fill="#FEB300" d="M371.758 181.013c0 54.053-40.862 97.872-91.269 97.872-50.406 0-91.268-43.818-91.268-97.872 0-54.053 40.862-97.871 91.268-97.871 50.407 0 91.269 43.818 91.269 97.871"/><path clip-path="url(#b)" fill="#D89000" d="M280.489 281.384c-51.704 0-93.769-45.026-93.769-100.371 0-55.345 42.065-100.371 93.769-100.371s93.769 45.026 93.769 100.371c0 55.345-42.065 100.371-93.769 100.371m0-195.742c-48.947 0-88.769 42.783-88.769 95.371 0 52.588 39.822 95.371 88.769 95.371s88.769-42.783 88.769-95.371c0-52.588-39.821-95.371-88.769-95.371"/><path clip-path="url(#b)" fill="#FEB300" d="M342.883 276.146l14.823 13.946c18.812 17.699 25.133 43.59 16.343 66.938l-7.365 19.563a8.909 8.909 0 0 0-.221 5.647c2.215 7.613 12.906 9.746 18.378 3.665l1.042-1.158-1.29 14.242c-.71 7.838-7.188 14.212-15.677 15.422-6.895.981-17.81-1.651-21.91-6.82l-2.34-2.949c-10.258-12.931-11.783-28.503-11.783-44.484-18.612-12.359-28.776-32.755-26.775-53.728l1.775-18.607 35-11.677z"/><path clip-path="url(#b)" fill="#D89000" d="M365.852 417.115c-7.421 0-16.757-2.867-20.805-7.968l-2.339-2.949c-10.53-13.273-12.235-29.276-12.322-44.711-18.571-12.879-28.803-33.944-26.767-55.292l1.93-20.229 37.96-12.664 15.91 14.971c19.671 18.507 26.173 45.19 16.97 69.639l-7.365 19.564a6.393 6.393 0 0 0-.16 4.066c.749 2.572 2.918 4.501 5.805 5.161 3.116.714 6.303-.233 8.314-2.469l6.067-6.742-1.967 21.723c-.818 9.027-8.144 16.293-17.814 17.671a24.233 24.233 0 0 1-3.417.229M310.217 289.68l-1.621 16.989c-1.9 19.933 7.936 39.63 25.67 51.407l1.117.743v1.34c0 17.263 1.912 31.17 11.242 42.931l2.339 2.949c3.432 4.327 13.528 6.759 19.6 5.899 7.364-1.051 12.933-6.468 13.539-13.174l.749-8.262c-2.791 1.397-6.077 1.814-9.299 1.075-4.681-1.07-8.229-4.299-9.49-8.638a11.36 11.36 0 0 1 .282-7.227l7.364-19.563c8.479-22.525 2.457-47.14-15.716-64.237l-13.735-12.923-32.041 10.691z"/><path clip-path="url(#b)" fill="#C5C5FF" d="M325.512 358.226l3.771-21.75H231.95l3.769 21.75a154.87 154.87 0 0 1-.644 56.381v.002a21.357 21.357 0 0 0 11.299 23.178 75.737 75.737 0 0 0 68.483 0 21.36 21.36 0 0 0 11.301-23.178 154.837 154.837 0 0 1-.646-56.383"/><path clip-path="url(#b)" fill="#5445A1" d="M280.615 448.436c-12.149 0-24.298-2.807-35.372-8.42-9.488-4.808-14.678-15.455-12.622-25.891a151.824 151.824 0 0 0 .634-55.473l-4.277-24.678h103.275l-4.278 24.678a151.846 151.846 0 0 0 .635 55.473c2.056 10.436-3.135 21.083-12.622 25.891-11.075 5.613-23.224 8.42-35.373 8.42m-45.696-109.461l3.263 18.823a156.806 156.806 0 0 1-.655 57.291c-1.625 8.251 2.477 16.667 9.976 20.468 20.735 10.509 45.492 10.508 66.224 0 7.499-3.801 11.602-12.217 9.978-20.465a156.8 156.8 0 0 1-.656-57.294l3.263-18.823h-91.393z"/><path clip-path="url(#b)" fill="#C5C5FF" d="M365.677 258.584c-4.579 9.733-10.824 16.91-17.02 20.412-5.273 2.979-10.511 3.299-14.656.267-9.019-6.596-9.457-26.548-.981-44.563 8.477-18.016 22.658-27.274 31.677-20.679 9.017 6.595 9.456 26.547.98 44.563"/><path clip-path="url(#b)" fill="#5445A1" d="M340.536 283.901c-2.907 0-5.623-.873-8.011-2.62-10.091-7.379-10.866-28.308-1.768-47.646 5.943-12.633 14.687-21.499 23.387-23.719 4.452-1.135 8.609-.413 12.027 2.087 10.09 7.378 10.866 28.307 1.768 47.646-4.611 9.801-11.19 17.645-18.053 21.524-3.217 1.818-6.382 2.728-9.35 2.728m17.614-69.508c-.886 0-1.809.123-2.77.368-7.162 1.827-14.863 9.875-20.099 21.003-7.845 16.671-7.755 35.667.194 41.482 4.032 2.947 8.725 1.396 11.95-.426 5.98-3.381 11.808-10.414 15.988-19.3 7.844-16.672 7.755-35.668-.194-41.481-1.497-1.096-3.194-1.646-5.069-1.646"/><path clip-path="url(#b)" fill="#C5C5FF" d="M195.302 258.584c4.579 9.733 10.824 16.91 17.02 20.412 5.273 2.979 10.51 3.299 14.656.267 9.018-6.596 9.457-26.548.981-44.563-8.476-18.016-22.658-27.274-31.676-20.679-9.018 6.595-9.457 26.547-.981 44.563"/><path clip-path="url(#b)" fill="#5445A1" d="M220.442 283.901c-2.967 0-6.132-.909-9.35-2.729-6.861-3.878-13.441-11.723-18.052-21.524-9.099-19.339-8.323-40.268 1.767-47.646 3.419-2.502 7.579-3.222 12.026-2.088 8.702 2.22 17.445 11.087 23.388 23.72 9.099 19.338 8.323 40.268-1.767 47.646a13.337 13.337 0 0 1-8.012 2.621m-17.613-69.508c-1.875 0-3.572.55-5.07 1.646-7.95 5.813-8.039 24.809-.195 41.481 4.181 8.886 10.008 15.919 15.988 19.3 3.224 1.822 7.915 3.376 11.951.426 7.949-5.815 8.038-24.811.194-41.482-5.236-11.128-12.937-19.177-20.099-21.003a11.21 11.21 0 0 0-2.769-.368"/><path clip-path="url(#b)" fill="#C5C5FF" d="M348.835 190.164a33.766 33.766 0 0 1-9.05-21.353l-.856-17.017c-.446-8.875-6.935-16.219-15.555-17.606l-24.997-4.024a20.156 20.156 0 0 0-12.124 1.827l-.083.041a10.658 10.658 0 0 1-9.464-.012 20.149 20.149 0 0 0-12.172-1.851l-24.969 4.019c-8.619 1.387-15.107 8.731-15.554 17.606l-.856 17.017a33.766 33.766 0 0 1-9.05 21.353l-8.34 8.927c-1.709 12.401-2.471 25.432-2.148 38.818.166 6.88.617 13.611 1.324 20.162h.301l15.25 68.133a30.458 30.458 0 0 0 10.023 16.596l29.715 27.227a11.843 11.843 0 0 0 7.996 3.116h24.645c2.955 0 5.808-1.112 7.996-3.116l29.714-27.227a30.455 30.455 0 0 0 10.021-16.596l15.247-68.133h.436a242.036 242.036 0 0 0 1.328-20.162c.342-14.168-.535-27.937-2.461-40.984l-6.317-6.761z"/><path clip-path="url(#b)" fill="#5445A1" d="M292.871 375.642h-24.645c-3.591 0-7.03-1.34-9.685-3.772l-29.715-27.226c-5.358-4.531-9.211-10.909-10.774-17.893l-14.813-66.18h-.542l-.241-2.231a245.815 245.815 0 0 1-1.338-20.37c-.32-13.252.41-26.447 2.171-39.22l.108-.785 8.882-9.507a31.303 31.303 0 0 0 8.378-19.773l.858-17.016c.502-9.994 7.927-18.383 17.653-19.949l24.968-4.018a22.491 22.491 0 0 1 13.683 2.08 8.212 8.212 0 0 0 7.244.01l.094-.046a22.49 22.49 0 0 1 13.617-2.049l24.998 4.023c9.727 1.566 17.151 9.955 17.654 19.949l.856 17.016a31.308 31.308 0 0 0 8.38 19.773l6.849 7.332.114.771c1.989 13.471 2.826 27.403 2.487 41.409a245.482 245.482 0 0 1-1.342 20.37l-.24 2.231h-.678l-14.81 66.18c-1.563 6.984-5.416 13.362-10.847 17.958l-29.641 27.16a14.296 14.296 0 0 1-9.683 3.773m-85.674-120.071h.047l15.687 70.088c1.327 5.927 4.594 11.337 9.199 15.232l29.789 27.29a9.311 9.311 0 0 0 6.307 2.46h24.645a9.313 9.313 0 0 0 6.307-2.459l29.714-27.225a28.177 28.177 0 0 0 9.272-15.299l15.684-70.088h.183c.576-5.868.94-11.818 1.084-17.722.324-13.455-.457-26.838-2.323-39.788l-5.783-6.189h.001a36.31 36.31 0 0 1-9.72-22.935l-.857-17.016c-.385-7.652-6.044-14.072-13.455-15.265l-24.997-4.023a17.56 17.56 0 0 0-10.618 1.6l-.095.046a13.221 13.221 0 0 1-11.674-.021 17.57 17.57 0 0 0-10.662-1.621l-24.968 4.019c-7.412 1.193-13.07 7.613-13.454 15.265l-.858 17.016a36.313 36.313 0 0 1-9.719 22.935l-7.797 8.345c-1.646 12.263-2.326 24.919-2.019 37.632.142 5.923.505 11.874 1.08 17.723"/><path clip-path="url(#b)" fill="#5445A1" d="M280.912 290.389l-.086-.002c-3.841-.161-7.384-1.508-10.533-4.001-1.314-1.041-2.904-1.284-4.363-.677l-1.758.737a2 2 0 0 1-1.545-3.69l1.758-.735c2.8-1.172 5.938-.712 8.391 1.229 2.509 1.987 5.197 3.014 8.219 3.142a2 2 0 0 1 1.914 2.082 2.001 2.001 0 0 1-1.997 1.915"/><path clip-path="url(#b)" fill="#5445A1" d="M282.87 290.389a2 2 0 0 1-.083-3.998c3.022-.128 5.71-1.154 8.218-3.142 2.454-1.94 5.593-2.4 8.392-1.229l1.759.735a2 2 0 0 1-1.545 3.69l-1.758-.737c-1.459-.607-3.05-.363-4.363.677-3.149 2.493-6.692 3.84-10.533 4.001l-.087.003M256.633 223.028a5.205 5.205 0 1 1-10.41 0 5.205 5.205 0 0 1 10.41 0M316.381 223.028a5.205 5.205 0 1 1-10.41 0 5.205 5.205 0 0 1 10.41 0M218.385 216.395a2.5 2.5 0 0 1-2.435-3.076c1.688-7.137 5.664-12.906 10.91-15.829l.611-.341c4.916-2.741 10.547-2.722 15.451.05l25.691 14.518a2.5 2.5 0 0 1-2.46 4.354l-25.691-14.519c-3.4-1.921-7.15-1.935-10.556-.036l-.613.341c-4.022 2.241-7.112 6.838-8.477 12.612a2.5 2.5 0 0 1-2.431 1.926M345.094 216.395a2.5 2.5 0 0 1-2.431-1.926c-1.365-5.774-4.455-10.371-8.478-12.612l-.611-.341c-3.406-1.898-7.155-1.886-10.558.036l-25.69 14.519a2.5 2.5 0 0 1-2.46-4.354l25.69-14.518c4.906-2.771 10.537-2.789 15.451-.05l.611.341c5.246 2.923 9.222 8.692 10.91 15.829a2.502 2.502 0 0 1-2.434 3.076M248.884 342.642c-.55 0-1.08-.304-1.343-.828-2.932-5.864-12.331-20.72-12.425-20.868a1.501 1.501 0 0 1 2.534-1.606c.39.616 9.575 15.133 12.575 21.132.37.741.07 1.643-.671 2.014a1.525 1.525 0 0 1-.67.156M313.771 342.642a1.502 1.502 0 0 1-1.341-2.171c3-5.999 12.185-20.516 12.575-21.132a1.5 1.5 0 0 1 2.534 1.606c-.095.148-9.494 15.005-12.426 20.868a1.5 1.5 0 0 1-1.342.829M273.135 312.47c-1.709 0-3.421-.059-5.136-.177l-12.555-.861a1.998 1.998 0 0 1-1.858-2.132c.075-1.101 1.042-1.918 2.132-1.857l12.555.86a70.064 70.064 0 0 0 22.267-2.028l19.471-8.021a1.997 1.997 0 0 1 2.609 1.088 1.999 1.999 0 0 1-1.087 2.611l-19.856 8.16a73.933 73.933 0 0 1-18.542 2.357"/><path clip-path="url(#b)" fill="#FEB300" d="M288.931 352.546l-3.201-24.012c-.398-2.987-10.833-2.989-11.232 0l-3.201 24.012c-1.166 8.744-8.971 15.046-17.764 14.343l1.095 2.128a24.804 24.804 0 0 0 22.057 13.459h6.859a24.804 24.804 0 0 0 22.057-13.459l1.096-2.128c-8.795.703-16.6-5.599-17.766-14.343"/><path clip-path="url(#b)" fill="#D89000" d="M280.112 330.293c.766 0 1.391.08 1.84.173l3.014 22.608c1.119 8.396 7.271 15.089 15.147 17.184-3.891 5.141-9.967 8.217-16.571 8.217h-6.858c-6.604 0-12.68-3.076-16.57-8.217 7.876-2.095 14.027-8.788 15.146-17.184l3.015-22.609a9.177 9.177 0 0 1 1.837-.172m0-4c-2.708 0-5.416.747-5.615 2.24l-3.201 24.013c-1.107 8.297-8.193 14.397-16.428 14.397-.442 0-.888-.019-1.336-.055l1.094 2.128a24.803 24.803 0 0 0 22.058 13.458h6.858a24.802 24.802 0 0 0 22.058-13.458l1.096-2.128c-.448.036-.896.055-1.337.055-8.235 0-15.321-6.1-16.428-14.397l-3.201-24.013c-.2-1.493-2.909-2.24-5.618-2.24M265.883 119.892c-.531 0-1.061-.21-1.455-.627-9.255-9.8-3.178-26.144-2.915-26.835a2 2 0 1 1 3.739 1.422c-.055.146-5.44 14.699 2.085 22.667a2 2 0 0 1-1.454 3.373"/><path clip-path="url(#b)" fill="#5445A1" d="M269.216 331.142a1.499 1.499 0 0 1-.44-2.934l5.873-1.804a19.019 19.019 0 0 1 10.93-.083l6.468 1.881a1.499 1.499 0 0 1 1.021 1.858 1.495 1.495 0 0 1-1.859 1.021l-6.468-1.88a16.024 16.024 0 0 0-9.211.069l-5.873 1.805a1.471 1.471 0 0 1-.441.067"/><path clip-path="url(#b)" fill="#FFF" d="M239.299 243.771c.517 3.306-3.684 6.71-9.385 7.602-5.701.892-10.741-1.065-11.259-4.372-.517-3.306 3.685-6.709 9.385-7.601 5.701-.893 10.742 1.065 11.259 4.371M320.931 243.771c-.517 3.306 3.684 6.71 9.385 7.602s10.741-1.065 11.259-4.372c.518-3.306-3.685-6.709-9.385-7.601-5.702-.893-10.743 1.065-11.259 4.371"/></svg>